  0
SECTION
  2
BLOCKS
  0
ENDSEC
  0
SECTION
  2
ENTITIES
  0
LINE
  8
0
 10
340
 20
100
 11
0
 21
100
  0
LINE
  8
0
 10
0
 20
100
 11
0
 21
0
  0
LINE
  8
0
 10
0
 20
0
 11
340
 21
0
  0
LINE
  8
0
 10
340
 20
0
 11
340
 21
100
  0
LINE
  8
0
 10
4.79094
 20
93.011
 11
4.38196
 21
93.0979
  0
LINE
  8
0
 10
4.38196
 20
93.0979
 11
4
 21
93.2679
  0
LINE
  8
0
 10
4
 20
93.2679
 11
3.66173
 21
93.5137
  0
LINE
  8
0
 10
3.66173
 20
93.5137
 11
3.38196
 21
93.8244
  0
LINE
  8
0
 10
3.38196
 20
93.8244
 11
3.1729
 21
94.1865
  0
LINE
  8
0
 10
3.1729
 20
94.1865
 11
3.0437
 21
94.5842
  0
LINE
  8
0
 10
3.0437
 20
94.5842
 11
3
 21
95
  0
LINE
  8
0
 10
3
 20
95
 11
3.0437
 21
95.4158
  0
LINE
  8
0
 10
3.0437
 20
95.4158
 11
3.1729
 21
95.8135
  0
LINE
  8
0
 10
3.1729
 20
95.8135
 11
3.38196
 21
96.1756
  0
LINE
  8
0
 10
3.38196
 20
96.1756
 11
3.66173
 21
96.4863
  0
LINE
  8
0
 10
3.66173
 20
96.4863
 11
4
 21
96.732
  0
LINE
  8
0
 10
4
 20
96.732
 11
4.38196
 21
96.9021
  0
LINE
  8
0
 10
4.38196
 20
96.9021
 11
4.79094
 21
96.989
  0
LINE
  8
0
 10
4.79094
 20
96.989
 11
5.20905
 21
96.989
  0
LINE
  8
0
 10
5.20905
 20
96.989
 11
5.61803
 21
96.9021
  0
LINE
  8
0
 10
5.61803
 20
96.9021
 11
6
 21
96.732
  0
LINE
  8
0
 10
6
 20
96.732
 11
6.33826
 21
96.4863
  0
LINE
  8
0
 10
6.33826
 20
96.4863
 11
6.61803
 21
96.1756
  0
LINE
  8
0
 10
6.61803
 20
96.1756
 11
6.82709
 21
95.8135
  0
LINE
  8
0
 10
6.82709
 20
95.8135
 11
6.95628
 21
95.4158
  0
LINE
  8
0
 10
6.95628
 20
95.4158
 11
7
 21
95
  0
LINE
  8
0
 10
7
 20
95
 11
6.95628
 21
94.5842
  0
LINE
  8
0
 10
6.95628
 20
94.5842
 11
6.82709
 21
94.1865
  0
LINE
  8
0
 10
6.82709
 20
94.1865
 11
6.61803
 21
93.8244
  0
LINE
  8
0
 10
6.61803
 20
93.8244
 11
6.33826
 21
93.5137
  0
LINE
  8
0
 10
6.33826
 20
93.5137
 11
6
 21
93.2679
  0
LINE
  8
0
 10
6
 20
93.2679
 11
5.61803
 21
93.0979
  0
LINE
  8
0
 10
5.61803
 20
93.0979
 11
5.20905
 21
93.011
  0
LINE
  8
0
 10
5.20905
 20
93.011
 11
4.79094
 21
93.011
  0
LINE
  8
0
 10
169.791
 20
93.011
 11
169.382
 21
93.0979
  0
LINE
  8
0
 10
169.382
 20
93.0979
 11
169
 21
93.2679
  0
LINE
  8
0
 10
169
 20
93.2679
 11
168.662
 21
93.5137
  0
LINE
  8
0
 10
168.662
 20
93.5137
 11
168.382
 21
93.8244
  0
LINE
  8
0
 10
168.382
 20
93.8244
 11
168.173
 21
94.1865
  0
LINE
  8
0
 10
168.173
 20
94.1865
 11
168.044
 21
94.5842
  0
LINE
  8
0
 10
168.044
 20
94.5842
 11
168
 21
95
  0
LINE
  8
0
 10
168
 20
95
 11
168.044
 21
95.4158
  0
LINE
  8
0
 10
168.044
 20
95.4158
 11
168.173
 21
95.8135
  0
LINE
  8
0
 10
168.173
 20
95.8135
 11
168.382
 21
96.1756
  0
LINE
  8
0
 10
168.382
 20
96.1756
 11
168.662
 21
96.4863
  0
LINE
  8
0
 10
168.662
 20
96.4863
 11
169
 21
96.732
  0
LINE
  8
0
 10
169
 20
96.732
 11
169.382
 21
96.9021
  0
LINE
  8
0
 10
169.382
 20
96.9021
 11
169.791
 21
96.989
  0
LINE
  8
0
 10
169.791
 20
96.989
 11
170.209
 21
96.989
  0
LINE
  8
0
 10
170.209
 20
96.989
 11
170.618
 21
96.9021
  0
LINE
  8
0
 10
170.618
 20
96.9021
 11
171
 21
96.732
  0
LINE
  8
0
 10
171
 20
96.732
 11
171.338
 21
96.4863
  0
LINE
  8
0
 10
171.338
 20
96.4863
 11
171.618
 21
96.1756
  0
LINE
  8
0
 10
171.618
 20
96.1756
 11
171.827
 21
95.8135
  0
LINE
  8
0
 10
171.827
 20
95.8135
 11
171.956
 21
95.4158
  0
LINE
  8
0
 10
171.956
 20
95.4158
 11
172
 21
95
  0
LINE
  8
0
 10
172
 20
95
 11
171.956
 21
94.5842
  0
LINE
  8
0
 10
171.956
 20
94.5842
 11
171.827
 21
94.1865
  0
LINE
  8
0
 10
171.827
 20
94.1865
 11
171.618
 21
93.8244
  0
LINE
  8
0
 10
171.618
 20
93.8244
 11
171.338
 21
93.5137
  0
LINE
  8
0
 10
171.338
 20
93.5137
 11
171
 21
93.2679
  0
LINE
  8
0
 10
171
 20
93.2679
 11
170.618
 21
93.0979
  0
LINE
  8
0
 10
170.618
 20
93.0979
 11
170.209
 21
93.011
  0
LINE
  8
0
 10
170.209
 20
93.011
 11
169.791
 21
93.011
  0
LINE
  8
0
 10
334.791
 20
93.011
 11
334.382
 21
93.0979
  0
LINE
  8
0
 10
334.382
 20
93.0979
 11
334
 21
93.2679
  0
LINE
  8
0
 10
334
 20
93.2679
 11
333.662
 21
93.5137
  0
LINE
  8
0
 10
333.662
 20
93.5137
 11
333.382
 21
93.8244
  0
LINE
  8
0
 10
333.382
 20
93.8244
 11
333.173
 21
94.1865
  0
LINE
  8
0
 10
333.173
 20
94.1865
 11
333.044
 21
94.5842
  0
LINE
  8
0
 10
333.044
 20
94.5842
 11
333
 21
95
  0
LINE
  8
0
 10
333
 20
95
 11
333.044
 21
95.4158
  0
LINE
  8
0
 10
333.044
 20
95.4158
 11
333.173
 21
95.8135
  0
LINE
  8
0
 10
333.173
 20
95.8135
 11
333.382
 21
96.1756
  0
LINE
  8
0
 10
333.382
 20
96.1756
 11
333.662
 21
96.4863
  0
LINE
  8
0
 10
333.662
 20
96.4863
 11
334
 21
96.732
  0
LINE
  8
0
 10
334
 20
96.732
 11
334.382
 21
96.9021
  0
LINE
  8
0
 10
334.382
 20
96.9021
 11
334.791
 21
96.989
  0
LINE
  8
0
 10
334.791
 20
96.989
 11
335.209
 21
96.989
  0
LINE
  8
0
 10
335.209
 20
96.989
 11
335.618
 21
96.9021
  0
LINE
  8
0
 10
335.618
 20
96.9021
 11
336
 21
96.732
  0
LINE
  8
0
 10
336
 20
96.732
 11
336.338
 21
96.4863
  0
LINE
  8
0
 10
336.338
 20
96.4863
 11
336.618
 21
96.1756
  0
LINE
  8
0
 10
336.618
 20
96.1756
 11
336.827
 21
95.8135
  0
LINE
  8
0
 10
336.827
 20
95.8135
 11
336.956
 21
95.4158
  0
LINE
  8
0
 10
336.956
 20
95.4158
 11
337
 21
95
  0
LINE
  8
0
 10
337
 20
95
 11
336.956
 21
94.5842
  0
LINE
  8
0
 10
336.956
 20
94.5842
 11
336.827
 21
94.1865
  0
LINE
  8
0
 10
336.827
 20
94.1865
 11
336.618
 21
93.8244
  0
LINE
  8
0
 10
336.618
 20
93.8244
 11
336.338
 21
93.5137
  0
LINE
  8
0
 10
336.338
 20
93.5137
 11
336
 21
93.2679
  0
LINE
  8
0
 10
336
 20
93.2679
 11
335.618
 21
93.0979
  0
LINE
  8
0
 10
335.618
 20
93.0979
 11
335.209
 21
93.011
  0
LINE
  8
0
 10
335.209
 20
93.011
 11
334.791
 21
93.011
  0
LINE
  8
0
 10
281
 20
81
 11
281
 21
90
  0
LINE
  8
0
 10
281
 20
90
 11
290
 21
90
  0
LINE
  8
0
 10
290
 20
90
 11
290
 21
81
  0
LINE
  8
0
 10
290
 20
81
 11
281
 21
81
  0
LINE
  8
0
 10
291
 20
81
 11
291
 21
90
  0
LINE
  8
0
 10
291
 20
90
 11
300
 21
90
  0
LINE
  8
0
 10
300
 20
90
 11
300
 21
81
  0
LINE
  8
0
 10
300
 20
81
 11
291
 21
81
  0
LINE
  8
0
 10
311
 20
81
 11
311
 21
90
  0
LINE
  8
0
 10
311
 20
90
 11
320
 21
90
  0
LINE
  8
0
 10
320
 20
90
 11
320
 21
81
  0
LINE
  8
0
 10
320
 20
81
 11
311
 21
81
  0
LINE
  8
0
 10
31
 20
81
 11
31
 21
90
  0
LINE
  8
0
 10
31
 20
90
 11
40
 21
90
  0
LINE
  8
0
 10
40
 20
90
 11
40
 21
81
  0
LINE
  8
0
 10
40
 20
81
 11
31
 21
81
  0
LINE
  8
0
 10
231
 20
81
 11
231
 21
90
  0
LINE
  8
0
 10
231
 20
90
 11
240
 21
90
  0
LINE
  8
0
 10
240
 20
90
 11
240
 21
81
  0
LINE
  8
0
 10
240
 20
81
 11
231
 21
81
  0
LINE
  8
0
 10
91
 20
81
 11
91
 21
90
  0
LINE
  8
0
 10
91
 20
90
 11
100
 21
90
  0
LINE
  8
0
 10
100
 20
90
 11
100
 21
81
  0
LINE
  8
0
 10
100
 20
81
 11
91
 21
81
  0
LINE
  8
0
 10
41
 20
81
 11
41
 21
90
  0
LINE
  8
0
 10
41
 20
90
 11
50
 21
90
  0
LINE
  8
0
 10
50
 20
90
 11
50
 21
81
  0
LINE
  8
0
 10
50
 20
81
 11
41
 21
81
  0
LINE
  8
0
 10
11
 20
81
 11
11
 21
90
  0
LINE
  8
0
 10
11
 20
90
 11
20
 21
90
  0
LINE
  8
0
 10
20
 20
90
 11
20
 21
81
  0
LINE
  8
0
 10
20
 20
81
 11
11
 21
81
  0
LINE
  8
0
 10
21
 20
81
 11
21
 21
90
  0
LINE
  8
0
 10
21
 20
90
 11
30
 21
90
  0
LINE
  8
0
 10
30
 20
90
 11
30
 21
81
  0
LINE
  8
0
 10
30
 20
81
 11
21
 21
81
  0
LINE
  8
0
 10
251
 20
81
 11
251
 21
90
  0
LINE
  8
0
 10
251
 20
90
 11
260
 21
90
  0
LINE
  8
0
 10
260
 20
90
 11
260
 21
81
  0
LINE
  8
0
 10
260
 20
81
 11
251
 21
81
  0
LINE
  8
0
 10
131
 20
81
 11
131
 21
90
  0
LINE
  8
0
 10
131
 20
90
 11
140
 21
90
  0
LINE
  8
0
 10
140
 20
90
 11
140
 21
81
  0
LINE
  8
0
 10
140
 20
81
 11
131
 21
81
  0
LINE
  8
0
 10
241
 20
81
 11
241
 21
90
  0
LINE
  8
0
 10
241
 20
90
 11
250
 21
90
  0
LINE
  8
0
 10
250
 20
90
 11
250
 21
81
  0
LINE
  8
0
 10
250
 20
81
 11
241
 21
81
  0
LINE
  8
0
 10
71
 20
81
 11
71
 21
90
  0
LINE
  8
0
 10
71
 20
90
 11
80
 21
90
  0
LINE
  8
0
 10
80
 20
90
 11
80
 21
81
  0
LINE
  8
0
 10
80
 20
81
 11
71
 21
81
  0
LINE
  8
0
 10
51
 20
81
 11
51
 21
90
  0
LINE
  8
0
 10
51
 20
90
 11
60
 21
90
  0
LINE
  8
0
 10
60
 20
90
 11
60
 21
81
  0
LINE
  8
0
 10
60
 20
81
 11
51
 21
81
  0
LINE
  8
0
 10
261
 20
81
 11
261
 21
90
  0
LINE
  8
0
 10
261
 20
90
 11
270
 21
90
  0
LINE
  8
0
 10
270
 20
90
 11
270
 21
81
  0
LINE
  8
0
 10
270
 20
81
 11
261
 21
81
  0
LINE
  8
0
 10
141
 20
81
 11
141
 21
90
  0
LINE
  8
0
 10
141
 20
90
 11
150
 21
90
  0
LINE
  8
0
 10
150
 20
90
 11
150
 21
81
  0
LINE
  8
0
 10
150
 20
81
 11
141
 21
81
  0
LINE
  8
0
 10
211
 20
81
 11
211
 21
90
  0
LINE
  8
0
 10
211
 20
90
 11
220
 21
90
  0
LINE
  8
0
 10
220
 20
90
 11
220
 21
81
  0
LINE
  8
0
 10
220
 20
81
 11
211
 21
81
  0
LINE
  8
0
 10
201
 20
81
 11
201
 21
90
  0
LINE
  8
0
 10
201
 20
90
 11
210
 21
90
  0
LINE
  8
0
 10
210
 20
90
 11
210
 21
81
  0
LINE
  8
0
 10
210
 20
81
 11
201
 21
81
  0
LINE
  8
0
 10
191
 20
81
 11
191
 21
90
  0
LINE
  8
0
 10
191
 20
90
 11
200
 21
90
  0
LINE
  8
0
 10
200
 20
90
 11
200
 21
81
  0
LINE
  8
0
 10
200
 20
81
 11
191
 21
81
  0
LINE
  8
0
 10
171
 20
81
 11
171
 21
90
  0
LINE
  8
0
 10
171
 20
90
 11
180
 21
90
  0
LINE
  8
0
 10
180
 20
90
 11
180
 21
81
  0
LINE
  8
0
 10
180
 20
81
 11
171
 21
81
  0
LINE
  8
0
 10
271
 20
81
 11
271
 21
90
  0
LINE
  8
0
 10
271
 20
90
 11
280
 21
90
  0
LINE
  8
0
 10
280
 20
90
 11
280
 21
81
  0
LINE
  8
0
 10
280
 20
81
 11
271
 21
81
  0
LINE
  8
0
 10
81
 20
81
 11
81
 21
90
  0
LINE
  8
0
 10
81
 20
90
 11
90
 21
90
  0
LINE
  8
0
 10
90
 20
90
 11
90
 21
81
  0
LINE
  8
0
 10
90
 20
81
 11
81
 21
81
  0
LINE
  8
0
 10
111
 20
81
 11
111
 21
90
  0
LINE
  8
0
 10
111
 20
90
 11
120
 21
90
  0
LINE
  8
0
 10
120
 20
90
 11
120
 21
81
  0
LINE
  8
0
 10
120
 20
81
 11
111
 21
81
  0
LINE
  8
0
 10
151
 20
81
 11
151
 21
90
  0
LINE
  8
0
 10
151
 20
90
 11
160
 21
90
  0
LINE
  8
0
 10
160
 20
90
 11
160
 21
81
  0
LINE
  8
0
 10
160
 20
81
 11
151
 21
81
  0
LINE
  8
0
 10
221
 20
81
 11
221
 21
90
  0
LINE
  8
0
 10
221
 20
90
 11
230
 21
90
  0
LINE
  8
0
 10
230
 20
90
 11
230
 21
81
  0
LINE
  8
0
 10
230
 20
81
 11
221
 21
81
  0
LINE
  8
0
 10
301
 20
81
 11
301
 21
90
  0
LINE
  8
0
 10
301
 20
90
 11
310
 21
90
  0
LINE
  8
0
 10
310
 20
90
 11
310
 21
81
  0
LINE
  8
0
 10
310
 20
81
 11
301
 21
81
  0
LINE
  8
0
 10
321
 20
81
 11
321
 21
90
  0
LINE
  8
0
 10
321
 20
90
 11
330
 21
90
  0
LINE
  8
0
 10
330
 20
90
 11
330
 21
81
  0
LINE
  8
0
 10
330
 20
81
 11
321
 21
81
  0
LINE
  8
0
 10
101
 20
81
 11
101
 21
90
  0
LINE
  8
0
 10
101
 20
90
 11
110
 21
90
  0
LINE
  8
0
 10
110
 20
90
 11
110
 21
81
  0
LINE
  8
0
 10
110
 20
81
 11
101
 21
81
  0
LINE
  8
0
 10
170
 20
81
 11
161
 21
81
  0
LINE
  8
0
 10
161
 20
81
 11
161
 21
90
  0
LINE
  8
0
 10
161
 20
90
 11
170
 21
90
  0
LINE
  8
0
 10
170
 20
90
 11
170
 21
81
  0
LINE
  8
0
 10
130
 20
81
 11
121
 21
81
  0
LINE
  8
0
 10
121
 20
81
 11
121
 21
90
  0
LINE
  8
0
 10
121
 20
90
 11
130
 21
90
  0
LINE
  8
0
 10
130
 20
90
 11
130
 21
81
  0
LINE
  8
0
 10
181
 20
81
 11
181
 21
90
  0
LINE
  8
0
 10
181
 20
90
 11
190
 21
90
  0
LINE
  8
0
 10
190
 20
90
 11
190
 21
81
  0
LINE
  8
0
 10
190
 20
81
 11
181
 21
81
  0
LINE
  8
0
 10
61
 20
81
 11
61
 21
90
  0
LINE
  8
0
 10
61
 20
90
 11
70
 21
90
  0
LINE
  8
0
 10
70
 20
90
 11
70
 21
81
  0
LINE
  8
0
 10
70
 20
81
 11
61
 21
81
  0
LINE
  8
0
 10
151
 20
71
 11
151
 21
80
  0
LINE
  8
0
 10
151
 20
80
 11
160
 21
80
  0
LINE
  8
0
 10
160
 20
80
 11
160
 21
71
  0
LINE
  8
0
 10
160
 20
71
 11
151
 21
71
  0
LINE
  8
0
 10
311
 20
71
 11
311
 21
80
  0
LINE
  8
0
 10
311
 20
80
 11
320
 21
80
  0
LINE
  8
0
 10
320
 20
80
 11
320
 21
71
  0
LINE
  8
0
 10
320
 20
71
 11
311
 21
71
  0
LINE
  8
0
 10
211
 20
80
 11
220
 21
80
  0
LINE
  8
0
 10
220
 20
80
 11
220
 21
71
  0
LINE
  8
0
 10
220
 20
71
 11
211
 21
71
  0
LINE
  8
0
 10
211
 20
71
 11
211
 21
80
  0
LINE
  8
0
 10
301
 20
71
 11
301
 21
80
  0
LINE
  8
0
 10
301
 20
80
 11
310
 21
80
  0
LINE
  8
0
 10
310
 20
80
 11
310
 21
71
  0
LINE
  8
0
 10
310
 20
71
 11
301
 21
71
  0
LINE
  8
0
 10
291
 20
71
 11
291
 21
80
  0
LINE
  8
0
 10
291
 20
80
 11
300
 21
80
  0
LINE
  8
0
 10
300
 20
80
 11
300
 21
71
  0
LINE
  8
0
 10
300
 20
71
 11
291
 21
71
  0
LINE
  8
0
 10
231
 20
71
 11
231
 21
80
  0
LINE
  8
0
 10
231
 20
80
 11
240
 21
80
  0
LINE
  8
0
 10
240
 20
80
 11
240
 21
71
  0
LINE
  8
0
 10
240
 20
71
 11
231
 21
71
  0
LINE
  8
0
 10
191
 20
71
 11
191
 21
80
  0
LINE
  8
0
 10
191
 20
80
 11
200
 21
80
  0
LINE
  8
0
 10
200
 20
80
 11
200
 21
71
  0
LINE
  8
0
 10
200
 20
71
 11
191
 21
71
  0
LINE
  8
0
 10
161
 20
71
 11
161
 21
80
  0
LINE
  8
0
 10
161
 20
80
 11
170
 21
80
  0
LINE
  8
0
 10
170
 20
80
 11
170
 21
71
  0
LINE
  8
0
 10
170
 20
71
 11
161
 21
71
  0
LINE
  8
0
 10
51
 20
71
 11
51
 21
80
  0
LINE
  8
0
 10
51
 20
80
 11
60
 21
80
  0
LINE
  8
0
 10
60
 20
80
 11
60
 21
71
  0
LINE
  8
0
 10
60
 20
71
 11
51
 21
71
  0
LINE
  8
0
 10
281
 20
71
 11
281
 21
80
  0
LINE
  8
0
 10
281
 20
80
 11
290
 21
80
  0
LINE
  8
0
 10
290
 20
80
 11
290
 21
71
  0
LINE
  8
0
 10
290
 20
71
 11
281
 21
71
  0
LINE
  8
0
 10
61
 20
71
 11
61
 21
80
  0
LINE
  8
0
 10
61
 20
80
 11
70
 21
80
  0
LINE
  8
0
 10
70
 20
80
 11
70
 21
71
  0
LINE
  8
0
 10
70
 20
71
 11
61
 21
71
  0
LINE
  8
0
 10
71
 20
71
 11
71
 21
80
  0
LINE
  8
0
 10
71
 20
80
 11
80
 21
80
  0
LINE
  8
0
 10
80
 20
80
 11
80
 21
71
  0
LINE
  8
0
 10
80
 20
71
 11
71
 21
71
  0
LINE
  8
0
 10
11
 20
71
 11
11
 21
80
  0
LINE
  8
0
 10
11
 20
80
 11
20
 21
80
  0
LINE
  8
0
 10
20
 20
80
 11
20
 21
71
  0
LINE
  8
0
 10
20
 20
71
 11
11
 21
71
  0
LINE
  8
0
 10
21
 20
71
 11
21
 21
80
  0
LINE
  8
0
 10
21
 20
80
 11
30
 21
80
  0
LINE
  8
0
 10
30
 20
80
 11
30
 21
71
  0
LINE
  8
0
 10
30
 20
71
 11
21
 21
71
  0
LINE
  8
0
 10
31
 20
71
 11
31
 21
80
  0
LINE
  8
0
 10
31
 20
80
 11
40
 21
80
  0
LINE
  8
0
 10
40
 20
80
 11
40
 21
71
  0
LINE
  8
0
 10
40
 20
71
 11
31
 21
71
  0
LINE
  8
0
 10
41
 20
71
 11
41
 21
80
  0
LINE
  8
0
 10
41
 20
80
 11
50
 21
80
  0
LINE
  8
0
 10
50
 20
80
 11
50
 21
71
  0
LINE
  8
0
 10
50
 20
71
 11
41
 21
71
  0
LINE
  8
0
 10
181
 20
71
 11
181
 21
80
  0
LINE
  8
0
 10
181
 20
80
 11
190
 21
80
  0
LINE
  8
0
 10
190
 20
80
 11
190
 21
71
  0
LINE
  8
0
 10
190
 20
71
 11
181
 21
71
  0
LINE
  8
0
 10
171
 20
71
 11
171
 21
80
  0
LINE
  8
0
 10
171
 20
80
 11
180
 21
80
  0
LINE
  8
0
 10
180
 20
80
 11
180
 21
71
  0
LINE
  8
0
 10
180
 20
71
 11
171
 21
71
  0
LINE
  8
0
 10
241
 20
71
 11
241
 21
80
  0
LINE
  8
0
 10
241
 20
80
 11
250
 21
80
  0
LINE
  8
0
 10
250
 20
80
 11
250
 21
71
  0
LINE
  8
0
 10
250
 20
71
 11
241
 21
71
  0
LINE
  8
0
 10
251
 20
71
 11
251
 21
80
  0
LINE
  8
0
 10
251
 20
80
 11
260
 21
80
  0
LINE
  8
0
 10
260
 20
80
 11
260
 21
71
  0
LINE
  8
0
 10
260
 20
71
 11
251
 21
71
  0
LINE
  8
0
 10
121
 20
71
 11
121
 21
80
  0
LINE
  8
0
 10
121
 20
80
 11
130
 21
80
  0
LINE
  8
0
 10
130
 20
80
 11
130
 21
71
  0
LINE
  8
0
 10
130
 20
71
 11
121
 21
71
  0
LINE
  8
0
 10
131
 20
71
 11
131
 21
80
  0
LINE
  8
0
 10
131
 20
80
 11
140
 21
80
  0
LINE
  8
0
 10
140
 20
80
 11
140
 21
71
  0
LINE
  8
0
 10
140
 20
71
 11
131
 21
71
  0
LINE
  8
0
 10
261
 20
71
 11
261
 21
80
  0
LINE
  8
0
 10
261
 20
80
 11
270
 21
80
  0
LINE
  8
0
 10
270
 20
80
 11
270
 21
71
  0
LINE
  8
0
 10
270
 20
71
 11
261
 21
71
  0
LINE
  8
0
 10
321
 20
71
 11
321
 21
80
  0
LINE
  8
0
 10
321
 20
80
 11
330
 21
80
  0
LINE
  8
0
 10
330
 20
80
 11
330
 21
71
  0
LINE
  8
0
 10
330
 20
71
 11
321
 21
71
  0
LINE
  8
0
 10
201
 20
71
 11
201
 21
80
  0
LINE
  8
0
 10
201
 20
80
 11
210
 21
80
  0
LINE
  8
0
 10
210
 20
80
 11
210
 21
71
  0
LINE
  8
0
 10
210
 20
71
 11
201
 21
71
  0
LINE
  8
0
 10
141
 20
71
 11
141
 21
80
  0
LINE
  8
0
 10
141
 20
80
 11
150
 21
80
  0
LINE
  8
0
 10
150
 20
80
 11
150
 21
71
  0
LINE
  8
0
 10
150
 20
71
 11
141
 21
71
  0
LINE
  8
0
 10
91
 20
71
 11
91
 21
80
  0
LINE
  8
0
 10
91
 20
80
 11
100
 21
80
  0
LINE
  8
0
 10
100
 20
80
 11
100
 21
71
  0
LINE
  8
0
 10
100
 20
71
 11
91
 21
71
  0
LINE
  8
0
 10
111
 20
71
 11
111
 21
80
  0
LINE
  8
0
 10
111
 20
80
 11
120
 21
80
  0
LINE
  8
0
 10
120
 20
80
 11
120
 21
71
  0
LINE
  8
0
 10
120
 20
71
 11
111
 21
71
  0
LINE
  8
0
 10
81
 20
71
 11
81
 21
80
  0
LINE
  8
0
 10
81
 20
80
 11
90
 21
80
  0
LINE
  8
0
 10
90
 20
80
 11
90
 21
71
  0
LINE
  8
0
 10
90
 20
71
 11
81
 21
71
  0
LINE
  8
0
 10
101
 20
71
 11
101
 21
80
  0
LINE
  8
0
 10
101
 20
80
 11
110
 21
80
  0
LINE
  8
0
 10
110
 20
80
 11
110
 21
71
  0
LINE
  8
0
 10
110
 20
71
 11
101
 21
71
  0
LINE
  8
0
 10
280
 20
71
 11
271
 21
71
  0
LINE
  8
0
 10
271
 20
71
 11
271
 21
80
  0
LINE
  8
0
 10
271
 20
80
 11
280
 21
80
  0
LINE
  8
0
 10
280
 20
80
 11
280
 21
71
  0
LINE
  8
0
 10
291
 20
61
 11
291
 21
70
  0
LINE
  8
0
 10
291
 20
70
 11
300
 21
70
  0
LINE
  8
0
 10
300
 20
70
 11
300
 21
61
  0
LINE
  8
0
 10
300
 20
61
 11
291
 21
61
  0
LINE
  8
0
 10
171
 20
61
 11
171
 21
70
  0
LINE
  8
0
 10
171
 20
70
 11
180
 21
70
  0
LINE
  8
0
 10
180
 20
70
 11
180
 21
61
  0
LINE
  8
0
 10
180
 20
61
 11
171
 21
61
  0
LINE
  8
0
 10
81
 20
61
 11
81
 21
70
  0
LINE
  8
0
 10
81
 20
70
 11
90
 21
70
  0
LINE
  8
0
 10
90
 20
70
 11
90
 21
61
  0
LINE
  8
0
 10
90
 20
61
 11
81
 21
61
  0
LINE
  8
0
 10
311
 20
61
 11
311
 21
70
  0
LINE
  8
0
 10
311
 20
70
 11
320
 21
70
  0
LINE
  8
0
 10
320
 20
70
 11
320
 21
61
  0
LINE
  8
0
 10
320
 20
61
 11
311
 21
61
  0
LINE
  8
0
 10
241
 20
61
 11
241
 21
70
  0
LINE
  8
0
 10
241
 20
70
 11
250
 21
70
  0
LINE
  8
0
 10
250
 20
70
 11
250
 21
61
  0
LINE
  8
0
 10
250
 20
61
 11
241
 21
61
  0
LINE
  8
0
 10
231
 20
61
 11
231
 21
70
  0
LINE
  8
0
 10
231
 20
70
 11
240
 21
70
  0
LINE
  8
0
 10
240
 20
70
 11
240
 21
61
  0
LINE
  8
0
 10
240
 20
61
 11
231
 21
61
  0
LINE
  8
0
 10
251
 20
61
 11
251
 21
70
  0
LINE
  8
0
 10
251
 20
70
 11
260
 21
70
  0
LINE
  8
0
 10
260
 20
70
 11
260
 21
61
  0
LINE
  8
0
 10
260
 20
61
 11
251
 21
61
  0
LINE
  8
0
 10
221
 20
61
 11
221
 21
70
  0
LINE
  8
0
 10
221
 20
70
 11
230
 21
70
  0
LINE
  8
0
 10
230
 20
70
 11
230
 21
61
  0
LINE
  8
0
 10
230
 20
61
 11
221
 21
61
  0
LINE
  8
0
 10
31
 20
61
 11
31
 21
70
  0
LINE
  8
0
 10
31
 20
70
 11
40
 21
70
  0
LINE
  8
0
 10
40
 20
70
 11
40
 21
61
  0
LINE
  8
0
 10
40
 20
61
 11
31
 21
61
  0
LINE
  8
0
 10
201
 20
61
 11
201
 21
70
  0
LINE
  8
0
 10
201
 20
70
 11
210
 21
70
  0
LINE
  8
0
 10
210
 20
70
 11
210
 21
61
  0
LINE
  8
0
 10
210
 20
61
 11
201
 21
61
  0
LINE
  8
0
 10
211
 20
61
 11
211
 21
70
  0
LINE
  8
0
 10
211
 20
70
 11
220
 21
70
  0
LINE
  8
0
 10
220
 20
70
 11
220
 21
61
  0
LINE
  8
0
 10
220
 20
61
 11
211
 21
61
  0
LINE
  8
0
 10
271
 20
70
 11
280
 21
70
  0
LINE
  8
0
 10
280
 20
70
 11
280
 21
61
  0
LINE
  8
0
 10
280
 20
61
 11
271
 21
61
  0
LINE
  8
0
 10
271
 20
61
 11
271
 21
70
  0
LINE
  8
0
 10
181
 20
61
 11
181
 21
70
  0
LINE
  8
0
 10
181
 20
70
 11
190
 21
70
  0
LINE
  8
0
 10
190
 20
70
 11
190
 21
61
  0
LINE
  8
0
 10
190
 20
61
 11
181
 21
61
  0
LINE
  8
0
 10
261
 20
61
 11
261
 21
70
  0
LINE
  8
0
 10
261
 20
70
 11
270
 21
70
  0
LINE
  8
0
 10
270
 20
70
 11
270
 21
61
  0
LINE
  8
0
 10
270
 20
61
 11
261
 21
61
  0
LINE
  8
0
 10
191
 20
61
 11
191
 21
70
  0
LINE
  8
0
 10
191
 20
70
 11
200
 21
70
  0
LINE
  8
0
 10
200
 20
70
 11
200
 21
61
  0
LINE
  8
0
 10
200
 20
61
 11
191
 21
61
  0
LINE
  8
0
 10
161
 20
61
 11
161
 21
70
  0
LINE
  8
0
 10
161
 20
70
 11
170
 21
70
  0
LINE
  8
0
 10
170
 20
70
 11
170
 21
61
  0
LINE
  8
0
 10
170
 20
61
 11
161
 21
61
  0
LINE
  8
0
 10
91
 20
61
 11
91
 21
70
  0
LINE
  8
0
 10
91
 20
70
 11
100
 21
70
  0
LINE
  8
0
 10
100
 20
70
 11
100
 21
61
  0
LINE
  8
0
 10
100
 20
61
 11
91
 21
61
  0
LINE
  8
0
 10
61
 20
61
 11
61
 21
70
  0
LINE
  8
0
 10
61
 20
70
 11
70
 21
70
  0
LINE
  8
0
 10
70
 20
70
 11
70
 21
61
  0
LINE
  8
0
 10
70
 20
61
 11
61
 21
61
  0
LINE
  8
0
 10
101
 20
61
 11
101
 21
70
  0
LINE
  8
0
 10
101
 20
70
 11
110
 21
70
  0
LINE
  8
0
 10
110
 20
70
 11
110
 21
61
  0
LINE
  8
0
 10
110
 20
61
 11
101
 21
61
  0
LINE
  8
0
 10
51
 20
61
 11
51
 21
70
  0
LINE
  8
0
 10
51
 20
70
 11
60
 21
70
  0
LINE
  8
0
 10
60
 20
70
 11
60
 21
61
  0
LINE
  8
0
 10
60
 20
61
 11
51
 21
61
  0
LINE
  8
0
 10
41
 20
61
 11
41
 21
70
  0
LINE
  8
0
 10
41
 20
70
 11
50
 21
70
  0
LINE
  8
0
 10
50
 20
70
 11
50
 21
61
  0
LINE
  8
0
 10
50
 20
61
 11
41
 21
61
  0
LINE
  8
0
 10
121
 20
61
 11
121
 21
70
  0
LINE
  8
0
 10
121
 20
70
 11
130
 21
70
  0
LINE
  8
0
 10
130
 20
70
 11
130
 21
61
  0
LINE
  8
0
 10
130
 20
61
 11
121
 21
61
  0
LINE
  8
0
 10
111
 20
61
 11
111
 21
70
  0
LINE
  8
0
 10
111
 20
70
 11
120
 21
70
  0
LINE
  8
0
 10
120
 20
70
 11
120
 21
61
  0
LINE
  8
0
 10
120
 20
61
 11
111
 21
61
  0
LINE
  8
0
 10
71
 20
61
 11
71
 21
70
  0
LINE
  8
0
 10
71
 20
70
 11
80
 21
70
  0
LINE
  8
0
 10
80
 20
70
 11
80
 21
61
  0
LINE
  8
0
 10
80
 20
61
 11
71
 21
61
  0
LINE
  8
0
 10
11
 20
61
 11
11
 21
70
  0
LINE
  8
0
 10
11
 20
70
 11
20
 21
70
  0
LINE
  8
0
 10
20
 20
70
 11
20
 21
61
  0
LINE
  8
0
 10
20
 20
61
 11
11
 21
61
  0
LINE
  8
0
 10
301
 20
61
 11
301
 21
70
  0
LINE
  8
0
 10
301
 20
70
 11
310
 21
70
  0
LINE
  8
0
 10
310
 20
70
 11
310
 21
61
  0
LINE
  8
0
 10
310
 20
61
 11
301
 21
61
  0
LINE
  8
0
 10
131
 20
70
 11
140
 21
70
  0
LINE
  8
0
 10
140
 20
70
 11
140
 21
61
  0
LINE
  8
0
 10
140
 20
61
 11
131
 21
61
  0
LINE
  8
0
 10
131
 20
61
 11
131
 21
70
  0
LINE
  8
0
 10
151
 20
61
 11
151
 21
70
  0
LINE
  8
0
 10
151
 20
70
 11
160
 21
70
  0
LINE
  8
0
 10
160
 20
70
 11
160
 21
61
  0
LINE
  8
0
 10
160
 20
61
 11
151
 21
61
  0
LINE
  8
0
 10
21
 20
61
 11
21
 21
70
  0
LINE
  8
0
 10
21
 20
70
 11
30
 21
70
  0
LINE
  8
0
 10
30
 20
70
 11
30
 21
61
  0
LINE
  8
0
 10
30
 20
61
 11
21
 21
61
  0
LINE
  8
0
 10
321
 20
61
 11
321
 21
70
  0
LINE
  8
0
 10
321
 20
70
 11
330
 21
70
  0
LINE
  8
0
 10
330
 20
70
 11
330
 21
61
  0
LINE
  8
0
 10
330
 20
61
 11
321
 21
61
  0
LINE
  8
0
 10
251
 20
51
 11
251
 21
60
  0
LINE
  8
0
 10
251
 20
60
 11
260
 21
60
  0
LINE
  8
0
 10
260
 20
60
 11
260
 21
51
  0
LINE
  8
0
 10
260
 20
51
 11
251
 21
51
  0
LINE
  8
0
 10
51
 20
51
 11
51
 21
60
  0
LINE
  8
0
 10
51
 20
60
 11
60
 21
60
  0
LINE
  8
0
 10
60
 20
60
 11
60
 21
51
  0
LINE
  8
0
 10
60
 20
51
 11
51
 21
51
  0
LINE
  8
0
 10
281
 20
51
 11
281
 21
60
  0
LINE
  8
0
 10
281
 20
60
 11
290
 21
60
  0
LINE
  8
0
 10
290
 20
60
 11
290
 21
51
  0
LINE
  8
0
 10
290
 20
51
 11
281
 21
51
  0
LINE
  8
0
 10
291
 20
51
 11
291
 21
60
  0
LINE
  8
0
 10
291
 20
60
 11
300
 21
60
  0
LINE
  8
0
 10
300
 20
60
 11
300
 21
51
  0
LINE
  8
0
 10
300
 20
51
 11
291
 21
51
  0
LINE
  8
0
 10
311
 20
51
 11
311
 21
60
  0
LINE
  8
0
 10
311
 20
60
 11
320
 21
60
  0
LINE
  8
0
 10
320
 20
60
 11
320
 21
51
  0
LINE
  8
0
 10
320
 20
51
 11
311
 21
51
  0
LINE
  8
0
 10
231
 20
51
 11
231
 21
60
  0
LINE
  8
0
 10
231
 20
60
 11
240
 21
60
  0
LINE
  8
0
 10
240
 20
60
 11
240
 21
51
  0
LINE
  8
0
 10
240
 20
51
 11
231
 21
51
  0
LINE
  8
0
 10
161
 20
51
 11
161
 21
60
  0
LINE
  8
0
 10
161
 20
60
 11
170
 21
60
  0
LINE
  8
0
 10
170
 20
60
 11
170
 21
51
  0
LINE
  8
0
 10
170
 20
51
 11
161
 21
51
  0
LINE
  8
0
 10
11
 20
51
 11
11
 21
60
  0
LINE
  8
0
 10
11
 20
60
 11
20
 21
60
  0
LINE
  8
0
 10
20
 20
60
 11
20
 21
51
  0
LINE
  8
0
 10
20
 20
51
 11
11
 21
51
  0
LINE
  8
0
 10
21
 20
51
 11
21
 21
60
  0
LINE
  8
0
 10
21
 20
60
 11
30
 21
60
  0
LINE
  8
0
 10
30
 20
60
 11
30
 21
51
  0
LINE
  8
0
 10
30
 20
51
 11
21
 21
51
  0
LINE
  8
0
 10
61
 20
51
 11
61
 21
60
  0
LINE
  8
0
 10
61
 20
60
 11
70
 21
60
  0
LINE
  8
0
 10
70
 20
60
 11
70
 21
51
  0
LINE
  8
0
 10
70
 20
51
 11
61
 21
51
  0
LINE
  8
0
 10
261
 20
51
 11
261
 21
60
  0
LINE
  8
0
 10
261
 20
60
 11
270
 21
60
  0
LINE
  8
0
 10
270
 20
60
 11
270
 21
51
  0
LINE
  8
0
 10
270
 20
51
 11
261
 21
51
  0
LINE
  8
0
 10
241
 20
51
 11
241
 21
60
  0
LINE
  8
0
 10
241
 20
60
 11
250
 21
60
  0
LINE
  8
0
 10
250
 20
60
 11
250
 21
51
  0
LINE
  8
0
 10
250
 20
51
 11
241
 21
51
  0
LINE
  8
0
 10
221
 20
51
 11
221
 21
60
  0
LINE
  8
0
 10
221
 20
60
 11
230
 21
60
  0
LINE
  8
0
 10
230
 20
60
 11
230
 21
51
  0
LINE
  8
0
 10
230
 20
51
 11
221
 21
51
  0
LINE
  8
0
 10
271
 20
51
 11
271
 21
60
  0
LINE
  8
0
 10
271
 20
60
 11
280
 21
60
  0
LINE
  8
0
 10
280
 20
60
 11
280
 21
51
  0
LINE
  8
0
 10
280
 20
51
 11
271
 21
51
  0
LINE
  8
0
 10
211
 20
51
 11
211
 21
60
  0
LINE
  8
0
 10
211
 20
60
 11
220
 21
60
  0
LINE
  8
0
 10
220
 20
60
 11
220
 21
51
  0
LINE
  8
0
 10
220
 20
51
 11
211
 21
51
  0
LINE
  8
0
 10
201
 20
51
 11
201
 21
60
  0
LINE
  8
0
 10
201
 20
60
 11
210
 21
60
  0
LINE
  8
0
 10
210
 20
60
 11
210
 21
51
  0
LINE
  8
0
 10
210
 20
51
 11
201
 21
51
  0
LINE
  8
0
 10
191
 20
51
 11
191
 21
60
  0
LINE
  8
0
 10
191
 20
60
 11
200
 21
60
  0
LINE
  8
0
 10
200
 20
60
 11
200
 21
51
  0
LINE
  8
0
 10
200
 20
51
 11
191
 21
51
  0
LINE
  8
0
 10
181
 20
51
 11
181
 21
60
  0
LINE
  8
0
 10
181
 20
60
 11
190
 21
60
  0
LINE
  8
0
 10
190
 20
60
 11
190
 21
51
  0
LINE
  8
0
 10
190
 20
51
 11
181
 21
51
  0
LINE
  8
0
 10
171
 20
51
 11
171
 21
60
  0
LINE
  8
0
 10
171
 20
60
 11
180
 21
60
  0
LINE
  8
0
 10
180
 20
60
 11
180
 21
51
  0
LINE
  8
0
 10
180
 20
51
 11
171
 21
51
  0
LINE
  8
0
 10
151
 20
51
 11
151
 21
60
  0
LINE
  8
0
 10
151
 20
60
 11
160
 21
60
  0
LINE
  8
0
 10
160
 20
60
 11
160
 21
51
  0
LINE
  8
0
 10
160
 20
51
 11
151
 21
51
  0
LINE
  8
0
 10
141
 20
51
 11
141
 21
60
  0
LINE
  8
0
 10
141
 20
60
 11
150
 21
60
  0
LINE
  8
0
 10
150
 20
60
 11
150
 21
51
  0
LINE
  8
0
 10
150
 20
51
 11
141
 21
51
  0
LINE
  8
0
 10
91
 20
51
 11
91
 21
60
  0
LINE
  8
0
 10
91
 20
60
 11
100
 21
60
  0
LINE
  8
0
 10
100
 20
60
 11
100
 21
51
  0
LINE
  8
0
 10
100
 20
51
 11
91
 21
51
  0
LINE
  8
0
 10
81
 20
51
 11
81
 21
60
  0
LINE
  8
0
 10
81
 20
60
 11
90
 21
60
  0
LINE
  8
0
 10
90
 20
60
 11
90
 21
51
  0
LINE
  8
0
 10
90
 20
51
 11
81
 21
51
  0
LINE
  8
0
 10
321
 20
51
 11
321
 21
60
  0
LINE
  8
0
 10
321
 20
60
 11
330
 21
60
  0
LINE
  8
0
 10
330
 20
60
 11
330
 21
51
  0
LINE
  8
0
 10
330
 20
51
 11
321
 21
51
  0
LINE
  8
0
 10
41
 20
51
 11
41
 21
60
  0
LINE
  8
0
 10
41
 20
60
 11
50
 21
60
  0
LINE
  8
0
 10
50
 20
60
 11
50
 21
51
  0
LINE
  8
0
 10
50
 20
51
 11
41
 21
51
  0
LINE
  8
0
 10
301
 20
51
 11
301
 21
60
  0
LINE
  8
0
 10
301
 20
60
 11
310
 21
60
  0
LINE
  8
0
 10
310
 20
60
 11
310
 21
51
  0
LINE
  8
0
 10
310
 20
51
 11
301
 21
51
  0
LINE
  8
0
 10
31
 20
51
 11
31
 21
60
  0
LINE
  8
0
 10
31
 20
60
 11
40
 21
60
  0
LINE
  8
0
 10
40
 20
60
 11
40
 21
51
  0
LINE
  8
0
 10
40
 20
51
 11
31
 21
51
  0
LINE
  8
0
 10
71
 20
51
 11
71
 21
60
  0
LINE
  8
0
 10
71
 20
60
 11
80
 21
60
  0
LINE
  8
0
 10
80
 20
60
 11
80
 21
51
  0
LINE
  8
0
 10
80
 20
51
 11
71
 21
51
  0
LINE
  8
0
 10
131
 20
51
 11
131
 21
60
  0
LINE
  8
0
 10
131
 20
60
 11
140
 21
60
  0
LINE
  8
0
 10
140
 20
60
 11
140
 21
51
  0
LINE
  8
0
 10
140
 20
51
 11
131
 21
51
  0
LINE
  8
0
 10
121
 20
51
 11
121
 21
60
  0
LINE
  8
0
 10
121
 20
60
 11
130
 21
60
  0
LINE
  8
0
 10
130
 20
60
 11
130
 21
51
  0
LINE
  8
0
 10
130
 20
51
 11
121
 21
51
  0
LINE
  8
0
 10
111
 20
51
 11
111
 21
60
  0
LINE
  8
0
 10
111
 20
60
 11
120
 21
60
  0
LINE
  8
0
 10
120
 20
60
 11
120
 21
51
  0
LINE
  8
0
 10
120
 20
51
 11
111
 21
51
  0
LINE
  8
0
 10
101
 20
51
 11
101
 21
60
  0
LINE
  8
0
 10
101
 20
60
 11
110
 21
60
  0
LINE
  8
0
 10
110
 20
60
 11
110
 21
51
  0
LINE
  8
0
 10
110
 20
51
 11
101
 21
51
  0
LINE
  8
0
 10
311
 20
41
 11
311
 21
50
  0
LINE
  8
0
 10
311
 20
50
 11
320
 21
50
  0
LINE
  8
0
 10
320
 20
50
 11
320
 21
41
  0
LINE
  8
0
 10
320
 20
41
 11
311
 21
41
  0
LINE
  8
0
 10
101
 20
41
 11
101
 21
50
  0
LINE
  8
0
 10
101
 20
50
 11
110
 21
50
  0
LINE
  8
0
 10
110
 20
50
 11
110
 21
41
  0
LINE
  8
0
 10
110
 20
41
 11
101
 21
41
  0
LINE
  8
0
 10
201
 20
41
 11
201
 21
50
  0
LINE
  8
0
 10
201
 20
50
 11
210
 21
50
  0
LINE
  8
0
 10
210
 20
50
 11
210
 21
41
  0
LINE
  8
0
 10
210
 20
41
 11
201
 21
41
  0
LINE
  8
0
 10
191
 20
41
 11
191
 21
50
  0
LINE
  8
0
 10
191
 20
50
 11
200
 21
50
  0
LINE
  8
0
 10
200
 20
50
 11
200
 21
41
  0
LINE
  8
0
 10
200
 20
41
 11
191
 21
41
  0
LINE
  8
0
 10
131
 20
41
 11
131
 21
50
  0
LINE
  8
0
 10
131
 20
50
 11
140
 21
50
  0
LINE
  8
0
 10
140
 20
50
 11
140
 21
41
  0
LINE
  8
0
 10
140
 20
41
 11
131
 21
41
  0
LINE
  8
0
 10
171
 20
41
 11
171
 21
50
  0
LINE
  8
0
 10
171
 20
50
 11
180
 21
50
  0
LINE
  8
0
 10
180
 20
50
 11
180
 21
41
  0
LINE
  8
0
 10
180
 20
41
 11
171
 21
41
  0
LINE
  8
0
 10
21
 20
41
 11
21
 21
50
  0
LINE
  8
0
 10
21
 20
50
 11
30
 21
50
  0
LINE
  8
0
 10
30
 20
50
 11
30
 21
41
  0
LINE
  8
0
 10
30
 20
41
 11
21
 21
41
  0
LINE
  8
0
 10
111
 20
41
 11
111
 21
50
  0
LINE
  8
0
 10
111
 20
50
 11
120
 21
50
  0
LINE
  8
0
 10
120
 20
50
 11
120
 21
41
  0
LINE
  8
0
 10
120
 20
41
 11
111
 21
41
  0
LINE
  8
0
 10
11
 20
41
 11
11
 21
50
  0
LINE
  8
0
 10
11
 20
50
 11
20
 21
50
  0
LINE
  8
0
 10
20
 20
50
 11
20
 21
41
  0
LINE
  8
0
 10
20
 20
41
 11
11
 21
41
  0
LINE
  8
0
 10
41
 20
41
 11
41
 21
50
  0
LINE
  8
0
 10
41
 20
50
 11
50
 21
50
  0
LINE
  8
0
 10
50
 20
50
 11
50
 21
41
  0
LINE
  8
0
 10
50
 20
41
 11
41
 21
41
  0
LINE
  8
0
 10
91
 20
41
 11
91
 21
50
  0
LINE
  8
0
 10
91
 20
50
 11
100
 21
50
  0
LINE
  8
0
 10
100
 20
50
 11
100
 21
41
  0
LINE
  8
0
 10
100
 20
41
 11
91
 21
41
  0
LINE
  8
0
 10
61
 20
41
 11
61
 21
50
  0
LINE
  8
0
 10
61
 20
50
 11
70
 21
50
  0
LINE
  8
0
 10
70
 20
50
 11
70
 21
41
  0
LINE
  8
0
 10
70
 20
41
 11
61
 21
41
  0
LINE
  8
0
 10
241
 20
41
 11
241
 21
50
  0
LINE
  8
0
 10
241
 20
50
 11
250
 21
50
  0
LINE
  8
0
 10
250
 20
50
 11
250
 21
41
  0
LINE
  8
0
 10
250
 20
41
 11
241
 21
41
  0
LINE
  8
0
 10
51
 20
41
 11
51
 21
50
  0
LINE
  8
0
 10
51
 20
50
 11
60
 21
50
  0
LINE
  8
0
 10
60
 20
50
 11
60
 21
41
  0
LINE
  8
0
 10
60
 20
41
 11
51
 21
41
  0
LINE
  8
0
 10
31
 20
41
 11
31
 21
50
  0
LINE
  8
0
 10
31
 20
50
 11
40
 21
50
  0
LINE
  8
0
 10
40
 20
50
 11
40
 21
41
  0
LINE
  8
0
 10
40
 20
41
 11
31
 21
41
  0
LINE
  8
0
 10
71
 20
50
 11
80
 21
50
  0
LINE
  8
0
 10
80
 20
50
 11
80
 21
41
  0
LINE
  8
0
 10
80
 20
41
 11
71
 21
41
  0
LINE
  8
0
 10
71
 20
41
 11
71
 21
50
  0
LINE
  8
0
 10
161
 20
41
 11
161
 21
50
  0
LINE
  8
0
 10
161
 20
50
 11
170
 21
50
  0
LINE
  8
0
 10
170
 20
50
 11
170
 21
41
  0
LINE
  8
0
 10
170
 20
41
 11
161
 21
41
  0
LINE
  8
0
 10
151
 20
41
 11
151
 21
50
  0
LINE
  8
0
 10
151
 20
50
 11
160
 21
50
  0
LINE
  8
0
 10
160
 20
50
 11
160
 21
41
  0
LINE
  8
0
 10
160
 20
41
 11
151
 21
41
  0
LINE
  8
0
 10
181
 20
41
 11
181
 21
50
  0
LINE
  8
0
 10
181
 20
50
 11
190
 21
50
  0
LINE
  8
0
 10
190
 20
50
 11
190
 21
41
  0
LINE
  8
0
 10
190
 20
41
 11
181
 21
41
  0
LINE
  8
0
 10
141
 20
41
 11
141
 21
50
  0
LINE
  8
0
 10
141
 20
50
 11
150
 21
50
  0
LINE
  8
0
 10
150
 20
50
 11
150
 21
41
  0
LINE
  8
0
 10
150
 20
41
 11
141
 21
41
  0
LINE
  8
0
 10
211
 20
41
 11
211
 21
50
  0
LINE
  8
0
 10
211
 20
50
 11
220
 21
50
  0
LINE
  8
0
 10
220
 20
50
 11
220
 21
41
  0
LINE
  8
0
 10
220
 20
41
 11
211
 21
41
  0
LINE
  8
0
 10
121
 20
41
 11
121
 21
50
  0
LINE
  8
0
 10
121
 20
50
 11
130
 21
50
  0
LINE
  8
0
 10
130
 20
50
 11
130
 21
41
  0
LINE
  8
0
 10
130
 20
41
 11
121
 21
41
  0
LINE
  8
0
 10
321
 20
41
 11
321
 21
50
  0
LINE
  8
0
 10
321
 20
50
 11
330
 21
50
  0
LINE
  8
0
 10
330
 20
50
 11
330
 21
41
  0
LINE
  8
0
 10
330
 20
41
 11
321
 21
41
  0
LINE
  8
0
 10
261
 20
41
 11
261
 21
50
  0
LINE
  8
0
 10
261
 20
50
 11
270
 21
50
  0
LINE
  8
0
 10
270
 20
50
 11
270
 21
41
  0
LINE
  8
0
 10
270
 20
41
 11
261
 21
41
  0
LINE
  8
0
 10
301
 20
41
 11
301
 21
50
  0
LINE
  8
0
 10
301
 20
50
 11
310
 21
50
  0
LINE
  8
0
 10
310
 20
50
 11
310
 21
41
  0
LINE
  8
0
 10
310
 20
41
 11
301
 21
41
  0
LINE
  8
0
 10
251
 20
41
 11
251
 21
50
  0
LINE
  8
0
 10
251
 20
50
 11
260
 21
50
  0
LINE
  8
0
 10
260
 20
50
 11
260
 21
41
  0
LINE
  8
0
 10
260
 20
41
 11
251
 21
41
  0
LINE
  8
0
 10
291
 20
41
 11
291
 21
50
  0
LINE
  8
0
 10
291
 20
50
 11
300
 21
50
  0
LINE
  8
0
 10
300
 20
50
 11
300
 21
41
  0
LINE
  8
0
 10
300
 20
41
 11
291
 21
41
  0
LINE
  8
0
 10
221
 20
50
 11
230
 21
50
  0
LINE
  8
0
 10
230
 20
50
 11
230
 21
41
  0
LINE
  8
0
 10
230
 20
41
 11
221
 21
41
  0
LINE
  8
0
 10
221
 20
41
 11
221
 21
50
  0
LINE
  8
0
 10
281
 20
41
 11
281
 21
50
  0
LINE
  8
0
 10
281
 20
50
 11
290
 21
50
  0
LINE
  8
0
 10
290
 20
50
 11
290
 21
41
  0
LINE
  8
0
 10
290
 20
41
 11
281
 21
41
  0
LINE
  8
0
 10
271
 20
41
 11
271
 21
50
  0
LINE
  8
0
 10
271
 20
50
 11
280
 21
50
  0
LINE
  8
0
 10
280
 20
50
 11
280
 21
41
  0
LINE
  8
0
 10
280
 20
41
 11
271
 21
41
  0
LINE
  8
0
 10
51
 20
31
 11
51
 21
40
  0
LINE
  8
0
 10
51
 20
40
 11
60
 21
40
  0
LINE
  8
0
 10
60
 20
40
 11
60
 21
31
  0
LINE
  8
0
 10
60
 20
31
 11
51
 21
31
  0
LINE
  8
0
 10
111
 20
31
 11
111
 21
40
  0
LINE
  8
0
 10
111
 20
40
 11
120
 21
40
  0
LINE
  8
0
 10
120
 20
40
 11
120
 21
31
  0
LINE
  8
0
 10
120
 20
31
 11
111
 21
31
  0
LINE
  8
0
 10
91
 20
31
 11
91
 21
40
  0
LINE
  8
0
 10
91
 20
40
 11
100
 21
40
  0
LINE
  8
0
 10
100
 20
40
 11
100
 21
31
  0
LINE
  8
0
 10
100
 20
31
 11
91
 21
31
  0
LINE
  8
0
 10
21
 20
31
 11
21
 21
40
  0
LINE
  8
0
 10
21
 20
40
 11
30
 21
40
  0
LINE
  8
0
 10
30
 20
40
 11
30
 21
31
  0
LINE
  8
0
 10
30
 20
31
 11
21
 21
31
  0
LINE
  8
0
 10
101
 20
31
 11
101
 21
40
  0
LINE
  8
0
 10
101
 20
40
 11
110
 21
40
  0
LINE
  8
0
 10
110
 20
40
 11
110
 21
31
  0
LINE
  8
0
 10
110
 20
31
 11
101
 21
31
  0
LINE
  8
0
 10
41
 20
31
 11
41
 21
40
  0
LINE
  8
0
 10
41
 20
40
 11
50
 21
40
  0
LINE
  8
0
 10
50
 20
40
 11
50
 21
31
  0
LINE
  8
0
 10
50
 20
31
 11
41
 21
31
  0
LINE
  8
0
 10
121
 20
31
 11
121
 21
40
  0
LINE
  8
0
 10
121
 20
40
 11
130
 21
40
  0
LINE
  8
0
 10
130
 20
40
 11
130
 21
31
  0
LINE
  8
0
 10
130
 20
31
 11
121
 21
31
  0
LINE
  8
0
 10
131
 20
31
 11
131
 21
40
  0
LINE
  8
0
 10
131
 20
40
 11
140
 21
40
  0
LINE
  8
0
 10
140
 20
40
 11
140
 21
31
  0
LINE
  8
0
 10
140
 20
31
 11
131
 21
31
  0
LINE
  8
0
 10
181
 20
31
 11
181
 21
40
  0
LINE
  8
0
 10
181
 20
40
 11
190
 21
40
  0
LINE
  8
0
 10
190
 20
40
 11
190
 21
31
  0
LINE
  8
0
 10
190
 20
31
 11
181
 21
31
  0
LINE
  8
0
 10
161
 20
31
 11
161
 21
40
  0
LINE
  8
0
 10
161
 20
40
 11
170
 21
40
  0
LINE
  8
0
 10
170
 20
40
 11
170
 21
31
  0
LINE
  8
0
 10
170
 20
31
 11
161
 21
31
  0
LINE
  8
0
 10
71
 20
31
 11
71
 21
40
  0
LINE
  8
0
 10
71
 20
40
 11
80
 21
40
  0
LINE
  8
0
 10
80
 20
40
 11
80
 21
31
  0
LINE
  8
0
 10
80
 20
31
 11
71
 21
31
  0
LINE
  8
0
 10
231
 20
31
 11
231
 21
40
  0
LINE
  8
0
 10
231
 20
40
 11
240
 21
40
  0
LINE
  8
0
 10
240
 20
40
 11
240
 21
31
  0
LINE
  8
0
 10
240
 20
31
 11
231
 21
31
  0
LINE
  8
0
 10
11
 20
31
 11
11
 21
40
  0
LINE
  8
0
 10
11
 20
40
 11
20
 21
40
  0
LINE
  8
0
 10
20
 20
40
 11
20
 21
31
  0
LINE
  8
0
 10
20
 20
31
 11
11
 21
31
  0
LINE
  8
0
 10
211
 20
31
 11
211
 21
40
  0
LINE
  8
0
 10
211
 20
40
 11
220
 21
40
  0
LINE
  8
0
 10
220
 20
40
 11
220
 21
31
  0
LINE
  8
0
 10
220
 20
31
 11
211
 21
31
  0
LINE
  8
0
 10
151
 20
31
 11
151
 21
40
  0
LINE
  8
0
 10
151
 20
40
 11
160
 21
40
  0
LINE
  8
0
 10
160
 20
40
 11
160
 21
31
  0
LINE
  8
0
 10
160
 20
31
 11
151
 21
31
  0
LINE
  8
0
 10
201
 20
31
 11
201
 21
40
  0
LINE
  8
0
 10
201
 20
40
 11
210
 21
40
  0
LINE
  8
0
 10
210
 20
40
 11
210
 21
31
  0
LINE
  8
0
 10
210
 20
31
 11
201
 21
31
  0
LINE
  8
0
 10
221
 20
31
 11
221
 21
40
  0
LINE
  8
0
 10
221
 20
40
 11
230
 21
40
  0
LINE
  8
0
 10
230
 20
40
 11
230
 21
31
  0
LINE
  8
0
 10
230
 20
31
 11
221
 21
31
  0
LINE
  8
0
 10
191
 20
31
 11
191
 21
40
  0
LINE
  8
0
 10
191
 20
40
 11
200
 21
40
  0
LINE
  8
0
 10
200
 20
40
 11
200
 21
31
  0
LINE
  8
0
 10
200
 20
31
 11
191
 21
31
  0
LINE
  8
0
 10
171
 20
31
 11
171
 21
40
  0
LINE
  8
0
 10
171
 20
40
 11
180
 21
40
  0
LINE
  8
0
 10
180
 20
40
 11
180
 21
31
  0
LINE
  8
0
 10
180
 20
31
 11
171
 21
31
  0
LINE
  8
0
 10
31
 20
31
 11
31
 21
40
  0
LINE
  8
0
 10
31
 20
40
 11
40
 21
40
  0
LINE
  8
0
 10
40
 20
40
 11
40
 21
31
  0
LINE
  8
0
 10
40
 20
31
 11
31
 21
31
  0
LINE
  8
0
 10
81
 20
31
 11
81
 21
40
  0
LINE
  8
0
 10
81
 20
40
 11
90
 21
40
  0
LINE
  8
0
 10
90
 20
40
 11
90
 21
31
  0
LINE
  8
0
 10
90
 20
31
 11
81
 21
31
  0
LINE
  8
0
 10
301
 20
31
 11
301
 21
40
  0
LINE
  8
0
 10
301
 20
40
 11
310
 21
40
  0
LINE
  8
0
 10
310
 20
40
 11
310
 21
31
  0
LINE
  8
0
 10
310
 20
31
 11
301
 21
31
  0
LINE
  8
0
 10
261
 20
31
 11
261
 21
40
  0
LINE
  8
0
 10
261
 20
40
 11
270
 21
40
  0
LINE
  8
0
 10
270
 20
40
 11
270
 21
31
  0
LINE
  8
0
 10
270
 20
31
 11
261
 21
31
  0
LINE
  8
0
 10
321
 20
31
 11
321
 21
40
  0
LINE
  8
0
 10
321
 20
40
 11
330
 21
40
  0
LINE
  8
0
 10
330
 20
40
 11
330
 21
31
  0
LINE
  8
0
 10
330
 20
31
 11
321
 21
31
  0
LINE
  8
0
 10
241
 20
31
 11
241
 21
40
  0
LINE
  8
0
 10
241
 20
40
 11
250
 21
40
  0
LINE
  8
0
 10
250
 20
40
 11
250
 21
31
  0
LINE
  8
0
 10
250
 20
31
 11
241
 21
31
  0
LINE
  8
0
 10
251
 20
31
 11
251
 21
40
  0
LINE
  8
0
 10
251
 20
40
 11
260
 21
40
  0
LINE
  8
0
 10
260
 20
40
 11
260
 21
31
  0
LINE
  8
0
 10
260
 20
31
 11
251
 21
31
  0
LINE
  8
0
 10
61
 20
31
 11
61
 21
40
  0
LINE
  8
0
 10
61
 20
40
 11
70
 21
40
  0
LINE
  8
0
 10
70
 20
40
 11
70
 21
31
  0
LINE
  8
0
 10
70
 20
31
 11
61
 21
31
  0
LINE
  8
0
 10
141
 20
31
 11
141
 21
40
  0
LINE
  8
0
 10
141
 20
40
 11
150
 21
40
  0
LINE
  8
0
 10
150
 20
40
 11
150
 21
31
  0
LINE
  8
0
 10
150
 20
31
 11
141
 21
31
  0
LINE
  8
0
 10
281
 20
31
 11
281
 21
40
  0
LINE
  8
0
 10
281
 20
40
 11
290
 21
40
  0
LINE
  8
0
 10
290
 20
40
 11
290
 21
31
  0
LINE
  8
0
 10
290
 20
31
 11
281
 21
31
  0
LINE
  8
0
 10
271
 20
31
 11
271
 21
40
  0
LINE
  8
0
 10
271
 20
40
 11
280
 21
40
  0
LINE
  8
0
 10
280
 20
40
 11
280
 21
31
  0
LINE
  8
0
 10
280
 20
31
 11
271
 21
31
  0
LINE
  8
0
 10
311
 20
31
 11
311
 21
40
  0
LINE
  8
0
 10
311
 20
40
 11
320
 21
40
  0
LINE
  8
0
 10
320
 20
40
 11
320
 21
31
  0
LINE
  8
0
 10
320
 20
31
 11
311
 21
31
  0
LINE
  8
0
 10
291
 20
31
 11
291
 21
40
  0
LINE
  8
0
 10
291
 20
40
 11
300
 21
40
  0
LINE
  8
0
 10
300
 20
40
 11
300
 21
31
  0
LINE
  8
0
 10
300
 20
31
 11
291
 21
31
  0
LINE
  8
0
 10
111
 20
21
 11
111
 21
30
  0
LINE
  8
0
 10
111
 20
30
 11
120
 21
30
  0
LINE
  8
0
 10
120
 20
30
 11
120
 21
21
  0
LINE
  8
0
 10
120
 20
21
 11
111
 21
21
  0
LINE
  8
0
 10
231
 20
21
 11
231
 21
30
  0
LINE
  8
0
 10
231
 20
30
 11
240
 21
30
  0
LINE
  8
0
 10
240
 20
30
 11
240
 21
21
  0
LINE
  8
0
 10
240
 20
21
 11
231
 21
21
  0
LINE
  8
0
 10
191
 20
21
 11
191
 21
30
  0
LINE
  8
0
 10
191
 20
30
 11
200
 21
30
  0
LINE
  8
0
 10
200
 20
30
 11
200
 21
21
  0
LINE
  8
0
 10
200
 20
21
 11
191
 21
21
  0
LINE
  8
0
 10
311
 20
21
 11
311
 21
30
  0
LINE
  8
0
 10
311
 20
30
 11
320
 21
30
  0
LINE
  8
0
 10
320
 20
30
 11
320
 21
21
  0
LINE
  8
0
 10
320
 20
21
 11
311
 21
21
  0
LINE
  8
0
 10
261
 20
21
 11
261
 21
30
  0
LINE
  8
0
 10
261
 20
30
 11
270
 21
30
  0
LINE
  8
0
 10
270
 20
30
 11
270
 21
21
  0
LINE
  8
0
 10
270
 20
21
 11
261
 21
21
  0
LINE
  8
0
 10
21
 20
21
 11
21
 21
30
  0
LINE
  8
0
 10
21
 20
30
 11
30
 21
30
  0
LINE
  8
0
 10
30
 20
30
 11
30
 21
21
  0
LINE
  8
0
 10
30
 20
21
 11
21
 21
21
  0
LINE
  8
0
 10
221
 20
21
 11
221
 21
30
  0
LINE
  8
0
 10
221
 20
30
 11
230
 21
30
  0
LINE
  8
0
 10
230
 20
30
 11
230
 21
21
  0
LINE
  8
0
 10
230
 20
21
 11
221
 21
21
  0
LINE
  8
0
 10
201
 20
21
 11
201
 21
30
  0
LINE
  8
0
 10
201
 20
30
 11
210
 21
30
  0
LINE
  8
0
 10
210
 20
30
 11
210
 21
21
  0
LINE
  8
0
 10
210
 20
21
 11
201
 21
21
  0
LINE
  8
0
 10
241
 20
21
 11
241
 21
30
  0
LINE
  8
0
 10
241
 20
30
 11
250
 21
30
  0
LINE
  8
0
 10
250
 20
30
 11
250
 21
21
  0
LINE
  8
0
 10
250
 20
21
 11
241
 21
21
  0
LINE
  8
0
 10
211
 20
21
 11
211
 21
30
  0
LINE
  8
0
 10
211
 20
30
 11
220
 21
30
  0
LINE
  8
0
 10
220
 20
30
 11
220
 21
21
  0
LINE
  8
0
 10
220
 20
21
 11
211
 21
21
  0
LINE
  8
0
 10
81
 20
21
 11
81
 21
30
  0
LINE
  8
0
 10
81
 20
30
 11
90
 21
30
  0
LINE
  8
0
 10
90
 20
30
 11
90
 21
21
  0
LINE
  8
0
 10
90
 20
21
 11
81
 21
21
  0
LINE
  8
0
 10
131
 20
21
 11
131
 21
30
  0
LINE
  8
0
 10
131
 20
30
 11
140
 21
30
  0
LINE
  8
0
 10
140
 20
30
 11
140
 21
21
  0
LINE
  8
0
 10
140
 20
21
 11
131
 21
21
  0
LINE
  8
0
 10
71
 20
21
 11
71
 21
30
  0
LINE
  8
0
 10
71
 20
30
 11
80
 21
30
  0
LINE
  8
0
 10
80
 20
30
 11
80
 21
21
  0
LINE
  8
0
 10
80
 20
21
 11
71
 21
21
  0
LINE
  8
0
 10
121
 20
21
 11
121
 21
30
  0
LINE
  8
0
 10
121
 20
30
 11
130
 21
30
  0
LINE
  8
0
 10
130
 20
30
 11
130
 21
21
  0
LINE
  8
0
 10
130
 20
21
 11
121
 21
21
  0
LINE
  8
0
 10
31
 20
21
 11
31
 21
30
  0
LINE
  8
0
 10
31
 20
30
 11
40
 21
30
  0
LINE
  8
0
 10
40
 20
30
 11
40
 21
21
  0
LINE
  8
0
 10
40
 20
21
 11
31
 21
21
  0
LINE
  8
0
 10
161
 20
21
 11
161
 21
30
  0
LINE
  8
0
 10
161
 20
30
 11
170
 21
30
  0
LINE
  8
0
 10
170
 20
30
 11
170
 21
21
  0
LINE
  8
0
 10
170
 20
21
 11
161
 21
21
  0
LINE
  8
0
 10
41
 20
21
 11
41
 21
30
  0
LINE
  8
0
 10
41
 20
30
 11
50
 21
30
  0
LINE
  8
0
 10
50
 20
30
 11
50
 21
21
  0
LINE
  8
0
 10
50
 20
21
 11
41
 21
21
  0
LINE
  8
0
 10
51
 20
21
 11
51
 21
30
  0
LINE
  8
0
 10
51
 20
30
 11
60
 21
30
  0
LINE
  8
0
 10
60
 20
30
 11
60
 21
21
  0
LINE
  8
0
 10
60
 20
21
 11
51
 21
21
  0
LINE
  8
0
 10
321
 20
21
 11
321
 21
30
  0
LINE
  8
0
 10
321
 20
30
 11
330
 21
30
  0
LINE
  8
0
 10
330
 20
30
 11
330
 21
21
  0
LINE
  8
0
 10
330
 20
21
 11
321
 21
21
  0
LINE
  8
0
 10
91
 20
21
 11
91
 21
30
  0
LINE
  8
0
 10
91
 20
30
 11
100
 21
30
  0
LINE
  8
0
 10
100
 20
30
 11
100
 21
21
  0
LINE
  8
0
 10
100
 20
21
 11
91
 21
21
  0
LINE
  8
0
 10
271
 20
21
 11
271
 21
30
  0
LINE
  8
0
 10
271
 20
30
 11
280
 21
30
  0
LINE
  8
0
 10
280
 20
30
 11
280
 21
21
  0
LINE
  8
0
 10
280
 20
21
 11
271
 21
21
  0
LINE
  8
0
 10
291
 20
30
 11
300
 21
30
  0
LINE
  8
0
 10
300
 20
30
 11
300
 21
21
  0
LINE
  8
0
 10
300
 20
21
 11
291
 21
21
  0
LINE
  8
0
 10
291
 20
21
 11
291
 21
30
  0
LINE
  8
0
 10
171
 20
21
 11
171
 21
30
  0
LINE
  8
0
 10
171
 20
30
 11
180
 21
30
  0
LINE
  8
0
 10
180
 20
30
 11
180
 21
21
  0
LINE
  8
0
 10
180
 20
21
 11
171
 21
21
  0
LINE
  8
0
 10
141
 20
21
 11
141
 21
30
  0
LINE
  8
0
 10
141
 20
30
 11
150
 21
30
  0
LINE
  8
0
 10
150
 20
30
 11
150
 21
21
  0
LINE
  8
0
 10
150
 20
21
 11
141
 21
21
  0
LINE
  8
0
 10
251
 20
21
 11
251
 21
30
  0
LINE
  8
0
 10
251
 20
30
 11
260
 21
30
  0
LINE
  8
0
 10
260
 20
30
 11
260
 21
21
  0
LINE
  8
0
 10
260
 20
21
 11
251
 21
21
  0
LINE
  8
0
 10
61
 20
21
 11
61
 21
30
  0
LINE
  8
0
 10
61
 20
30
 11
70
 21
30
  0
LINE
  8
0
 10
70
 20
30
 11
70
 21
21
  0
LINE
  8
0
 10
70
 20
21
 11
61
 21
21
  0
LINE
  8
0
 10
151
 20
21
 11
151
 21
30
  0
LINE
  8
0
 10
151
 20
30
 11
160
 21
30
  0
LINE
  8
0
 10
160
 20
30
 11
160
 21
21
  0
LINE
  8
0
 10
160
 20
21
 11
151
 21
21
  0
LINE
  8
0
 10
11
 20
21
 11
11
 21
30
  0
LINE
  8
0
 10
11
 20
30
 11
20
 21
30
  0
LINE
  8
0
 10
20
 20
30
 11
20
 21
21
  0
LINE
  8
0
 10
20
 20
21
 11
11
 21
21
  0
LINE
  8
0
 10
181
 20
21
 11
181
 21
30
  0
LINE
  8
0
 10
181
 20
30
 11
190
 21
30
  0
LINE
  8
0
 10
190
 20
30
 11
190
 21
21
  0
LINE
  8
0
 10
190
 20
21
 11
181
 21
21
  0
LINE
  8
0
 10
290
 20
21
 11
281
 21
21
  0
LINE
  8
0
 10
281
 20
21
 11
281
 21
30
  0
LINE
  8
0
 10
281
 20
30
 11
290
 21
30
  0
LINE
  8
0
 10
290
 20
30
 11
290
 21
21
  0
LINE
  8
0
 10
110
 20
21
 11
101
 21
21
  0
LINE
  8
0
 10
101
 20
21
 11
101
 21
30
  0
LINE
  8
0
 10
101
 20
30
 11
110
 21
30
  0
LINE
  8
0
 10
110
 20
30
 11
110
 21
21
  0
LINE
  8
0
 10
31
 20
11
 11
31
 21
20
  0
LINE
  8
0
 10
31
 20
20
 11
40
 21
20
  0
LINE
  8
0
 10
40
 20
20
 11
40
 21
11
  0
LINE
  8
0
 10
40
 20
11
 11
31
 21
11
  0
LINE
  8
0
 10
261
 20
11
 11
261
 21
20
  0
LINE
  8
0
 10
261
 20
20
 11
270
 21
20
  0
LINE
  8
0
 10
270
 20
20
 11
270
 21
11
  0
LINE
  8
0
 10
270
 20
11
 11
261
 21
11
  0
LINE
  8
0
 10
251
 20
11
 11
251
 21
20
  0
LINE
  8
0
 10
251
 20
20
 11
260
 21
20
  0
LINE
  8
0
 10
260
 20
20
 11
260
 21
11
  0
LINE
  8
0
 10
260
 20
11
 11
251
 21
11
  0
LINE
  8
0
 10
131
 20
11
 11
131
 21
20
  0
LINE
  8
0
 10
131
 20
20
 11
140
 21
20
  0
LINE
  8
0
 10
140
 20
20
 11
140
 21
11
  0
LINE
  8
0
 10
140
 20
11
 11
131
 21
11
  0
LINE
  8
0
 10
121
 20
11
 11
121
 21
20
  0
LINE
  8
0
 10
121
 20
20
 11
130
 21
20
  0
LINE
  8
0
 10
130
 20
20
 11
130
 21
11
  0
LINE
  8
0
 10
130
 20
11
 11
121
 21
11
  0
LINE
  8
0
 10
111
 20
11
 11
111
 21
20
  0
LINE
  8
0
 10
111
 20
20
 11
120
 21
20
  0
LINE
  8
0
 10
120
 20
20
 11
120
 21
11
  0
LINE
  8
0
 10
120
 20
11
 11
111
 21
11
  0
LINE
  8
0
 10
101
 20
11
 11
101
 21
20
  0
LINE
  8
0
 10
101
 20
20
 11
110
 21
20
  0
LINE
  8
0
 10
110
 20
20
 11
110
 21
11
  0
LINE
  8
0
 10
110
 20
11
 11
101
 21
11
  0
LINE
  8
0
 10
141
 20
11
 11
141
 21
20
  0
LINE
  8
0
 10
141
 20
20
 11
150
 21
20
  0
LINE
  8
0
 10
150
 20
20
 11
150
 21
11
  0
LINE
  8
0
 10
150
 20
11
 11
141
 21
11
  0
LINE
  8
0
 10
91
 20
11
 11
91
 21
20
  0
LINE
  8
0
 10
91
 20
20
 11
100
 21
20
  0
LINE
  8
0
 10
100
 20
20
 11
100
 21
11
  0
LINE
  8
0
 10
100
 20
11
 11
91
 21
11
  0
LINE
  8
0
 10
151
 20
11
 11
151
 21
20
  0
LINE
  8
0
 10
151
 20
20
 11
160
 21
20
  0
LINE
  8
0
 10
160
 20
20
 11
160
 21
11
  0
LINE
  8
0
 10
160
 20
11
 11
151
 21
11
  0
LINE
  8
0
 10
21
 20
11
 11
21
 21
20
  0
LINE
  8
0
 10
21
 20
20
 11
30
 21
20
  0
LINE
  8
0
 10
30
 20
20
 11
30
 21
11
  0
LINE
  8
0
 10
30
 20
11
 11
21
 21
11
  0
LINE
  8
0
 10
161
 20
11
 11
161
 21
20
  0
LINE
  8
0
 10
161
 20
20
 11
170
 21
20
  0
LINE
  8
0
 10
170
 20
20
 11
170
 21
11
  0
LINE
  8
0
 10
170
 20
11
 11
161
 21
11
  0
LINE
  8
0
 10
51
 20
11
 11
51
 21
20
  0
LINE
  8
0
 10
51
 20
20
 11
60
 21
20
  0
LINE
  8
0
 10
60
 20
20
 11
60
 21
11
  0
LINE
  8
0
 10
60
 20
11
 11
51
 21
11
  0
LINE
  8
0
 10
321
 20
11
 11
321
 21
20
  0
LINE
  8
0
 10
321
 20
20
 11
330
 21
20
  0
LINE
  8
0
 10
330
 20
20
 11
330
 21
11
  0
LINE
  8
0
 10
330
 20
11
 11
321
 21
11
  0
LINE
  8
0
 10
41
 20
11
 11
41
 21
20
  0
LINE
  8
0
 10
41
 20
20
 11
50
 21
20
  0
LINE
  8
0
 10
50
 20
20
 11
50
 21
11
  0
LINE
  8
0
 10
50
 20
11
 11
41
 21
11
  0
LINE
  8
0
 10
61
 20
11
 11
61
 21
20
  0
LINE
  8
0
 10
61
 20
20
 11
70
 21
20
  0
LINE
  8
0
 10
70
 20
20
 11
70
 21
11
  0
LINE
  8
0
 10
70
 20
11
 11
61
 21
11
  0
LINE
  8
0
 10
281
 20
11
 11
281
 21
20
  0
LINE
  8
0
 10
281
 20
20
 11
290
 21
20
  0
LINE
  8
0
 10
290
 20
20
 11
290
 21
11
  0
LINE
  8
0
 10
290
 20
11
 11
281
 21
11
  0
LINE
  8
0
 10
71
 20
11
 11
71
 21
20
  0
LINE
  8
0
 10
71
 20
20
 11
80
 21
20
  0
LINE
  8
0
 10
80
 20
20
 11
80
 21
11
  0
LINE
  8
0
 10
80
 20
11
 11
71
 21
11
  0
LINE
  8
0
 10
231
 20
11
 11
231
 21
20
  0
LINE
  8
0
 10
231
 20
20
 11
240
 21
20
  0
LINE
  8
0
 10
240
 20
20
 11
240
 21
11
  0
LINE
  8
0
 10
240
 20
11
 11
231
 21
11
  0
LINE
  8
0
 10
221
 20
11
 11
221
 21
20
  0
LINE
  8
0
 10
221
 20
20
 11
230
 21
20
  0
LINE
  8
0
 10
230
 20
20
 11
230
 21
11
  0
LINE
  8
0
 10
230
 20
11
 11
221
 21
11
  0
LINE
  8
0
 10
11
 20
11
 11
11
 21
20
  0
LINE
  8
0
 10
11
 20
20
 11
20
 21
20
  0
LINE
  8
0
 10
20
 20
20
 11
20
 21
11
  0
LINE
  8
0
 10
20
 20
11
 11
11
 21
11
  0
LINE
  8
0
 10
211
 20
11
 11
211
 21
20
  0
LINE
  8
0
 10
211
 20
20
 11
220
 21
20
  0
LINE
  8
0
 10
220
 20
20
 11
220
 21
11
  0
LINE
  8
0
 10
220
 20
11
 11
211
 21
11
  0
LINE
  8
0
 10
201
 20
11
 11
201
 21
20
  0
LINE
  8
0
 10
201
 20
20
 11
210
 21
20
  0
LINE
  8
0
 10
210
 20
20
 11
210
 21
11
  0
LINE
  8
0
 10
210
 20
11
 11
201
 21
11
  0
LINE
  8
0
 10
241
 20
11
 11
241
 21
20
  0
LINE
  8
0
 10
241
 20
20
 11
250
 21
20
  0
LINE
  8
0
 10
250
 20
20
 11
250
 21
11
  0
LINE
  8
0
 10
250
 20
11
 11
241
 21
11
  0
LINE
  8
0
 10
191
 20
11
 11
191
 21
20
  0
LINE
  8
0
 10
191
 20
20
 11
200
 21
20
  0
LINE
  8
0
 10
200
 20
20
 11
200
 21
11
  0
LINE
  8
0
 10
200
 20
11
 11
191
 21
11
  0
LINE
  8
0
 10
181
 20
11
 11
181
 21
20
  0
LINE
  8
0
 10
181
 20
20
 11
190
 21
20
  0
LINE
  8
0
 10
190
 20
20
 11
190
 21
11
  0
LINE
  8
0
 10
190
 20
11
 11
181
 21
11
  0
LINE
  8
0
 10
171
 20
11
 11
171
 21
20
  0
LINE
  8
0
 10
171
 20
20
 11
180
 21
20
  0
LINE
  8
0
 10
180
 20
20
 11
180
 21
11
  0
LINE
  8
0
 10
180
 20
11
 11
171
 21
11
  0
LINE
  8
0
 10
311
 20
11
 11
311
 21
20
  0
LINE
  8
0
 10
311
 20
20
 11
320
 21
20
  0
LINE
  8
0
 10
320
 20
20
 11
320
 21
11
  0
LINE
  8
0
 10
320
 20
11
 11
311
 21
11
  0
LINE
  8
0
 10
301
 20
11
 11
301
 21
20
  0
LINE
  8
0
 10
301
 20
20
 11
310
 21
20
  0
LINE
  8
0
 10
310
 20
20
 11
310
 21
11
  0
LINE
  8
0
 10
310
 20
11
 11
301
 21
11
  0
LINE
  8
0
 10
291
 20
11
 11
291
 21
20
  0
LINE
  8
0
 10
291
 20
20
 11
300
 21
20
  0
LINE
  8
0
 10
300
 20
20
 11
300
 21
11
  0
LINE
  8
0
 10
300
 20
11
 11
291
 21
11
  0
LINE
  8
0
 10
271
 20
11
 11
271
 21
20
  0
LINE
  8
0
 10
271
 20
20
 11
280
 21
20
  0
LINE
  8
0
 10
280
 20
20
 11
280
 21
11
  0
LINE
  8
0
 10
280
 20
11
 11
271
 21
11
  0
LINE
  8
0
 10
81
 20
11
 11
81
 21
20
  0
LINE
  8
0
 10
81
 20
20
 11
90
 21
20
  0
LINE
  8
0
 10
90
 20
20
 11
90
 21
11
  0
LINE
  8
0
 10
90
 20
11
 11
81
 21
11
  0
LINE
  8
0
 10
334.791
 20
3.01096
 11
334.382
 21
3.09789
  0
LINE
  8
0
 10
334.382
 20
3.09789
 11
334
 21
3.26794
  0
LINE
  8
0
 10
334
 20
3.26794
 11
333.662
 21
3.5137
  0
LINE
  8
0
 10
333.662
 20
3.5137
 11
333.382
 21
3.82442
  0
LINE
  8
0
 10
333.382
 20
3.82442
 11
333.173
 21
4.18652
  0
LINE
  8
0
 10
333.173
 20
4.18652
 11
333.044
 21
4.58417
  0
LINE
  8
0
 10
333.044
 20
4.58417
 11
333
 21
5
  0
LINE
  8
0
 10
333
 20
5
 11
333.044
 21
5.41582
  0
LINE
  8
0
 10
333.044
 20
5.41582
 11
333.173
 21
5.81346
  0
LINE
  8
0
 10
333.173
 20
5.81346
 11
333.382
 21
6.17557
  0
LINE
  8
0
 10
333.382
 20
6.17557
 11
333.662
 21
6.48628
  0
LINE
  8
0
 10
333.662
 20
6.48628
 11
334
 21
6.73204
  0
LINE
  8
0
 10
334
 20
6.73204
 11
334.382
 21
6.9021
  0
LINE
  8
0
 10
334.382
 20
6.9021
 11
334.791
 21
6.98903
  0
LINE
  8
0
 10
334.791
 20
6.98903
 11
335.209
 21
6.98903
  0
LINE
  8
0
 10
335.209
 20
6.98903
 11
335.618
 21
6.9021
  0
LINE
  8
0
 10
335.618
 20
6.9021
 11
336
 21
6.73204
  0
LINE
  8
0
 10
336
 20
6.73204
 11
336.338
 21
6.48628
  0
LINE
  8
0
 10
336.338
 20
6.48628
 11
336.618
 21
6.17557
  0
LINE
  8
0
 10
336.618
 20
6.17557
 11
336.827
 21
5.81346
  0
LINE
  8
0
 10
336.827
 20
5.81346
 11
336.956
 21
5.41582
  0
LINE
  8
0
 10
336.956
 20
5.41582
 11
337
 21
5
  0
LINE
  8
0
 10
337
 20
5
 11
336.956
 21
4.58417
  0
LINE
  8
0
 10
336.956
 20
4.58417
 11
336.827
 21
4.18652
  0
LINE
  8
0
 10
336.827
 20
4.18652
 11
336.618
 21
3.82442
  0
LINE
  8
0
 10
336.618
 20
3.82442
 11
336.338
 21
3.5137
  0
LINE
  8
0
 10
336.338
 20
3.5137
 11
336
 21
3.26794
  0
LINE
  8
0
 10
336
 20
3.26794
 11
335.618
 21
3.09789
  0
LINE
  8
0
 10
335.618
 20
3.09789
 11
335.209
 21
3.01096
  0
LINE
  8
0
 10
335.209
 20
3.01096
 11
334.791
 21
3.01096
  0
LINE
  8
0
 10
4.79094
 20
3.01096
 11
4.38196
 21
3.09789
  0
LINE
  8
0
 10
4.38196
 20
3.09789
 11
4
 21
3.26794
  0
LINE
  8
0
 10
4
 20
3.26794
 11
3.66173
 21
3.5137
  0
LINE
  8
0
 10
3.66173
 20
3.5137
 11
3.38196
 21
3.82442
  0
LINE
  8
0
 10
3.38196
 20
3.82442
 11
3.1729
 21
4.18652
  0
LINE
  8
0
 10
3.1729
 20
4.18652
 11
3.0437
 21
4.58417
  0
LINE
  8
0
 10
3.0437
 20
4.58417
 11
3
 21
5
  0
LINE
  8
0
 10
3
 20
5
 11
3.0437
 21
5.41582
  0
LINE
  8
0
 10
3.0437
 20
5.41582
 11
3.1729
 21
5.81346
  0
LINE
  8
0
 10
3.1729
 20
5.81346
 11
3.38196
 21
6.17557
  0
LINE
  8
0
 10
3.38196
 20
6.17557
 11
3.66173
 21
6.48628
  0
LINE
  8
0
 10
3.66173
 20
6.48628
 11
4
 21
6.73204
  0
LINE
  8
0
 10
4
 20
6.73204
 11
4.38196
 21
6.9021
  0
LINE
  8
0
 10
4.38196
 20
6.9021
 11
4.79094
 21
6.98903
  0
LINE
  8
0
 10
4.79094
 20
6.98903
 11
5.20905
 21
6.98903
  0
LINE
  8
0
 10
5.20905
 20
6.98903
 11
5.61803
 21
6.9021
  0
LINE
  8
0
 10
5.61803
 20
6.9021
 11
6
 21
6.73204
  0
LINE
  8
0
 10
6
 20
6.73204
 11
6.33826
 21
6.48628
  0
LINE
  8
0
 10
6.33826
 20
6.48628
 11
6.61803
 21
6.17557
  0
LINE
  8
0
 10
6.61803
 20
6.17557
 11
6.82709
 21
5.81346
  0
LINE
  8
0
 10
6.82709
 20
5.81346
 11
6.95628
 21
5.41582
  0
LINE
  8
0
 10
6.95628
 20
5.41582
 11
7
 21
5
  0
LINE
  8
0
 10
7
 20
5
 11
6.95628
 21
4.58417
  0
LINE
  8
0
 10
6.95628
 20
4.58417
 11
6.82709
 21
4.18652
  0
LINE
  8
0
 10
6.82709
 20
4.18652
 11
6.61803
 21
3.82442
  0
LINE
  8
0
 10
6.61803
 20
3.82442
 11
6.33826
 21
3.5137
  0
LINE
  8
0
 10
6.33826
 20
3.5137
 11
6
 21
3.26794
  0
LINE
  8
0
 10
6
 20
3.26794
 11
5.61803
 21
3.09789
  0
LINE
  8
0
 10
5.61803
 20
3.09789
 11
5.20905
 21
3.01096
  0
LINE
  8
0
 10
5.20905
 20
3.01096
 11
4.79094
 21
3.01096
  0
LINE
  8
0
 10
169.791
 20
3.01096
 11
169.382
 21
3.09789
  0
LINE
  8
0
 10
169.382
 20
3.09789
 11
169
 21
3.26794
  0
LINE
  8
0
 10
169
 20
3.26794
 11
168.662
 21
3.5137
  0
LINE
  8
0
 10
168.662
 20
3.5137
 11
168.382
 21
3.82442
  0
LINE
  8
0
 10
168.382
 20
3.82442
 11
168.173
 21
4.18652
  0
LINE
  8
0
 10
168.173
 20
4.18652
 11
168.044
 21
4.58417
  0
LINE
  8
0
 10
168.044
 20
4.58417
 11
168
 21
5
  0
LINE
  8
0
 10
168
 20
5
 11
168.044
 21
5.41582
  0
LINE
  8
0
 10
168.044
 20
5.41582
 11
168.173
 21
5.81346
  0
LINE
  8
0
 10
168.173
 20
5.81346
 11
168.382
 21
6.17557
  0
LINE
  8
0
 10
168.382
 20
6.17557
 11
168.662
 21
6.48628
  0
LINE
  8
0
 10
168.662
 20
6.48628
 11
169
 21
6.73204
  0
LINE
  8
0
 10
169
 20
6.73204
 11
169.382
 21
6.9021
  0
LINE
  8
0
 10
169.382
 20
6.9021
 11
169.791
 21
6.98903
  0
LINE
  8
0
 10
169.791
 20
6.98903
 11
170.209
 21
6.98903
  0
LINE
  8
0
 10
170.209
 20
6.98903
 11
170.618
 21
6.9021
  0
LINE
  8
0
 10
170.618
 20
6.9021
 11
171
 21
6.73204
  0
LINE
  8
0
 10
171
 20
6.73204
 11
171.338
 21
6.48628
  0
LINE
  8
0
 10
171.338
 20
6.48628
 11
171.618
 21
6.17557
  0
LINE
  8
0
 10
171.618
 20
6.17557
 11
171.827
 21
5.81346
  0
LINE
  8
0
 10
171.827
 20
5.81346
 11
171.956
 21
5.41582
  0
LINE
  8
0
 10
171.956
 20
5.41582
 11
172
 21
5
  0
LINE
  8
0
 10
172
 20
5
 11
171.956
 21
4.58417
  0
LINE
  8
0
 10
171.956
 20
4.58417
 11
171.827
 21
4.18652
  0
LINE
  8
0
 10
171.827
 20
4.18652
 11
171.618
 21
3.82442
  0
LINE
  8
0
 10
171.618
 20
3.82442
 11
171.338
 21
3.5137
  0
LINE
  8
0
 10
171.338
 20
3.5137
 11
171
 21
3.26794
  0
LINE
  8
0
 10
171
 20
3.26794
 11
170.618
 21
3.09789
  0
LINE
  8
0
 10
170.618
 20
3.09789
 11
170.209
 21
3.01096
  0
LINE
  8
0
 10
170.209
 20
3.01096
 11
169.791
 21
3.01096
  0
LINE
  8
0
 10
230
 20
80
 11
230
 21
71
  0
LINE
  8
0
 10
230
 20
71
 11
221
 21
71
  0
LINE
  8
0
 10
221
 20
71
 11
221
 21
80
  0
LINE
  8
0
 10
221
 20
80
 11
230
 21
80
  0
LINE
  8
0
 10
290
 20
70
 11
290
 21
61
  0
LINE
  8
0
 10
290
 20
61
 11
281
 21
61
  0
LINE
  8
0
 10
281
 20
61
 11
281
 21
70
  0
LINE
  8
0
 10
281
 20
70
 11
290
 21
70
  0
LINE
  8
0
 10
150
 20
70
 11
150
 21
61
  0
LINE
  8
0
 10
150
 20
61
 11
141
 21
61
  0
LINE
  8
0
 10
141
 20
61
 11
141
 21
70
  0
LINE
  8
0
 10
141
 20
70
 11
150
 21
70
  0
LINE
  8
0
 10
240
 20
50
 11
240
 21
41
  0
LINE
  8
0
 10
240
 20
41
 11
231
 21
41
  0
LINE
  8
0
 10
231
 20
41
 11
231
 21
50
  0
LINE
  8
0
 10
231
 20
50
 11
240
 21
50
  0
LINE
  8
0
 10
90
 20
50
 11
90
 21
41
  0
LINE
  8
0
 10
90
 20
41
 11
81
 21
41
  0
LINE
  8
0
 10
81
 20
41
 11
81
 21
50
  0
LINE
  8
0
 10
81
 20
50
 11
90
 21
50
  0
LINE
  8
0
 10
310
 20
30
 11
310
 21
21
  0
LINE
  8
0
 10
310
 20
21
 11
301
 21
21
  0
LINE
  8
0
 10
301
 20
21
 11
301
 21
30
  0
LINE
  8
0
 10
301
 20
30
 11
310
 21
30
  0
ENDSEC
  0
SECTION
  2
OBJECTS
  0
DICTIONARY
  0
ENDSEC
  0
EOF
