  0
SECTION
  2
BLOCKS
  0
ENDSEC
  0
SECTION
  2
ENTITIES
  0
LINE
  8
0
 10
340
 20
250
 11
0
 21
250
  0
LINE
  8
0
 10
0
 20
250
 11
0
 21
150
  0
LINE
  8
0
 10
0
 20
150
 11
340
 21
150
  0
LINE
  8
0
 10
340
 20
150
 11
340
 21
250
  0
LINE
  8
0
 10
4.79094
 20
243.011
 11
4.38196
 21
243.098
  0
LINE
  8
0
 10
4.38196
 20
243.098
 11
4
 21
243.268
  0
LINE
  8
0
 10
4
 20
243.268
 11
3.66173
 21
243.514
  0
LINE
  8
0
 10
3.66173
 20
243.514
 11
3.38196
 21
243.824
  0
LINE
  8
0
 10
3.38196
 20
243.824
 11
3.1729
 21
244.187
  0
LINE
  8
0
 10
3.1729
 20
244.187
 11
3.0437
 21
244.584
  0
LINE
  8
0
 10
3.0437
 20
244.584
 11
3
 21
245
  0
LINE
  8
0
 10
3
 20
245
 11
3.0437
 21
245.416
  0
LINE
  8
0
 10
3.0437
 20
245.416
 11
3.1729
 21
245.813
  0
LINE
  8
0
 10
3.1729
 20
245.813
 11
3.38196
 21
246.176
  0
LINE
  8
0
 10
3.38196
 20
246.176
 11
3.66173
 21
246.486
  0
LINE
  8
0
 10
3.66173
 20
246.486
 11
4
 21
246.732
  0
LINE
  8
0
 10
4
 20
246.732
 11
4.38196
 21
246.902
  0
LINE
  8
0
 10
4.38196
 20
246.902
 11
4.79094
 21
246.989
  0
LINE
  8
0
 10
4.79094
 20
246.989
 11
5.20905
 21
246.989
  0
LINE
  8
0
 10
5.20905
 20
246.989
 11
5.61803
 21
246.902
  0
LINE
  8
0
 10
5.61803
 20
246.902
 11
6
 21
246.732
  0
LINE
  8
0
 10
6
 20
246.732
 11
6.33826
 21
246.486
  0
LINE
  8
0
 10
6.33826
 20
246.486
 11
6.61803
 21
246.176
  0
LINE
  8
0
 10
6.61803
 20
246.176
 11
6.82709
 21
245.813
  0
LINE
  8
0
 10
6.82709
 20
245.813
 11
6.95628
 21
245.416
  0
LINE
  8
0
 10
6.95628
 20
245.416
 11
7
 21
245
  0
LINE
  8
0
 10
7
 20
245
 11
6.95628
 21
244.584
  0
LINE
  8
0
 10
6.95628
 20
244.584
 11
6.82709
 21
244.187
  0
LINE
  8
0
 10
6.82709
 20
244.187
 11
6.61803
 21
243.824
  0
LINE
  8
0
 10
6.61803
 20
243.824
 11
6.33826
 21
243.514
  0
LINE
  8
0
 10
6.33826
 20
243.514
 11
6
 21
243.268
  0
LINE
  8
0
 10
6
 20
243.268
 11
5.61803
 21
243.098
  0
LINE
  8
0
 10
5.61803
 20
243.098
 11
5.20905
 21
243.011
  0
LINE
  8
0
 10
5.20905
 20
243.011
 11
4.79094
 21
243.011
  0
LINE
  8
0
 10
169.791
 20
243.011
 11
169.382
 21
243.098
  0
LINE
  8
0
 10
169.382
 20
243.098
 11
169
 21
243.268
  0
LINE
  8
0
 10
169
 20
243.268
 11
168.662
 21
243.514
  0
LINE
  8
0
 10
168.662
 20
243.514
 11
168.382
 21
243.824
  0
LINE
  8
0
 10
168.382
 20
243.824
 11
168.173
 21
244.187
  0
LINE
  8
0
 10
168.173
 20
244.187
 11
168.044
 21
244.584
  0
LINE
  8
0
 10
168.044
 20
244.584
 11
168
 21
245
  0
LINE
  8
0
 10
168
 20
245
 11
168.044
 21
245.416
  0
LINE
  8
0
 10
168.044
 20
245.416
 11
168.173
 21
245.813
  0
LINE
  8
0
 10
168.173
 20
245.813
 11
168.382
 21
246.176
  0
LINE
  8
0
 10
168.382
 20
246.176
 11
168.662
 21
246.486
  0
LINE
  8
0
 10
168.662
 20
246.486
 11
169
 21
246.732
  0
LINE
  8
0
 10
169
 20
246.732
 11
169.382
 21
246.902
  0
LINE
  8
0
 10
169.382
 20
246.902
 11
169.791
 21
246.989
  0
LINE
  8
0
 10
169.791
 20
246.989
 11
170.209
 21
246.989
  0
LINE
  8
0
 10
170.209
 20
246.989
 11
170.618
 21
246.902
  0
LINE
  8
0
 10
170.618
 20
246.902
 11
171
 21
246.732
  0
LINE
  8
0
 10
171
 20
246.732
 11
171.338
 21
246.486
  0
LINE
  8
0
 10
171.338
 20
246.486
 11
171.618
 21
246.176
  0
LINE
  8
0
 10
171.618
 20
246.176
 11
171.827
 21
245.813
  0
LINE
  8
0
 10
171.827
 20
245.813
 11
171.956
 21
245.416
  0
LINE
  8
0
 10
171.956
 20
245.416
 11
172
 21
245
  0
LINE
  8
0
 10
172
 20
245
 11
171.956
 21
244.584
  0
LINE
  8
0
 10
171.956
 20
244.584
 11
171.827
 21
244.187
  0
LINE
  8
0
 10
171.827
 20
244.187
 11
171.618
 21
243.824
  0
LINE
  8
0
 10
171.618
 20
243.824
 11
171.338
 21
243.514
  0
LINE
  8
0
 10
171.338
 20
243.514
 11
171
 21
243.268
  0
LINE
  8
0
 10
171
 20
243.268
 11
170.618
 21
243.098
  0
LINE
  8
0
 10
170.618
 20
243.098
 11
170.209
 21
243.011
  0
LINE
  8
0
 10
170.209
 20
243.011
 11
169.791
 21
243.011
  0
LINE
  8
0
 10
334.791
 20
243.011
 11
334.382
 21
243.098
  0
LINE
  8
0
 10
334.382
 20
243.098
 11
334
 21
243.268
  0
LINE
  8
0
 10
334
 20
243.268
 11
333.662
 21
243.514
  0
LINE
  8
0
 10
333.662
 20
243.514
 11
333.382
 21
243.824
  0
LINE
  8
0
 10
333.382
 20
243.824
 11
333.173
 21
244.187
  0
LINE
  8
0
 10
333.173
 20
244.187
 11
333.044
 21
244.584
  0
LINE
  8
0
 10
333.044
 20
244.584
 11
333
 21
245
  0
LINE
  8
0
 10
333
 20
245
 11
333.044
 21
245.416
  0
LINE
  8
0
 10
333.044
 20
245.416
 11
333.173
 21
245.813
  0
LINE
  8
0
 10
333.173
 20
245.813
 11
333.382
 21
246.176
  0
LINE
  8
0
 10
333.382
 20
246.176
 11
333.662
 21
246.486
  0
LINE
  8
0
 10
333.662
 20
246.486
 11
334
 21
246.732
  0
LINE
  8
0
 10
334
 20
246.732
 11
334.382
 21
246.902
  0
LINE
  8
0
 10
334.382
 20
246.902
 11
334.791
 21
246.989
  0
LINE
  8
0
 10
334.791
 20
246.989
 11
335.209
 21
246.989
  0
LINE
  8
0
 10
335.209
 20
246.989
 11
335.618
 21
246.902
  0
LINE
  8
0
 10
335.618
 20
246.902
 11
336
 21
246.732
  0
LINE
  8
0
 10
336
 20
246.732
 11
336.338
 21
246.486
  0
LINE
  8
0
 10
336.338
 20
246.486
 11
336.618
 21
246.176
  0
LINE
  8
0
 10
336.618
 20
246.176
 11
336.827
 21
245.813
  0
LINE
  8
0
 10
336.827
 20
245.813
 11
336.956
 21
245.416
  0
LINE
  8
0
 10
336.956
 20
245.416
 11
337
 21
245
  0
LINE
  8
0
 10
337
 20
245
 11
336.956
 21
244.584
  0
LINE
  8
0
 10
336.956
 20
244.584
 11
336.827
 21
244.187
  0
LINE
  8
0
 10
336.827
 20
244.187
 11
336.618
 21
243.824
  0
LINE
  8
0
 10
336.618
 20
243.824
 11
336.338
 21
243.514
  0
LINE
  8
0
 10
336.338
 20
243.514
 11
336
 21
243.268
  0
LINE
  8
0
 10
336
 20
243.268
 11
335.618
 21
243.098
  0
LINE
  8
0
 10
335.618
 20
243.098
 11
335.209
 21
243.011
  0
LINE
  8
0
 10
335.209
 20
243.011
 11
334.791
 21
243.011
  0
LINE
  8
0
 10
281
 20
231
 11
281
 21
240
  0
LINE
  8
0
 10
281
 20
240
 11
290
 21
240
  0
LINE
  8
0
 10
290
 20
240
 11
290
 21
231
  0
LINE
  8
0
 10
290
 20
231
 11
281
 21
231
  0
LINE
  8
0
 10
291
 20
231
 11
291
 21
240
  0
LINE
  8
0
 10
291
 20
240
 11
300
 21
240
  0
LINE
  8
0
 10
300
 20
240
 11
300
 21
231
  0
LINE
  8
0
 10
300
 20
231
 11
291
 21
231
  0
LINE
  8
0
 10
311
 20
231
 11
311
 21
240
  0
LINE
  8
0
 10
311
 20
240
 11
320
 21
240
  0
LINE
  8
0
 10
320
 20
240
 11
320
 21
231
  0
LINE
  8
0
 10
320
 20
231
 11
311
 21
231
  0
LINE
  8
0
 10
31
 20
231
 11
31
 21
240
  0
LINE
  8
0
 10
31
 20
240
 11
40
 21
240
  0
LINE
  8
0
 10
40
 20
240
 11
40
 21
231
  0
LINE
  8
0
 10
40
 20
231
 11
31
 21
231
  0
LINE
  8
0
 10
231
 20
231
 11
231
 21
240
  0
LINE
  8
0
 10
231
 20
240
 11
240
 21
240
  0
LINE
  8
0
 10
240
 20
240
 11
240
 21
231
  0
LINE
  8
0
 10
240
 20
231
 11
231
 21
231
  0
LINE
  8
0
 10
91
 20
231
 11
91
 21
240
  0
LINE
  8
0
 10
91
 20
240
 11
100
 21
240
  0
LINE
  8
0
 10
100
 20
240
 11
100
 21
231
  0
LINE
  8
0
 10
100
 20
231
 11
91
 21
231
  0
LINE
  8
0
 10
41
 20
231
 11
41
 21
240
  0
LINE
  8
0
 10
41
 20
240
 11
50
 21
240
  0
LINE
  8
0
 10
50
 20
240
 11
50
 21
231
  0
LINE
  8
0
 10
50
 20
231
 11
41
 21
231
  0
LINE
  8
0
 10
11
 20
231
 11
11
 21
240
  0
LINE
  8
0
 10
11
 20
240
 11
20
 21
240
  0
LINE
  8
0
 10
20
 20
240
 11
20
 21
231
  0
LINE
  8
0
 10
20
 20
231
 11
11
 21
231
  0
LINE
  8
0
 10
21
 20
231
 11
21
 21
240
  0
LINE
  8
0
 10
21
 20
240
 11
30
 21
240
  0
LINE
  8
0
 10
30
 20
240
 11
30
 21
231
  0
LINE
  8
0
 10
30
 20
231
 11
21
 21
231
  0
LINE
  8
0
 10
251
 20
231
 11
251
 21
240
  0
LINE
  8
0
 10
251
 20
240
 11
260
 21
240
  0
LINE
  8
0
 10
260
 20
240
 11
260
 21
231
  0
LINE
  8
0
 10
260
 20
231
 11
251
 21
231
  0
LINE
  8
0
 10
131
 20
231
 11
131
 21
240
  0
LINE
  8
0
 10
131
 20
240
 11
140
 21
240
  0
LINE
  8
0
 10
140
 20
240
 11
140
 21
231
  0
LINE
  8
0
 10
140
 20
231
 11
131
 21
231
  0
LINE
  8
0
 10
241
 20
231
 11
241
 21
240
  0
LINE
  8
0
 10
241
 20
240
 11
250
 21
240
  0
LINE
  8
0
 10
250
 20
240
 11
250
 21
231
  0
LINE
  8
0
 10
250
 20
231
 11
241
 21
231
  0
LINE
  8
0
 10
71
 20
231
 11
71
 21
240
  0
LINE
  8
0
 10
71
 20
240
 11
80
 21
240
  0
LINE
  8
0
 10
80
 20
240
 11
80
 21
231
  0
LINE
  8
0
 10
80
 20
231
 11
71
 21
231
  0
LINE
  8
0
 10
51
 20
231
 11
51
 21
240
  0
LINE
  8
0
 10
51
 20
240
 11
60
 21
240
  0
LINE
  8
0
 10
60
 20
240
 11
60
 21
231
  0
LINE
  8
0
 10
60
 20
231
 11
51
 21
231
  0
LINE
  8
0
 10
261
 20
231
 11
261
 21
240
  0
LINE
  8
0
 10
261
 20
240
 11
270
 21
240
  0
LINE
  8
0
 10
270
 20
240
 11
270
 21
231
  0
LINE
  8
0
 10
270
 20
231
 11
261
 21
231
  0
LINE
  8
0
 10
141
 20
231
 11
141
 21
240
  0
LINE
  8
0
 10
141
 20
240
 11
150
 21
240
  0
LINE
  8
0
 10
150
 20
240
 11
150
 21
231
  0
LINE
  8
0
 10
150
 20
231
 11
141
 21
231
  0
LINE
  8
0
 10
211
 20
231
 11
211
 21
240
  0
LINE
  8
0
 10
211
 20
240
 11
220
 21
240
  0
LINE
  8
0
 10
220
 20
240
 11
220
 21
231
  0
LINE
  8
0
 10
220
 20
231
 11
211
 21
231
  0
LINE
  8
0
 10
201
 20
231
 11
201
 21
240
  0
LINE
  8
0
 10
201
 20
240
 11
210
 21
240
  0
LINE
  8
0
 10
210
 20
240
 11
210
 21
231
  0
LINE
  8
0
 10
210
 20
231
 11
201
 21
231
  0
LINE
  8
0
 10
191
 20
231
 11
191
 21
240
  0
LINE
  8
0
 10
191
 20
240
 11
200
 21
240
  0
LINE
  8
0
 10
200
 20
240
 11
200
 21
231
  0
LINE
  8
0
 10
200
 20
231
 11
191
 21
231
  0
LINE
  8
0
 10
171
 20
231
 11
171
 21
240
  0
LINE
  8
0
 10
171
 20
240
 11
180
 21
240
  0
LINE
  8
0
 10
180
 20
240
 11
180
 21
231
  0
LINE
  8
0
 10
180
 20
231
 11
171
 21
231
  0
LINE
  8
0
 10
271
 20
231
 11
271
 21
240
  0
LINE
  8
0
 10
271
 20
240
 11
280
 21
240
  0
LINE
  8
0
 10
280
 20
240
 11
280
 21
231
  0
LINE
  8
0
 10
280
 20
231
 11
271
 21
231
  0
LINE
  8
0
 10
81
 20
231
 11
81
 21
240
  0
LINE
  8
0
 10
81
 20
240
 11
90
 21
240
  0
LINE
  8
0
 10
90
 20
240
 11
90
 21
231
  0
LINE
  8
0
 10
90
 20
231
 11
81
 21
231
  0
LINE
  8
0
 10
111
 20
231
 11
111
 21
240
  0
LINE
  8
0
 10
111
 20
240
 11
120
 21
240
  0
LINE
  8
0
 10
120
 20
240
 11
120
 21
231
  0
LINE
  8
0
 10
120
 20
231
 11
111
 21
231
  0
LINE
  8
0
 10
151
 20
231
 11
151
 21
240
  0
LINE
  8
0
 10
151
 20
240
 11
160
 21
240
  0
LINE
  8
0
 10
160
 20
240
 11
160
 21
231
  0
LINE
  8
0
 10
160
 20
231
 11
151
 21
231
  0
LINE
  8
0
 10
221
 20
231
 11
221
 21
240
  0
LINE
  8
0
 10
221
 20
240
 11
230
 21
240
  0
LINE
  8
0
 10
230
 20
240
 11
230
 21
231
  0
LINE
  8
0
 10
230
 20
231
 11
221
 21
231
  0
LINE
  8
0
 10
301
 20
231
 11
301
 21
240
  0
LINE
  8
0
 10
301
 20
240
 11
310
 21
240
  0
LINE
  8
0
 10
310
 20
240
 11
310
 21
231
  0
LINE
  8
0
 10
310
 20
231
 11
301
 21
231
  0
LINE
  8
0
 10
321
 20
231
 11
321
 21
240
  0
LINE
  8
0
 10
321
 20
240
 11
330
 21
240
  0
LINE
  8
0
 10
330
 20
240
 11
330
 21
231
  0
LINE
  8
0
 10
330
 20
231
 11
321
 21
231
  0
LINE
  8
0
 10
101
 20
231
 11
101
 21
240
  0
LINE
  8
0
 10
101
 20
240
 11
110
 21
240
  0
LINE
  8
0
 10
110
 20
240
 11
110
 21
231
  0
LINE
  8
0
 10
110
 20
231
 11
101
 21
231
  0
LINE
  8
0
 10
170
 20
231
 11
161
 21
231
  0
LINE
  8
0
 10
161
 20
231
 11
161
 21
240
  0
LINE
  8
0
 10
161
 20
240
 11
170
 21
240
  0
LINE
  8
0
 10
170
 20
240
 11
170
 21
231
  0
LINE
  8
0
 10
130
 20
231
 11
121
 21
231
  0
LINE
  8
0
 10
121
 20
231
 11
121
 21
240
  0
LINE
  8
0
 10
121
 20
240
 11
130
 21
240
  0
LINE
  8
0
 10
130
 20
240
 11
130
 21
231
  0
LINE
  8
0
 10
181
 20
231
 11
181
 21
240
  0
LINE
  8
0
 10
181
 20
240
 11
190
 21
240
  0
LINE
  8
0
 10
190
 20
240
 11
190
 21
231
  0
LINE
  8
0
 10
190
 20
231
 11
181
 21
231
  0
LINE
  8
0
 10
61
 20
231
 11
61
 21
240
  0
LINE
  8
0
 10
61
 20
240
 11
70
 21
240
  0
LINE
  8
0
 10
70
 20
240
 11
70
 21
231
  0
LINE
  8
0
 10
70
 20
231
 11
61
 21
231
  0
LINE
  8
0
 10
151
 20
221
 11
151
 21
230
  0
LINE
  8
0
 10
151
 20
230
 11
160
 21
230
  0
LINE
  8
0
 10
160
 20
230
 11
160
 21
221
  0
LINE
  8
0
 10
160
 20
221
 11
151
 21
221
  0
LINE
  8
0
 10
311
 20
221
 11
311
 21
230
  0
LINE
  8
0
 10
311
 20
230
 11
320
 21
230
  0
LINE
  8
0
 10
320
 20
230
 11
320
 21
221
  0
LINE
  8
0
 10
320
 20
221
 11
311
 21
221
  0
LINE
  8
0
 10
211
 20
230
 11
220
 21
230
  0
LINE
  8
0
 10
220
 20
230
 11
220
 21
221
  0
LINE
  8
0
 10
220
 20
221
 11
211
 21
221
  0
LINE
  8
0
 10
211
 20
221
 11
211
 21
230
  0
LINE
  8
0
 10
301
 20
221
 11
301
 21
230
  0
LINE
  8
0
 10
301
 20
230
 11
310
 21
230
  0
LINE
  8
0
 10
310
 20
230
 11
310
 21
221
  0
LINE
  8
0
 10
310
 20
221
 11
301
 21
221
  0
LINE
  8
0
 10
291
 20
221
 11
291
 21
230
  0
LINE
  8
0
 10
291
 20
230
 11
300
 21
230
  0
LINE
  8
0
 10
300
 20
230
 11
300
 21
221
  0
LINE
  8
0
 10
300
 20
221
 11
291
 21
221
  0
LINE
  8
0
 10
231
 20
221
 11
231
 21
230
  0
LINE
  8
0
 10
231
 20
230
 11
240
 21
230
  0
LINE
  8
0
 10
240
 20
230
 11
240
 21
221
  0
LINE
  8
0
 10
240
 20
221
 11
231
 21
221
  0
LINE
  8
0
 10
191
 20
221
 11
191
 21
230
  0
LINE
  8
0
 10
191
 20
230
 11
200
 21
230
  0
LINE
  8
0
 10
200
 20
230
 11
200
 21
221
  0
LINE
  8
0
 10
200
 20
221
 11
191
 21
221
  0
LINE
  8
0
 10
161
 20
221
 11
161
 21
230
  0
LINE
  8
0
 10
161
 20
230
 11
170
 21
230
  0
LINE
  8
0
 10
170
 20
230
 11
170
 21
221
  0
LINE
  8
0
 10
170
 20
221
 11
161
 21
221
  0
LINE
  8
0
 10
51
 20
221
 11
51
 21
230
  0
LINE
  8
0
 10
51
 20
230
 11
60
 21
230
  0
LINE
  8
0
 10
60
 20
230
 11
60
 21
221
  0
LINE
  8
0
 10
60
 20
221
 11
51
 21
221
  0
LINE
  8
0
 10
281
 20
221
 11
281
 21
230
  0
LINE
  8
0
 10
281
 20
230
 11
290
 21
230
  0
LINE
  8
0
 10
290
 20
230
 11
290
 21
221
  0
LINE
  8
0
 10
290
 20
221
 11
281
 21
221
  0
LINE
  8
0
 10
61
 20
221
 11
61
 21
230
  0
LINE
  8
0
 10
61
 20
230
 11
70
 21
230
  0
LINE
  8
0
 10
70
 20
230
 11
70
 21
221
  0
LINE
  8
0
 10
70
 20
221
 11
61
 21
221
  0
LINE
  8
0
 10
71
 20
221
 11
71
 21
230
  0
LINE
  8
0
 10
71
 20
230
 11
80
 21
230
  0
LINE
  8
0
 10
80
 20
230
 11
80
 21
221
  0
LINE
  8
0
 10
80
 20
221
 11
71
 21
221
  0
LINE
  8
0
 10
11
 20
221
 11
11
 21
230
  0
LINE
  8
0
 10
11
 20
230
 11
20
 21
230
  0
LINE
  8
0
 10
20
 20
230
 11
20
 21
221
  0
LINE
  8
0
 10
20
 20
221
 11
11
 21
221
  0
LINE
  8
0
 10
21
 20
221
 11
21
 21
230
  0
LINE
  8
0
 10
21
 20
230
 11
30
 21
230
  0
LINE
  8
0
 10
30
 20
230
 11
30
 21
221
  0
LINE
  8
0
 10
30
 20
221
 11
21
 21
221
  0
LINE
  8
0
 10
31
 20
221
 11
31
 21
230
  0
LINE
  8
0
 10
31
 20
230
 11
40
 21
230
  0
LINE
  8
0
 10
40
 20
230
 11
40
 21
221
  0
LINE
  8
0
 10
40
 20
221
 11
31
 21
221
  0
LINE
  8
0
 10
41
 20
221
 11
41
 21
230
  0
LINE
  8
0
 10
41
 20
230
 11
50
 21
230
  0
LINE
  8
0
 10
50
 20
230
 11
50
 21
221
  0
LINE
  8
0
 10
50
 20
221
 11
41
 21
221
  0
LINE
  8
0
 10
181
 20
221
 11
181
 21
230
  0
LINE
  8
0
 10
181
 20
230
 11
190
 21
230
  0
LINE
  8
0
 10
190
 20
230
 11
190
 21
221
  0
LINE
  8
0
 10
190
 20
221
 11
181
 21
221
  0
LINE
  8
0
 10
171
 20
221
 11
171
 21
230
  0
LINE
  8
0
 10
171
 20
230
 11
180
 21
230
  0
LINE
  8
0
 10
180
 20
230
 11
180
 21
221
  0
LINE
  8
0
 10
180
 20
221
 11
171
 21
221
  0
LINE
  8
0
 10
241
 20
221
 11
241
 21
230
  0
LINE
  8
0
 10
241
 20
230
 11
250
 21
230
  0
LINE
  8
0
 10
250
 20
230
 11
250
 21
221
  0
LINE
  8
0
 10
250
 20
221
 11
241
 21
221
  0
LINE
  8
0
 10
251
 20
221
 11
251
 21
230
  0
LINE
  8
0
 10
251
 20
230
 11
260
 21
230
  0
LINE
  8
0
 10
260
 20
230
 11
260
 21
221
  0
LINE
  8
0
 10
260
 20
221
 11
251
 21
221
  0
LINE
  8
0
 10
121
 20
221
 11
121
 21
230
  0
LINE
  8
0
 10
121
 20
230
 11
130
 21
230
  0
LINE
  8
0
 10
130
 20
230
 11
130
 21
221
  0
LINE
  8
0
 10
130
 20
221
 11
121
 21
221
  0
LINE
  8
0
 10
131
 20
221
 11
131
 21
230
  0
LINE
  8
0
 10
131
 20
230
 11
140
 21
230
  0
LINE
  8
0
 10
140
 20
230
 11
140
 21
221
  0
LINE
  8
0
 10
140
 20
221
 11
131
 21
221
  0
LINE
  8
0
 10
261
 20
221
 11
261
 21
230
  0
LINE
  8
0
 10
261
 20
230
 11
270
 21
230
  0
LINE
  8
0
 10
270
 20
230
 11
270
 21
221
  0
LINE
  8
0
 10
270
 20
221
 11
261
 21
221
  0
LINE
  8
0
 10
321
 20
221
 11
321
 21
230
  0
LINE
  8
0
 10
321
 20
230
 11
330
 21
230
  0
LINE
  8
0
 10
330
 20
230
 11
330
 21
221
  0
LINE
  8
0
 10
330
 20
221
 11
321
 21
221
  0
LINE
  8
0
 10
201
 20
221
 11
201
 21
230
  0
LINE
  8
0
 10
201
 20
230
 11
210
 21
230
  0
LINE
  8
0
 10
210
 20
230
 11
210
 21
221
  0
LINE
  8
0
 10
210
 20
221
 11
201
 21
221
  0
LINE
  8
0
 10
141
 20
221
 11
141
 21
230
  0
LINE
  8
0
 10
141
 20
230
 11
150
 21
230
  0
LINE
  8
0
 10
150
 20
230
 11
150
 21
221
  0
LINE
  8
0
 10
150
 20
221
 11
141
 21
221
  0
LINE
  8
0
 10
91
 20
221
 11
91
 21
230
  0
LINE
  8
0
 10
91
 20
230
 11
100
 21
230
  0
LINE
  8
0
 10
100
 20
230
 11
100
 21
221
  0
LINE
  8
0
 10
100
 20
221
 11
91
 21
221
  0
LINE
  8
0
 10
111
 20
221
 11
111
 21
230
  0
LINE
  8
0
 10
111
 20
230
 11
120
 21
230
  0
LINE
  8
0
 10
120
 20
230
 11
120
 21
221
  0
LINE
  8
0
 10
120
 20
221
 11
111
 21
221
  0
LINE
  8
0
 10
81
 20
221
 11
81
 21
230
  0
LINE
  8
0
 10
81
 20
230
 11
90
 21
230
  0
LINE
  8
0
 10
90
 20
230
 11
90
 21
221
  0
LINE
  8
0
 10
90
 20
221
 11
81
 21
221
  0
LINE
  8
0
 10
101
 20
221
 11
101
 21
230
  0
LINE
  8
0
 10
101
 20
230
 11
110
 21
230
  0
LINE
  8
0
 10
110
 20
230
 11
110
 21
221
  0
LINE
  8
0
 10
110
 20
221
 11
101
 21
221
  0
LINE
  8
0
 10
280
 20
221
 11
271
 21
221
  0
LINE
  8
0
 10
271
 20
221
 11
271
 21
230
  0
LINE
  8
0
 10
271
 20
230
 11
280
 21
230
  0
LINE
  8
0
 10
280
 20
230
 11
280
 21
221
  0
LINE
  8
0
 10
291
 20
211
 11
291
 21
220
  0
LINE
  8
0
 10
291
 20
220
 11
300
 21
220
  0
LINE
  8
0
 10
300
 20
220
 11
300
 21
211
  0
LINE
  8
0
 10
300
 20
211
 11
291
 21
211
  0
LINE
  8
0
 10
171
 20
211
 11
171
 21
220
  0
LINE
  8
0
 10
171
 20
220
 11
180
 21
220
  0
LINE
  8
0
 10
180
 20
220
 11
180
 21
211
  0
LINE
  8
0
 10
180
 20
211
 11
171
 21
211
  0
LINE
  8
0
 10
81
 20
211
 11
81
 21
220
  0
LINE
  8
0
 10
81
 20
220
 11
90
 21
220
  0
LINE
  8
0
 10
90
 20
220
 11
90
 21
211
  0
LINE
  8
0
 10
90
 20
211
 11
81
 21
211
  0
LINE
  8
0
 10
311
 20
211
 11
311
 21
220
  0
LINE
  8
0
 10
311
 20
220
 11
320
 21
220
  0
LINE
  8
0
 10
320
 20
220
 11
320
 21
211
  0
LINE
  8
0
 10
320
 20
211
 11
311
 21
211
  0
LINE
  8
0
 10
241
 20
211
 11
241
 21
220
  0
LINE
  8
0
 10
241
 20
220
 11
250
 21
220
  0
LINE
  8
0
 10
250
 20
220
 11
250
 21
211
  0
LINE
  8
0
 10
250
 20
211
 11
241
 21
211
  0
LINE
  8
0
 10
231
 20
211
 11
231
 21
220
  0
LINE
  8
0
 10
231
 20
220
 11
240
 21
220
  0
LINE
  8
0
 10
240
 20
220
 11
240
 21
211
  0
LINE
  8
0
 10
240
 20
211
 11
231
 21
211
  0
LINE
  8
0
 10
251
 20
211
 11
251
 21
220
  0
LINE
  8
0
 10
251
 20
220
 11
260
 21
220
  0
LINE
  8
0
 10
260
 20
220
 11
260
 21
211
  0
LINE
  8
0
 10
260
 20
211
 11
251
 21
211
  0
LINE
  8
0
 10
221
 20
211
 11
221
 21
220
  0
LINE
  8
0
 10
221
 20
220
 11
230
 21
220
  0
LINE
  8
0
 10
230
 20
220
 11
230
 21
211
  0
LINE
  8
0
 10
230
 20
211
 11
221
 21
211
  0
LINE
  8
0
 10
31
 20
211
 11
31
 21
220
  0
LINE
  8
0
 10
31
 20
220
 11
40
 21
220
  0
LINE
  8
0
 10
40
 20
220
 11
40
 21
211
  0
LINE
  8
0
 10
40
 20
211
 11
31
 21
211
  0
LINE
  8
0
 10
201
 20
211
 11
201
 21
220
  0
LINE
  8
0
 10
201
 20
220
 11
210
 21
220
  0
LINE
  8
0
 10
210
 20
220
 11
210
 21
211
  0
LINE
  8
0
 10
210
 20
211
 11
201
 21
211
  0
LINE
  8
0
 10
211
 20
211
 11
211
 21
220
  0
LINE
  8
0
 10
211
 20
220
 11
220
 21
220
  0
LINE
  8
0
 10
220
 20
220
 11
220
 21
211
  0
LINE
  8
0
 10
220
 20
211
 11
211
 21
211
  0
LINE
  8
0
 10
271
 20
220
 11
280
 21
220
  0
LINE
  8
0
 10
280
 20
220
 11
280
 21
211
  0
LINE
  8
0
 10
280
 20
211
 11
271
 21
211
  0
LINE
  8
0
 10
271
 20
211
 11
271
 21
220
  0
LINE
  8
0
 10
181
 20
211
 11
181
 21
220
  0
LINE
  8
0
 10
181
 20
220
 11
190
 21
220
  0
LINE
  8
0
 10
190
 20
220
 11
190
 21
211
  0
LINE
  8
0
 10
190
 20
211
 11
181
 21
211
  0
LINE
  8
0
 10
261
 20
211
 11
261
 21
220
  0
LINE
  8
0
 10
261
 20
220
 11
270
 21
220
  0
LINE
  8
0
 10
270
 20
220
 11
270
 21
211
  0
LINE
  8
0
 10
270
 20
211
 11
261
 21
211
  0
LINE
  8
0
 10
191
 20
211
 11
191
 21
220
  0
LINE
  8
0
 10
191
 20
220
 11
200
 21
220
  0
LINE
  8
0
 10
200
 20
220
 11
200
 21
211
  0
LINE
  8
0
 10
200
 20
211
 11
191
 21
211
  0
LINE
  8
0
 10
161
 20
211
 11
161
 21
220
  0
LINE
  8
0
 10
161
 20
220
 11
170
 21
220
  0
LINE
  8
0
 10
170
 20
220
 11
170
 21
211
  0
LINE
  8
0
 10
170
 20
211
 11
161
 21
211
  0
LINE
  8
0
 10
91
 20
211
 11
91
 21
220
  0
LINE
  8
0
 10
91
 20
220
 11
100
 21
220
  0
LINE
  8
0
 10
100
 20
220
 11
100
 21
211
  0
LINE
  8
0
 10
100
 20
211
 11
91
 21
211
  0
LINE
  8
0
 10
61
 20
211
 11
61
 21
220
  0
LINE
  8
0
 10
61
 20
220
 11
70
 21
220
  0
LINE
  8
0
 10
70
 20
220
 11
70
 21
211
  0
LINE
  8
0
 10
70
 20
211
 11
61
 21
211
  0
LINE
  8
0
 10
101
 20
211
 11
101
 21
220
  0
LINE
  8
0
 10
101
 20
220
 11
110
 21
220
  0
LINE
  8
0
 10
110
 20
220
 11
110
 21
211
  0
LINE
  8
0
 10
110
 20
211
 11
101
 21
211
  0
LINE
  8
0
 10
51
 20
211
 11
51
 21
220
  0
LINE
  8
0
 10
51
 20
220
 11
60
 21
220
  0
LINE
  8
0
 10
60
 20
220
 11
60
 21
211
  0
LINE
  8
0
 10
60
 20
211
 11
51
 21
211
  0
LINE
  8
0
 10
41
 20
211
 11
41
 21
220
  0
LINE
  8
0
 10
41
 20
220
 11
50
 21
220
  0
LINE
  8
0
 10
50
 20
220
 11
50
 21
211
  0
LINE
  8
0
 10
50
 20
211
 11
41
 21
211
  0
LINE
  8
0
 10
121
 20
211
 11
121
 21
220
  0
LINE
  8
0
 10
121
 20
220
 11
130
 21
220
  0
LINE
  8
0
 10
130
 20
220
 11
130
 21
211
  0
LINE
  8
0
 10
130
 20
211
 11
121
 21
211
  0
LINE
  8
0
 10
111
 20
211
 11
111
 21
220
  0
LINE
  8
0
 10
111
 20
220
 11
120
 21
220
  0
LINE
  8
0
 10
120
 20
220
 11
120
 21
211
  0
LINE
  8
0
 10
120
 20
211
 11
111
 21
211
  0
LINE
  8
0
 10
71
 20
211
 11
71
 21
220
  0
LINE
  8
0
 10
71
 20
220
 11
80
 21
220
  0
LINE
  8
0
 10
80
 20
220
 11
80
 21
211
  0
LINE
  8
0
 10
80
 20
211
 11
71
 21
211
  0
LINE
  8
0
 10
11
 20
211
 11
11
 21
220
  0
LINE
  8
0
 10
11
 20
220
 11
20
 21
220
  0
LINE
  8
0
 10
20
 20
220
 11
20
 21
211
  0
LINE
  8
0
 10
20
 20
211
 11
11
 21
211
  0
LINE
  8
0
 10
301
 20
211
 11
301
 21
220
  0
LINE
  8
0
 10
301
 20
220
 11
310
 21
220
  0
LINE
  8
0
 10
310
 20
220
 11
310
 21
211
  0
LINE
  8
0
 10
310
 20
211
 11
301
 21
211
  0
LINE
  8
0
 10
131
 20
220
 11
140
 21
220
  0
LINE
  8
0
 10
140
 20
220
 11
140
 21
211
  0
LINE
  8
0
 10
140
 20
211
 11
131
 21
211
  0
LINE
  8
0
 10
131
 20
211
 11
131
 21
220
  0
LINE
  8
0
 10
151
 20
211
 11
151
 21
220
  0
LINE
  8
0
 10
151
 20
220
 11
160
 21
220
  0
LINE
  8
0
 10
160
 20
220
 11
160
 21
211
  0
LINE
  8
0
 10
160
 20
211
 11
151
 21
211
  0
LINE
  8
0
 10
21
 20
211
 11
21
 21
220
  0
LINE
  8
0
 10
21
 20
220
 11
30
 21
220
  0
LINE
  8
0
 10
30
 20
220
 11
30
 21
211
  0
LINE
  8
0
 10
30
 20
211
 11
21
 21
211
  0
LINE
  8
0
 10
321
 20
211
 11
321
 21
220
  0
LINE
  8
0
 10
321
 20
220
 11
330
 21
220
  0
LINE
  8
0
 10
330
 20
220
 11
330
 21
211
  0
LINE
  8
0
 10
330
 20
211
 11
321
 21
211
  0
LINE
  8
0
 10
251
 20
201
 11
251
 21
210
  0
LINE
  8
0
 10
251
 20
210
 11
260
 21
210
  0
LINE
  8
0
 10
260
 20
210
 11
260
 21
201
  0
LINE
  8
0
 10
260
 20
201
 11
251
 21
201
  0
LINE
  8
0
 10
51
 20
201
 11
51
 21
210
  0
LINE
  8
0
 10
51
 20
210
 11
60
 21
210
  0
LINE
  8
0
 10
60
 20
210
 11
60
 21
201
  0
LINE
  8
0
 10
60
 20
201
 11
51
 21
201
  0
LINE
  8
0
 10
281
 20
201
 11
281
 21
210
  0
LINE
  8
0
 10
281
 20
210
 11
290
 21
210
  0
LINE
  8
0
 10
290
 20
210
 11
290
 21
201
  0
LINE
  8
0
 10
290
 20
201
 11
281
 21
201
  0
LINE
  8
0
 10
291
 20
201
 11
291
 21
210
  0
LINE
  8
0
 10
291
 20
210
 11
300
 21
210
  0
LINE
  8
0
 10
300
 20
210
 11
300
 21
201
  0
LINE
  8
0
 10
300
 20
201
 11
291
 21
201
  0
LINE
  8
0
 10
311
 20
201
 11
311
 21
210
  0
LINE
  8
0
 10
311
 20
210
 11
320
 21
210
  0
LINE
  8
0
 10
320
 20
210
 11
320
 21
201
  0
LINE
  8
0
 10
320
 20
201
 11
311
 21
201
  0
LINE
  8
0
 10
231
 20
201
 11
231
 21
210
  0
LINE
  8
0
 10
231
 20
210
 11
240
 21
210
  0
LINE
  8
0
 10
240
 20
210
 11
240
 21
201
  0
LINE
  8
0
 10
240
 20
201
 11
231
 21
201
  0
LINE
  8
0
 10
161
 20
201
 11
161
 21
210
  0
LINE
  8
0
 10
161
 20
210
 11
170
 21
210
  0
LINE
  8
0
 10
170
 20
210
 11
170
 21
201
  0
LINE
  8
0
 10
170
 20
201
 11
161
 21
201
  0
LINE
  8
0
 10
11
 20
201
 11
11
 21
210
  0
LINE
  8
0
 10
11
 20
210
 11
20
 21
210
  0
LINE
  8
0
 10
20
 20
210
 11
20
 21
201
  0
LINE
  8
0
 10
20
 20
201
 11
11
 21
201
  0
LINE
  8
0
 10
21
 20
201
 11
21
 21
210
  0
LINE
  8
0
 10
21
 20
210
 11
30
 21
210
  0
LINE
  8
0
 10
30
 20
210
 11
30
 21
201
  0
LINE
  8
0
 10
30
 20
201
 11
21
 21
201
  0
LINE
  8
0
 10
61
 20
201
 11
61
 21
210
  0
LINE
  8
0
 10
61
 20
210
 11
70
 21
210
  0
LINE
  8
0
 10
70
 20
210
 11
70
 21
201
  0
LINE
  8
0
 10
70
 20
201
 11
61
 21
201
  0
LINE
  8
0
 10
261
 20
201
 11
261
 21
210
  0
LINE
  8
0
 10
261
 20
210
 11
270
 21
210
  0
LINE
  8
0
 10
270
 20
210
 11
270
 21
201
  0
LINE
  8
0
 10
270
 20
201
 11
261
 21
201
  0
LINE
  8
0
 10
241
 20
201
 11
241
 21
210
  0
LINE
  8
0
 10
241
 20
210
 11
250
 21
210
  0
LINE
  8
0
 10
250
 20
210
 11
250
 21
201
  0
LINE
  8
0
 10
250
 20
201
 11
241
 21
201
  0
LINE
  8
0
 10
221
 20
201
 11
221
 21
210
  0
LINE
  8
0
 10
221
 20
210
 11
230
 21
210
  0
LINE
  8
0
 10
230
 20
210
 11
230
 21
201
  0
LINE
  8
0
 10
230
 20
201
 11
221
 21
201
  0
LINE
  8
0
 10
271
 20
201
 11
271
 21
210
  0
LINE
  8
0
 10
271
 20
210
 11
280
 21
210
  0
LINE
  8
0
 10
280
 20
210
 11
280
 21
201
  0
LINE
  8
0
 10
280
 20
201
 11
271
 21
201
  0
LINE
  8
0
 10
211
 20
201
 11
211
 21
210
  0
LINE
  8
0
 10
211
 20
210
 11
220
 21
210
  0
LINE
  8
0
 10
220
 20
210
 11
220
 21
201
  0
LINE
  8
0
 10
220
 20
201
 11
211
 21
201
  0
LINE
  8
0
 10
201
 20
201
 11
201
 21
210
  0
LINE
  8
0
 10
201
 20
210
 11
210
 21
210
  0
LINE
  8
0
 10
210
 20
210
 11
210
 21
201
  0
LINE
  8
0
 10
210
 20
201
 11
201
 21
201
  0
LINE
  8
0
 10
191
 20
201
 11
191
 21
210
  0
LINE
  8
0
 10
191
 20
210
 11
200
 21
210
  0
LINE
  8
0
 10
200
 20
210
 11
200
 21
201
  0
LINE
  8
0
 10
200
 20
201
 11
191
 21
201
  0
LINE
  8
0
 10
181
 20
201
 11
181
 21
210
  0
LINE
  8
0
 10
181
 20
210
 11
190
 21
210
  0
LINE
  8
0
 10
190
 20
210
 11
190
 21
201
  0
LINE
  8
0
 10
190
 20
201
 11
181
 21
201
  0
LINE
  8
0
 10
171
 20
201
 11
171
 21
210
  0
LINE
  8
0
 10
171
 20
210
 11
180
 21
210
  0
LINE
  8
0
 10
180
 20
210
 11
180
 21
201
  0
LINE
  8
0
 10
180
 20
201
 11
171
 21
201
  0
LINE
  8
0
 10
151
 20
201
 11
151
 21
210
  0
LINE
  8
0
 10
151
 20
210
 11
160
 21
210
  0
LINE
  8
0
 10
160
 20
210
 11
160
 21
201
  0
LINE
  8
0
 10
160
 20
201
 11
151
 21
201
  0
LINE
  8
0
 10
141
 20
201
 11
141
 21
210
  0
LINE
  8
0
 10
141
 20
210
 11
150
 21
210
  0
LINE
  8
0
 10
150
 20
210
 11
150
 21
201
  0
LINE
  8
0
 10
150
 20
201
 11
141
 21
201
  0
LINE
  8
0
 10
91
 20
201
 11
91
 21
210
  0
LINE
  8
0
 10
91
 20
210
 11
100
 21
210
  0
LINE
  8
0
 10
100
 20
210
 11
100
 21
201
  0
LINE
  8
0
 10
100
 20
201
 11
91
 21
201
  0
LINE
  8
0
 10
81
 20
201
 11
81
 21
210
  0
LINE
  8
0
 10
81
 20
210
 11
90
 21
210
  0
LINE
  8
0
 10
90
 20
210
 11
90
 21
201
  0
LINE
  8
0
 10
90
 20
201
 11
81
 21
201
  0
LINE
  8
0
 10
321
 20
201
 11
321
 21
210
  0
LINE
  8
0
 10
321
 20
210
 11
330
 21
210
  0
LINE
  8
0
 10
330
 20
210
 11
330
 21
201
  0
LINE
  8
0
 10
330
 20
201
 11
321
 21
201
  0
LINE
  8
0
 10
41
 20
201
 11
41
 21
210
  0
LINE
  8
0
 10
41
 20
210
 11
50
 21
210
  0
LINE
  8
0
 10
50
 20
210
 11
50
 21
201
  0
LINE
  8
0
 10
50
 20
201
 11
41
 21
201
  0
LINE
  8
0
 10
301
 20
201
 11
301
 21
210
  0
LINE
  8
0
 10
301
 20
210
 11
310
 21
210
  0
LINE
  8
0
 10
310
 20
210
 11
310
 21
201
  0
LINE
  8
0
 10
310
 20
201
 11
301
 21
201
  0
LINE
  8
0
 10
31
 20
201
 11
31
 21
210
  0
LINE
  8
0
 10
31
 20
210
 11
40
 21
210
  0
LINE
  8
0
 10
40
 20
210
 11
40
 21
201
  0
LINE
  8
0
 10
40
 20
201
 11
31
 21
201
  0
LINE
  8
0
 10
71
 20
201
 11
71
 21
210
  0
LINE
  8
0
 10
71
 20
210
 11
80
 21
210
  0
LINE
  8
0
 10
80
 20
210
 11
80
 21
201
  0
LINE
  8
0
 10
80
 20
201
 11
71
 21
201
  0
LINE
  8
0
 10
131
 20
201
 11
131
 21
210
  0
LINE
  8
0
 10
131
 20
210
 11
140
 21
210
  0
LINE
  8
0
 10
140
 20
210
 11
140
 21
201
  0
LINE
  8
0
 10
140
 20
201
 11
131
 21
201
  0
LINE
  8
0
 10
121
 20
201
 11
121
 21
210
  0
LINE
  8
0
 10
121
 20
210
 11
130
 21
210
  0
LINE
  8
0
 10
130
 20
210
 11
130
 21
201
  0
LINE
  8
0
 10
130
 20
201
 11
121
 21
201
  0
LINE
  8
0
 10
111
 20
201
 11
111
 21
210
  0
LINE
  8
0
 10
111
 20
210
 11
120
 21
210
  0
LINE
  8
0
 10
120
 20
210
 11
120
 21
201
  0
LINE
  8
0
 10
120
 20
201
 11
111
 21
201
  0
LINE
  8
0
 10
101
 20
201
 11
101
 21
210
  0
LINE
  8
0
 10
101
 20
210
 11
110
 21
210
  0
LINE
  8
0
 10
110
 20
210
 11
110
 21
201
  0
LINE
  8
0
 10
110
 20
201
 11
101
 21
201
  0
LINE
  8
0
 10
311
 20
191
 11
311
 21
200
  0
LINE
  8
0
 10
311
 20
200
 11
320
 21
200
  0
LINE
  8
0
 10
320
 20
200
 11
320
 21
191
  0
LINE
  8
0
 10
320
 20
191
 11
311
 21
191
  0
LINE
  8
0
 10
101
 20
191
 11
101
 21
200
  0
LINE
  8
0
 10
101
 20
200
 11
110
 21
200
  0
LINE
  8
0
 10
110
 20
200
 11
110
 21
191
  0
LINE
  8
0
 10
110
 20
191
 11
101
 21
191
  0
LINE
  8
0
 10
201
 20
191
 11
201
 21
200
  0
LINE
  8
0
 10
201
 20
200
 11
210
 21
200
  0
LINE
  8
0
 10
210
 20
200
 11
210
 21
191
  0
LINE
  8
0
 10
210
 20
191
 11
201
 21
191
  0
LINE
  8
0
 10
191
 20
191
 11
191
 21
200
  0
LINE
  8
0
 10
191
 20
200
 11
200
 21
200
  0
LINE
  8
0
 10
200
 20
200
 11
200
 21
191
  0
LINE
  8
0
 10
200
 20
191
 11
191
 21
191
  0
LINE
  8
0
 10
131
 20
191
 11
131
 21
200
  0
LINE
  8
0
 10
131
 20
200
 11
140
 21
200
  0
LINE
  8
0
 10
140
 20
200
 11
140
 21
191
  0
LINE
  8
0
 10
140
 20
191
 11
131
 21
191
  0
LINE
  8
0
 10
171
 20
191
 11
171
 21
200
  0
LINE
  8
0
 10
171
 20
200
 11
180
 21
200
  0
LINE
  8
0
 10
180
 20
200
 11
180
 21
191
  0
LINE
  8
0
 10
180
 20
191
 11
171
 21
191
  0
LINE
  8
0
 10
21
 20
191
 11
21
 21
200
  0
LINE
  8
0
 10
21
 20
200
 11
30
 21
200
  0
LINE
  8
0
 10
30
 20
200
 11
30
 21
191
  0
LINE
  8
0
 10
30
 20
191
 11
21
 21
191
  0
LINE
  8
0
 10
111
 20
191
 11
111
 21
200
  0
LINE
  8
0
 10
111
 20
200
 11
120
 21
200
  0
LINE
  8
0
 10
120
 20
200
 11
120
 21
191
  0
LINE
  8
0
 10
120
 20
191
 11
111
 21
191
  0
LINE
  8
0
 10
11
 20
191
 11
11
 21
200
  0
LINE
  8
0
 10
11
 20
200
 11
20
 21
200
  0
LINE
  8
0
 10
20
 20
200
 11
20
 21
191
  0
LINE
  8
0
 10
20
 20
191
 11
11
 21
191
  0
LINE
  8
0
 10
41
 20
191
 11
41
 21
200
  0
LINE
  8
0
 10
41
 20
200
 11
50
 21
200
  0
LINE
  8
0
 10
50
 20
200
 11
50
 21
191
  0
LINE
  8
0
 10
50
 20
191
 11
41
 21
191
  0
LINE
  8
0
 10
91
 20
191
 11
91
 21
200
  0
LINE
  8
0
 10
91
 20
200
 11
100
 21
200
  0
LINE
  8
0
 10
100
 20
200
 11
100
 21
191
  0
LINE
  8
0
 10
100
 20
191
 11
91
 21
191
  0
LINE
  8
0
 10
61
 20
191
 11
61
 21
200
  0
LINE
  8
0
 10
61
 20
200
 11
70
 21
200
  0
LINE
  8
0
 10
70
 20
200
 11
70
 21
191
  0
LINE
  8
0
 10
70
 20
191
 11
61
 21
191
  0
LINE
  8
0
 10
241
 20
191
 11
241
 21
200
  0
LINE
  8
0
 10
241
 20
200
 11
250
 21
200
  0
LINE
  8
0
 10
250
 20
200
 11
250
 21
191
  0
LINE
  8
0
 10
250
 20
191
 11
241
 21
191
  0
LINE
  8
0
 10
51
 20
191
 11
51
 21
200
  0
LINE
  8
0
 10
51
 20
200
 11
60
 21
200
  0
LINE
  8
0
 10
60
 20
200
 11
60
 21
191
  0
LINE
  8
0
 10
60
 20
191
 11
51
 21
191
  0
LINE
  8
0
 10
31
 20
191
 11
31
 21
200
  0
LINE
  8
0
 10
31
 20
200
 11
40
 21
200
  0
LINE
  8
0
 10
40
 20
200
 11
40
 21
191
  0
LINE
  8
0
 10
40
 20
191
 11
31
 21
191
  0
LINE
  8
0
 10
71
 20
200
 11
80
 21
200
  0
LINE
  8
0
 10
80
 20
200
 11
80
 21
191
  0
LINE
  8
0
 10
80
 20
191
 11
71
 21
191
  0
LINE
  8
0
 10
71
 20
191
 11
71
 21
200
  0
LINE
  8
0
 10
161
 20
191
 11
161
 21
200
  0
LINE
  8
0
 10
161
 20
200
 11
170
 21
200
  0
LINE
  8
0
 10
170
 20
200
 11
170
 21
191
  0
LINE
  8
0
 10
170
 20
191
 11
161
 21
191
  0
LINE
  8
0
 10
151
 20
191
 11
151
 21
200
  0
LINE
  8
0
 10
151
 20
200
 11
160
 21
200
  0
LINE
  8
0
 10
160
 20
200
 11
160
 21
191
  0
LINE
  8
0
 10
160
 20
191
 11
151
 21
191
  0
LINE
  8
0
 10
181
 20
191
 11
181
 21
200
  0
LINE
  8
0
 10
181
 20
200
 11
190
 21
200
  0
LINE
  8
0
 10
190
 20
200
 11
190
 21
191
  0
LINE
  8
0
 10
190
 20
191
 11
181
 21
191
  0
LINE
  8
0
 10
141
 20
191
 11
141
 21
200
  0
LINE
  8
0
 10
141
 20
200
 11
150
 21
200
  0
LINE
  8
0
 10
150
 20
200
 11
150
 21
191
  0
LINE
  8
0
 10
150
 20
191
 11
141
 21
191
  0
LINE
  8
0
 10
211
 20
191
 11
211
 21
200
  0
LINE
  8
0
 10
211
 20
200
 11
220
 21
200
  0
LINE
  8
0
 10
220
 20
200
 11
220
 21
191
  0
LINE
  8
0
 10
220
 20
191
 11
211
 21
191
  0
LINE
  8
0
 10
121
 20
191
 11
121
 21
200
  0
LINE
  8
0
 10
121
 20
200
 11
130
 21
200
  0
LINE
  8
0
 10
130
 20
200
 11
130
 21
191
  0
LINE
  8
0
 10
130
 20
191
 11
121
 21
191
  0
LINE
  8
0
 10
321
 20
191
 11
321
 21
200
  0
LINE
  8
0
 10
321
 20
200
 11
330
 21
200
  0
LINE
  8
0
 10
330
 20
200
 11
330
 21
191
  0
LINE
  8
0
 10
330
 20
191
 11
321
 21
191
  0
LINE
  8
0
 10
261
 20
191
 11
261
 21
200
  0
LINE
  8
0
 10
261
 20
200
 11
270
 21
200
  0
LINE
  8
0
 10
270
 20
200
 11
270
 21
191
  0
LINE
  8
0
 10
270
 20
191
 11
261
 21
191
  0
LINE
  8
0
 10
301
 20
191
 11
301
 21
200
  0
LINE
  8
0
 10
301
 20
200
 11
310
 21
200
  0
LINE
  8
0
 10
310
 20
200
 11
310
 21
191
  0
LINE
  8
0
 10
310
 20
191
 11
301
 21
191
  0
LINE
  8
0
 10
251
 20
191
 11
251
 21
200
  0
LINE
  8
0
 10
251
 20
200
 11
260
 21
200
  0
LINE
  8
0
 10
260
 20
200
 11
260
 21
191
  0
LINE
  8
0
 10
260
 20
191
 11
251
 21
191
  0
LINE
  8
0
 10
291
 20
191
 11
291
 21
200
  0
LINE
  8
0
 10
291
 20
200
 11
300
 21
200
  0
LINE
  8
0
 10
300
 20
200
 11
300
 21
191
  0
LINE
  8
0
 10
300
 20
191
 11
291
 21
191
  0
LINE
  8
0
 10
221
 20
200
 11
230
 21
200
  0
LINE
  8
0
 10
230
 20
200
 11
230
 21
191
  0
LINE
  8
0
 10
230
 20
191
 11
221
 21
191
  0
LINE
  8
0
 10
221
 20
191
 11
221
 21
200
  0
LINE
  8
0
 10
281
 20
191
 11
281
 21
200
  0
LINE
  8
0
 10
281
 20
200
 11
290
 21
200
  0
LINE
  8
0
 10
290
 20
200
 11
290
 21
191
  0
LINE
  8
0
 10
290
 20
191
 11
281
 21
191
  0
LINE
  8
0
 10
271
 20
191
 11
271
 21
200
  0
LINE
  8
0
 10
271
 20
200
 11
280
 21
200
  0
LINE
  8
0
 10
280
 20
200
 11
280
 21
191
  0
LINE
  8
0
 10
280
 20
191
 11
271
 21
191
  0
LINE
  8
0
 10
51
 20
181
 11
51
 21
190
  0
LINE
  8
0
 10
51
 20
190
 11
60
 21
190
  0
LINE
  8
0
 10
60
 20
190
 11
60
 21
181
  0
LINE
  8
0
 10
60
 20
181
 11
51
 21
181
  0
LINE
  8
0
 10
111
 20
181
 11
111
 21
190
  0
LINE
  8
0
 10
111
 20
190
 11
120
 21
190
  0
LINE
  8
0
 10
120
 20
190
 11
120
 21
181
  0
LINE
  8
0
 10
120
 20
181
 11
111
 21
181
  0
LINE
  8
0
 10
91
 20
181
 11
91
 21
190
  0
LINE
  8
0
 10
91
 20
190
 11
100
 21
190
  0
LINE
  8
0
 10
100
 20
190
 11
100
 21
181
  0
LINE
  8
0
 10
100
 20
181
 11
91
 21
181
  0
LINE
  8
0
 10
21
 20
181
 11
21
 21
190
  0
LINE
  8
0
 10
21
 20
190
 11
30
 21
190
  0
LINE
  8
0
 10
30
 20
190
 11
30
 21
181
  0
LINE
  8
0
 10
30
 20
181
 11
21
 21
181
  0
LINE
  8
0
 10
101
 20
181
 11
101
 21
190
  0
LINE
  8
0
 10
101
 20
190
 11
110
 21
190
  0
LINE
  8
0
 10
110
 20
190
 11
110
 21
181
  0
LINE
  8
0
 10
110
 20
181
 11
101
 21
181
  0
LINE
  8
0
 10
41
 20
181
 11
41
 21
190
  0
LINE
  8
0
 10
41
 20
190
 11
50
 21
190
  0
LINE
  8
0
 10
50
 20
190
 11
50
 21
181
  0
LINE
  8
0
 10
50
 20
181
 11
41
 21
181
  0
LINE
  8
0
 10
121
 20
181
 11
121
 21
190
  0
LINE
  8
0
 10
121
 20
190
 11
130
 21
190
  0
LINE
  8
0
 10
130
 20
190
 11
130
 21
181
  0
LINE
  8
0
 10
130
 20
181
 11
121
 21
181
  0
LINE
  8
0
 10
131
 20
181
 11
131
 21
190
  0
LINE
  8
0
 10
131
 20
190
 11
140
 21
190
  0
LINE
  8
0
 10
140
 20
190
 11
140
 21
181
  0
LINE
  8
0
 10
140
 20
181
 11
131
 21
181
  0
LINE
  8
0
 10
181
 20
181
 11
181
 21
190
  0
LINE
  8
0
 10
181
 20
190
 11
190
 21
190
  0
LINE
  8
0
 10
190
 20
190
 11
190
 21
181
  0
LINE
  8
0
 10
190
 20
181
 11
181
 21
181
  0
LINE
  8
0
 10
161
 20
181
 11
161
 21
190
  0
LINE
  8
0
 10
161
 20
190
 11
170
 21
190
  0
LINE
  8
0
 10
170
 20
190
 11
170
 21
181
  0
LINE
  8
0
 10
170
 20
181
 11
161
 21
181
  0
LINE
  8
0
 10
71
 20
181
 11
71
 21
190
  0
LINE
  8
0
 10
71
 20
190
 11
80
 21
190
  0
LINE
  8
0
 10
80
 20
190
 11
80
 21
181
  0
LINE
  8
0
 10
80
 20
181
 11
71
 21
181
  0
LINE
  8
0
 10
231
 20
181
 11
231
 21
190
  0
LINE
  8
0
 10
231
 20
190
 11
240
 21
190
  0
LINE
  8
0
 10
240
 20
190
 11
240
 21
181
  0
LINE
  8
0
 10
240
 20
181
 11
231
 21
181
  0
LINE
  8
0
 10
11
 20
181
 11
11
 21
190
  0
LINE
  8
0
 10
11
 20
190
 11
20
 21
190
  0
LINE
  8
0
 10
20
 20
190
 11
20
 21
181
  0
LINE
  8
0
 10
20
 20
181
 11
11
 21
181
  0
LINE
  8
0
 10
211
 20
181
 11
211
 21
190
  0
LINE
  8
0
 10
211
 20
190
 11
220
 21
190
  0
LINE
  8
0
 10
220
 20
190
 11
220
 21
181
  0
LINE
  8
0
 10
220
 20
181
 11
211
 21
181
  0
LINE
  8
0
 10
151
 20
181
 11
151
 21
190
  0
LINE
  8
0
 10
151
 20
190
 11
160
 21
190
  0
LINE
  8
0
 10
160
 20
190
 11
160
 21
181
  0
LINE
  8
0
 10
160
 20
181
 11
151
 21
181
  0
LINE
  8
0
 10
201
 20
181
 11
201
 21
190
  0
LINE
  8
0
 10
201
 20
190
 11
210
 21
190
  0
LINE
  8
0
 10
210
 20
190
 11
210
 21
181
  0
LINE
  8
0
 10
210
 20
181
 11
201
 21
181
  0
LINE
  8
0
 10
221
 20
181
 11
221
 21
190
  0
LINE
  8
0
 10
221
 20
190
 11
230
 21
190
  0
LINE
  8
0
 10
230
 20
190
 11
230
 21
181
  0
LINE
  8
0
 10
230
 20
181
 11
221
 21
181
  0
LINE
  8
0
 10
191
 20
181
 11
191
 21
190
  0
LINE
  8
0
 10
191
 20
190
 11
200
 21
190
  0
LINE
  8
0
 10
200
 20
190
 11
200
 21
181
  0
LINE
  8
0
 10
200
 20
181
 11
191
 21
181
  0
LINE
  8
0
 10
171
 20
181
 11
171
 21
190
  0
LINE
  8
0
 10
171
 20
190
 11
180
 21
190
  0
LINE
  8
0
 10
180
 20
190
 11
180
 21
181
  0
LINE
  8
0
 10
180
 20
181
 11
171
 21
181
  0
LINE
  8
0
 10
31
 20
181
 11
31
 21
190
  0
LINE
  8
0
 10
31
 20
190
 11
40
 21
190
  0
LINE
  8
0
 10
40
 20
190
 11
40
 21
181
  0
LINE
  8
0
 10
40
 20
181
 11
31
 21
181
  0
LINE
  8
0
 10
81
 20
181
 11
81
 21
190
  0
LINE
  8
0
 10
81
 20
190
 11
90
 21
190
  0
LINE
  8
0
 10
90
 20
190
 11
90
 21
181
  0
LINE
  8
0
 10
90
 20
181
 11
81
 21
181
  0
LINE
  8
0
 10
301
 20
181
 11
301
 21
190
  0
LINE
  8
0
 10
301
 20
190
 11
310
 21
190
  0
LINE
  8
0
 10
310
 20
190
 11
310
 21
181
  0
LINE
  8
0
 10
310
 20
181
 11
301
 21
181
  0
LINE
  8
0
 10
261
 20
181
 11
261
 21
190
  0
LINE
  8
0
 10
261
 20
190
 11
270
 21
190
  0
LINE
  8
0
 10
270
 20
190
 11
270
 21
181
  0
LINE
  8
0
 10
270
 20
181
 11
261
 21
181
  0
LINE
  8
0
 10
321
 20
181
 11
321
 21
190
  0
LINE
  8
0
 10
321
 20
190
 11
330
 21
190
  0
LINE
  8
0
 10
330
 20
190
 11
330
 21
181
  0
LINE
  8
0
 10
330
 20
181
 11
321
 21
181
  0
LINE
  8
0
 10
241
 20
181
 11
241
 21
190
  0
LINE
  8
0
 10
241
 20
190
 11
250
 21
190
  0
LINE
  8
0
 10
250
 20
190
 11
250
 21
181
  0
LINE
  8
0
 10
250
 20
181
 11
241
 21
181
  0
LINE
  8
0
 10
251
 20
181
 11
251
 21
190
  0
LINE
  8
0
 10
251
 20
190
 11
260
 21
190
  0
LINE
  8
0
 10
260
 20
190
 11
260
 21
181
  0
LINE
  8
0
 10
260
 20
181
 11
251
 21
181
  0
LINE
  8
0
 10
61
 20
181
 11
61
 21
190
  0
LINE
  8
0
 10
61
 20
190
 11
70
 21
190
  0
LINE
  8
0
 10
70
 20
190
 11
70
 21
181
  0
LINE
  8
0
 10
70
 20
181
 11
61
 21
181
  0
LINE
  8
0
 10
141
 20
181
 11
141
 21
190
  0
LINE
  8
0
 10
141
 20
190
 11
150
 21
190
  0
LINE
  8
0
 10
150
 20
190
 11
150
 21
181
  0
LINE
  8
0
 10
150
 20
181
 11
141
 21
181
  0
LINE
  8
0
 10
281
 20
181
 11
281
 21
190
  0
LINE
  8
0
 10
281
 20
190
 11
290
 21
190
  0
LINE
  8
0
 10
290
 20
190
 11
290
 21
181
  0
LINE
  8
0
 10
290
 20
181
 11
281
 21
181
  0
LINE
  8
0
 10
271
 20
181
 11
271
 21
190
  0
LINE
  8
0
 10
271
 20
190
 11
280
 21
190
  0
LINE
  8
0
 10
280
 20
190
 11
280
 21
181
  0
LINE
  8
0
 10
280
 20
181
 11
271
 21
181
  0
LINE
  8
0
 10
311
 20
181
 11
311
 21
190
  0
LINE
  8
0
 10
311
 20
190
 11
320
 21
190
  0
LINE
  8
0
 10
320
 20
190
 11
320
 21
181
  0
LINE
  8
0
 10
320
 20
181
 11
311
 21
181
  0
LINE
  8
0
 10
291
 20
181
 11
291
 21
190
  0
LINE
  8
0
 10
291
 20
190
 11
300
 21
190
  0
LINE
  8
0
 10
300
 20
190
 11
300
 21
181
  0
LINE
  8
0
 10
300
 20
181
 11
291
 21
181
  0
LINE
  8
0
 10
111
 20
171
 11
111
 21
180
  0
LINE
  8
0
 10
111
 20
180
 11
120
 21
180
  0
LINE
  8
0
 10
120
 20
180
 11
120
 21
171
  0
LINE
  8
0
 10
120
 20
171
 11
111
 21
171
  0
LINE
  8
0
 10
231
 20
171
 11
231
 21
180
  0
LINE
  8
0
 10
231
 20
180
 11
240
 21
180
  0
LINE
  8
0
 10
240
 20
180
 11
240
 21
171
  0
LINE
  8
0
 10
240
 20
171
 11
231
 21
171
  0
LINE
  8
0
 10
191
 20
171
 11
191
 21
180
  0
LINE
  8
0
 10
191
 20
180
 11
200
 21
180
  0
LINE
  8
0
 10
200
 20
180
 11
200
 21
171
  0
LINE
  8
0
 10
200
 20
171
 11
191
 21
171
  0
LINE
  8
0
 10
311
 20
171
 11
311
 21
180
  0
LINE
  8
0
 10
311
 20
180
 11
320
 21
180
  0
LINE
  8
0
 10
320
 20
180
 11
320
 21
171
  0
LINE
  8
0
 10
320
 20
171
 11
311
 21
171
  0
LINE
  8
0
 10
261
 20
171
 11
261
 21
180
  0
LINE
  8
0
 10
261
 20
180
 11
270
 21
180
  0
LINE
  8
0
 10
270
 20
180
 11
270
 21
171
  0
LINE
  8
0
 10
270
 20
171
 11
261
 21
171
  0
LINE
  8
0
 10
21
 20
171
 11
21
 21
180
  0
LINE
  8
0
 10
21
 20
180
 11
30
 21
180
  0
LINE
  8
0
 10
30
 20
180
 11
30
 21
171
  0
LINE
  8
0
 10
30
 20
171
 11
21
 21
171
  0
LINE
  8
0
 10
221
 20
171
 11
221
 21
180
  0
LINE
  8
0
 10
221
 20
180
 11
230
 21
180
  0
LINE
  8
0
 10
230
 20
180
 11
230
 21
171
  0
LINE
  8
0
 10
230
 20
171
 11
221
 21
171
  0
LINE
  8
0
 10
201
 20
171
 11
201
 21
180
  0
LINE
  8
0
 10
201
 20
180
 11
210
 21
180
  0
LINE
  8
0
 10
210
 20
180
 11
210
 21
171
  0
LINE
  8
0
 10
210
 20
171
 11
201
 21
171
  0
LINE
  8
0
 10
241
 20
171
 11
241
 21
180
  0
LINE
  8
0
 10
241
 20
180
 11
250
 21
180
  0
LINE
  8
0
 10
250
 20
180
 11
250
 21
171
  0
LINE
  8
0
 10
250
 20
171
 11
241
 21
171
  0
LINE
  8
0
 10
211
 20
171
 11
211
 21
180
  0
LINE
  8
0
 10
211
 20
180
 11
220
 21
180
  0
LINE
  8
0
 10
220
 20
180
 11
220
 21
171
  0
LINE
  8
0
 10
220
 20
171
 11
211
 21
171
  0
LINE
  8
0
 10
81
 20
171
 11
81
 21
180
  0
LINE
  8
0
 10
81
 20
180
 11
90
 21
180
  0
LINE
  8
0
 10
90
 20
180
 11
90
 21
171
  0
LINE
  8
0
 10
90
 20
171
 11
81
 21
171
  0
LINE
  8
0
 10
131
 20
171
 11
131
 21
180
  0
LINE
  8
0
 10
131
 20
180
 11
140
 21
180
  0
LINE
  8
0
 10
140
 20
180
 11
140
 21
171
  0
LINE
  8
0
 10
140
 20
171
 11
131
 21
171
  0
LINE
  8
0
 10
71
 20
171
 11
71
 21
180
  0
LINE
  8
0
 10
71
 20
180
 11
80
 21
180
  0
LINE
  8
0
 10
80
 20
180
 11
80
 21
171
  0
LINE
  8
0
 10
80
 20
171
 11
71
 21
171
  0
LINE
  8
0
 10
121
 20
171
 11
121
 21
180
  0
LINE
  8
0
 10
121
 20
180
 11
130
 21
180
  0
LINE
  8
0
 10
130
 20
180
 11
130
 21
171
  0
LINE
  8
0
 10
130
 20
171
 11
121
 21
171
  0
LINE
  8
0
 10
31
 20
171
 11
31
 21
180
  0
LINE
  8
0
 10
31
 20
180
 11
40
 21
180
  0
LINE
  8
0
 10
40
 20
180
 11
40
 21
171
  0
LINE
  8
0
 10
40
 20
171
 11
31
 21
171
  0
LINE
  8
0
 10
161
 20
171
 11
161
 21
180
  0
LINE
  8
0
 10
161
 20
180
 11
170
 21
180
  0
LINE
  8
0
 10
170
 20
180
 11
170
 21
171
  0
LINE
  8
0
 10
170
 20
171
 11
161
 21
171
  0
LINE
  8
0
 10
41
 20
171
 11
41
 21
180
  0
LINE
  8
0
 10
41
 20
180
 11
50
 21
180
  0
LINE
  8
0
 10
50
 20
180
 11
50
 21
171
  0
LINE
  8
0
 10
50
 20
171
 11
41
 21
171
  0
LINE
  8
0
 10
51
 20
171
 11
51
 21
180
  0
LINE
  8
0
 10
51
 20
180
 11
60
 21
180
  0
LINE
  8
0
 10
60
 20
180
 11
60
 21
171
  0
LINE
  8
0
 10
60
 20
171
 11
51
 21
171
  0
LINE
  8
0
 10
321
 20
171
 11
321
 21
180
  0
LINE
  8
0
 10
321
 20
180
 11
330
 21
180
  0
LINE
  8
0
 10
330
 20
180
 11
330
 21
171
  0
LINE
  8
0
 10
330
 20
171
 11
321
 21
171
  0
LINE
  8
0
 10
91
 20
171
 11
91
 21
180
  0
LINE
  8
0
 10
91
 20
180
 11
100
 21
180
  0
LINE
  8
0
 10
100
 20
180
 11
100
 21
171
  0
LINE
  8
0
 10
100
 20
171
 11
91
 21
171
  0
LINE
  8
0
 10
271
 20
171
 11
271
 21
180
  0
LINE
  8
0
 10
271
 20
180
 11
280
 21
180
  0
LINE
  8
0
 10
280
 20
180
 11
280
 21
171
  0
LINE
  8
0
 10
280
 20
171
 11
271
 21
171
  0
LINE
  8
0
 10
291
 20
180
 11
300
 21
180
  0
LINE
  8
0
 10
300
 20
180
 11
300
 21
171
  0
LINE
  8
0
 10
300
 20
171
 11
291
 21
171
  0
LINE
  8
0
 10
291
 20
171
 11
291
 21
180
  0
LINE
  8
0
 10
171
 20
171
 11
171
 21
180
  0
LINE
  8
0
 10
171
 20
180
 11
180
 21
180
  0
LINE
  8
0
 10
180
 20
180
 11
180
 21
171
  0
LINE
  8
0
 10
180
 20
171
 11
171
 21
171
  0
LINE
  8
0
 10
141
 20
171
 11
141
 21
180
  0
LINE
  8
0
 10
141
 20
180
 11
150
 21
180
  0
LINE
  8
0
 10
150
 20
180
 11
150
 21
171
  0
LINE
  8
0
 10
150
 20
171
 11
141
 21
171
  0
LINE
  8
0
 10
251
 20
171
 11
251
 21
180
  0
LINE
  8
0
 10
251
 20
180
 11
260
 21
180
  0
LINE
  8
0
 10
260
 20
180
 11
260
 21
171
  0
LINE
  8
0
 10
260
 20
171
 11
251
 21
171
  0
LINE
  8
0
 10
61
 20
171
 11
61
 21
180
  0
LINE
  8
0
 10
61
 20
180
 11
70
 21
180
  0
LINE
  8
0
 10
70
 20
180
 11
70
 21
171
  0
LINE
  8
0
 10
70
 20
171
 11
61
 21
171
  0
LINE
  8
0
 10
151
 20
171
 11
151
 21
180
  0
LINE
  8
0
 10
151
 20
180
 11
160
 21
180
  0
LINE
  8
0
 10
160
 20
180
 11
160
 21
171
  0
LINE
  8
0
 10
160
 20
171
 11
151
 21
171
  0
LINE
  8
0
 10
11
 20
171
 11
11
 21
180
  0
LINE
  8
0
 10
11
 20
180
 11
20
 21
180
  0
LINE
  8
0
 10
20
 20
180
 11
20
 21
171
  0
LINE
  8
0
 10
20
 20
171
 11
11
 21
171
  0
LINE
  8
0
 10
181
 20
171
 11
181
 21
180
  0
LINE
  8
0
 10
181
 20
180
 11
190
 21
180
  0
LINE
  8
0
 10
190
 20
180
 11
190
 21
171
  0
LINE
  8
0
 10
190
 20
171
 11
181
 21
171
  0
LINE
  8
0
 10
290
 20
171
 11
281
 21
171
  0
LINE
  8
0
 10
281
 20
171
 11
281
 21
180
  0
LINE
  8
0
 10
281
 20
180
 11
290
 21
180
  0
LINE
  8
0
 10
290
 20
180
 11
290
 21
171
  0
LINE
  8
0
 10
110
 20
171
 11
101
 21
171
  0
LINE
  8
0
 10
101
 20
171
 11
101
 21
180
  0
LINE
  8
0
 10
101
 20
180
 11
110
 21
180
  0
LINE
  8
0
 10
110
 20
180
 11
110
 21
171
  0
LINE
  8
0
 10
31
 20
161
 11
31
 21
170
  0
LINE
  8
0
 10
31
 20
170
 11
40
 21
170
  0
LINE
  8
0
 10
40
 20
170
 11
40
 21
161
  0
LINE
  8
0
 10
40
 20
161
 11
31
 21
161
  0
LINE
  8
0
 10
261
 20
161
 11
261
 21
170
  0
LINE
  8
0
 10
261
 20
170
 11
270
 21
170
  0
LINE
  8
0
 10
270
 20
170
 11
270
 21
161
  0
LINE
  8
0
 10
270
 20
161
 11
261
 21
161
  0
LINE
  8
0
 10
251
 20
161
 11
251
 21
170
  0
LINE
  8
0
 10
251
 20
170
 11
260
 21
170
  0
LINE
  8
0
 10
260
 20
170
 11
260
 21
161
  0
LINE
  8
0
 10
260
 20
161
 11
251
 21
161
  0
LINE
  8
0
 10
131
 20
161
 11
131
 21
170
  0
LINE
  8
0
 10
131
 20
170
 11
140
 21
170
  0
LINE
  8
0
 10
140
 20
170
 11
140
 21
161
  0
LINE
  8
0
 10
140
 20
161
 11
131
 21
161
  0
LINE
  8
0
 10
121
 20
161
 11
121
 21
170
  0
LINE
  8
0
 10
121
 20
170
 11
130
 21
170
  0
LINE
  8
0
 10
130
 20
170
 11
130
 21
161
  0
LINE
  8
0
 10
130
 20
161
 11
121
 21
161
  0
LINE
  8
0
 10
111
 20
161
 11
111
 21
170
  0
LINE
  8
0
 10
111
 20
170
 11
120
 21
170
  0
LINE
  8
0
 10
120
 20
170
 11
120
 21
161
  0
LINE
  8
0
 10
120
 20
161
 11
111
 21
161
  0
LINE
  8
0
 10
101
 20
161
 11
101
 21
170
  0
LINE
  8
0
 10
101
 20
170
 11
110
 21
170
  0
LINE
  8
0
 10
110
 20
170
 11
110
 21
161
  0
LINE
  8
0
 10
110
 20
161
 11
101
 21
161
  0
LINE
  8
0
 10
141
 20
161
 11
141
 21
170
  0
LINE
  8
0
 10
141
 20
170
 11
150
 21
170
  0
LINE
  8
0
 10
150
 20
170
 11
150
 21
161
  0
LINE
  8
0
 10
150
 20
161
 11
141
 21
161
  0
LINE
  8
0
 10
91
 20
161
 11
91
 21
170
  0
LINE
  8
0
 10
91
 20
170
 11
100
 21
170
  0
LINE
  8
0
 10
100
 20
170
 11
100
 21
161
  0
LINE
  8
0
 10
100
 20
161
 11
91
 21
161
  0
LINE
  8
0
 10
151
 20
161
 11
151
 21
170
  0
LINE
  8
0
 10
151
 20
170
 11
160
 21
170
  0
LINE
  8
0
 10
160
 20
170
 11
160
 21
161
  0
LINE
  8
0
 10
160
 20
161
 11
151
 21
161
  0
LINE
  8
0
 10
21
 20
161
 11
21
 21
170
  0
LINE
  8
0
 10
21
 20
170
 11
30
 21
170
  0
LINE
  8
0
 10
30
 20
170
 11
30
 21
161
  0
LINE
  8
0
 10
30
 20
161
 11
21
 21
161
  0
LINE
  8
0
 10
161
 20
161
 11
161
 21
170
  0
LINE
  8
0
 10
161
 20
170
 11
170
 21
170
  0
LINE
  8
0
 10
170
 20
170
 11
170
 21
161
  0
LINE
  8
0
 10
170
 20
161
 11
161
 21
161
  0
LINE
  8
0
 10
51
 20
161
 11
51
 21
170
  0
LINE
  8
0
 10
51
 20
170
 11
60
 21
170
  0
LINE
  8
0
 10
60
 20
170
 11
60
 21
161
  0
LINE
  8
0
 10
60
 20
161
 11
51
 21
161
  0
LINE
  8
0
 10
321
 20
161
 11
321
 21
170
  0
LINE
  8
0
 10
321
 20
170
 11
330
 21
170
  0
LINE
  8
0
 10
330
 20
170
 11
330
 21
161
  0
LINE
  8
0
 10
330
 20
161
 11
321
 21
161
  0
LINE
  8
0
 10
41
 20
161
 11
41
 21
170
  0
LINE
  8
0
 10
41
 20
170
 11
50
 21
170
  0
LINE
  8
0
 10
50
 20
170
 11
50
 21
161
  0
LINE
  8
0
 10
50
 20
161
 11
41
 21
161
  0
LINE
  8
0
 10
61
 20
161
 11
61
 21
170
  0
LINE
  8
0
 10
61
 20
170
 11
70
 21
170
  0
LINE
  8
0
 10
70
 20
170
 11
70
 21
161
  0
LINE
  8
0
 10
70
 20
161
 11
61
 21
161
  0
LINE
  8
0
 10
281
 20
161
 11
281
 21
170
  0
LINE
  8
0
 10
281
 20
170
 11
290
 21
170
  0
LINE
  8
0
 10
290
 20
170
 11
290
 21
161
  0
LINE
  8
0
 10
290
 20
161
 11
281
 21
161
  0
LINE
  8
0
 10
71
 20
161
 11
71
 21
170
  0
LINE
  8
0
 10
71
 20
170
 11
80
 21
170
  0
LINE
  8
0
 10
80
 20
170
 11
80
 21
161
  0
LINE
  8
0
 10
80
 20
161
 11
71
 21
161
  0
LINE
  8
0
 10
231
 20
161
 11
231
 21
170
  0
LINE
  8
0
 10
231
 20
170
 11
240
 21
170
  0
LINE
  8
0
 10
240
 20
170
 11
240
 21
161
  0
LINE
  8
0
 10
240
 20
161
 11
231
 21
161
  0
LINE
  8
0
 10
221
 20
161
 11
221
 21
170
  0
LINE
  8
0
 10
221
 20
170
 11
230
 21
170
  0
LINE
  8
0
 10
230
 20
170
 11
230
 21
161
  0
LINE
  8
0
 10
230
 20
161
 11
221
 21
161
  0
LINE
  8
0
 10
11
 20
161
 11
11
 21
170
  0
LINE
  8
0
 10
11
 20
170
 11
20
 21
170
  0
LINE
  8
0
 10
20
 20
170
 11
20
 21
161
  0
LINE
  8
0
 10
20
 20
161
 11
11
 21
161
  0
LINE
  8
0
 10
211
 20
161
 11
211
 21
170
  0
LINE
  8
0
 10
211
 20
170
 11
220
 21
170
  0
LINE
  8
0
 10
220
 20
170
 11
220
 21
161
  0
LINE
  8
0
 10
220
 20
161
 11
211
 21
161
  0
LINE
  8
0
 10
201
 20
161
 11
201
 21
170
  0
LINE
  8
0
 10
201
 20
170
 11
210
 21
170
  0
LINE
  8
0
 10
210
 20
170
 11
210
 21
161
  0
LINE
  8
0
 10
210
 20
161
 11
201
 21
161
  0
LINE
  8
0
 10
241
 20
161
 11
241
 21
170
  0
LINE
  8
0
 10
241
 20
170
 11
250
 21
170
  0
LINE
  8
0
 10
250
 20
170
 11
250
 21
161
  0
LINE
  8
0
 10
250
 20
161
 11
241
 21
161
  0
LINE
  8
0
 10
191
 20
161
 11
191
 21
170
  0
LINE
  8
0
 10
191
 20
170
 11
200
 21
170
  0
LINE
  8
0
 10
200
 20
170
 11
200
 21
161
  0
LINE
  8
0
 10
200
 20
161
 11
191
 21
161
  0
LINE
  8
0
 10
181
 20
161
 11
181
 21
170
  0
LINE
  8
0
 10
181
 20
170
 11
190
 21
170
  0
LINE
  8
0
 10
190
 20
170
 11
190
 21
161
  0
LINE
  8
0
 10
190
 20
161
 11
181
 21
161
  0
LINE
  8
0
 10
171
 20
161
 11
171
 21
170
  0
LINE
  8
0
 10
171
 20
170
 11
180
 21
170
  0
LINE
  8
0
 10
180
 20
170
 11
180
 21
161
  0
LINE
  8
0
 10
180
 20
161
 11
171
 21
161
  0
LINE
  8
0
 10
311
 20
161
 11
311
 21
170
  0
LINE
  8
0
 10
311
 20
170
 11
320
 21
170
  0
LINE
  8
0
 10
320
 20
170
 11
320
 21
161
  0
LINE
  8
0
 10
320
 20
161
 11
311
 21
161
  0
LINE
  8
0
 10
301
 20
161
 11
301
 21
170
  0
LINE
  8
0
 10
301
 20
170
 11
310
 21
170
  0
LINE
  8
0
 10
310
 20
170
 11
310
 21
161
  0
LINE
  8
0
 10
310
 20
161
 11
301
 21
161
  0
LINE
  8
0
 10
291
 20
161
 11
291
 21
170
  0
LINE
  8
0
 10
291
 20
170
 11
300
 21
170
  0
LINE
  8
0
 10
300
 20
170
 11
300
 21
161
  0
LINE
  8
0
 10
300
 20
161
 11
291
 21
161
  0
LINE
  8
0
 10
271
 20
161
 11
271
 21
170
  0
LINE
  8
0
 10
271
 20
170
 11
280
 21
170
  0
LINE
  8
0
 10
280
 20
170
 11
280
 21
161
  0
LINE
  8
0
 10
280
 20
161
 11
271
 21
161
  0
LINE
  8
0
 10
81
 20
161
 11
81
 21
170
  0
LINE
  8
0
 10
81
 20
170
 11
90
 21
170
  0
LINE
  8
0
 10
90
 20
170
 11
90
 21
161
  0
LINE
  8
0
 10
90
 20
161
 11
81
 21
161
  0
LINE
  8
0
 10
334.791
 20
153.011
 11
334.382
 21
153.098
  0
LINE
  8
0
 10
334.382
 20
153.098
 11
334
 21
153.268
  0
LINE
  8
0
 10
334
 20
153.268
 11
333.662
 21
153.514
  0
LINE
  8
0
 10
333.662
 20
153.514
 11
333.382
 21
153.824
  0
LINE
  8
0
 10
333.382
 20
153.824
 11
333.173
 21
154.187
  0
LINE
  8
0
 10
333.173
 20
154.187
 11
333.044
 21
154.584
  0
LINE
  8
0
 10
333.044
 20
154.584
 11
333
 21
155
  0
LINE
  8
0
 10
333
 20
155
 11
333.044
 21
155.416
  0
LINE
  8
0
 10
333.044
 20
155.416
 11
333.173
 21
155.813
  0
LINE
  8
0
 10
333.173
 20
155.813
 11
333.382
 21
156.176
  0
LINE
  8
0
 10
333.382
 20
156.176
 11
333.662
 21
156.486
  0
LINE
  8
0
 10
333.662
 20
156.486
 11
334
 21
156.732
  0
LINE
  8
0
 10
334
 20
156.732
 11
334.382
 21
156.902
  0
LINE
  8
0
 10
334.382
 20
156.902
 11
334.791
 21
156.989
  0
LINE
  8
0
 10
334.791
 20
156.989
 11
335.209
 21
156.989
  0
LINE
  8
0
 10
335.209
 20
156.989
 11
335.618
 21
156.902
  0
LINE
  8
0
 10
335.618
 20
156.902
 11
336
 21
156.732
  0
LINE
  8
0
 10
336
 20
156.732
 11
336.338
 21
156.486
  0
LINE
  8
0
 10
336.338
 20
156.486
 11
336.618
 21
156.176
  0
LINE
  8
0
 10
336.618
 20
156.176
 11
336.827
 21
155.813
  0
LINE
  8
0
 10
336.827
 20
155.813
 11
336.956
 21
155.416
  0
LINE
  8
0
 10
336.956
 20
155.416
 11
337
 21
155
  0
LINE
  8
0
 10
337
 20
155
 11
336.956
 21
154.584
  0
LINE
  8
0
 10
336.956
 20
154.584
 11
336.827
 21
154.187
  0
LINE
  8
0
 10
336.827
 20
154.187
 11
336.618
 21
153.824
  0
LINE
  8
0
 10
336.618
 20
153.824
 11
336.338
 21
153.514
  0
LINE
  8
0
 10
336.338
 20
153.514
 11
336
 21
153.268
  0
LINE
  8
0
 10
336
 20
153.268
 11
335.618
 21
153.098
  0
LINE
  8
0
 10
335.618
 20
153.098
 11
335.209
 21
153.011
  0
LINE
  8
0
 10
335.209
 20
153.011
 11
334.791
 21
153.011
  0
LINE
  8
0
 10
4.79094
 20
153.011
 11
4.38196
 21
153.098
  0
LINE
  8
0
 10
4.38196
 20
153.098
 11
4
 21
153.268
  0
LINE
  8
0
 10
4
 20
153.268
 11
3.66173
 21
153.514
  0
LINE
  8
0
 10
3.66173
 20
153.514
 11
3.38196
 21
153.824
  0
LINE
  8
0
 10
3.38196
 20
153.824
 11
3.1729
 21
154.187
  0
LINE
  8
0
 10
3.1729
 20
154.187
 11
3.0437
 21
154.584
  0
LINE
  8
0
 10
3.0437
 20
154.584
 11
3
 21
155
  0
LINE
  8
0
 10
3
 20
155
 11
3.0437
 21
155.416
  0
LINE
  8
0
 10
3.0437
 20
155.416
 11
3.1729
 21
155.813
  0
LINE
  8
0
 10
3.1729
 20
155.813
 11
3.38196
 21
156.176
  0
LINE
  8
0
 10
3.38196
 20
156.176
 11
3.66173
 21
156.486
  0
LINE
  8
0
 10
3.66173
 20
156.486
 11
4
 21
156.732
  0
LINE
  8
0
 10
4
 20
156.732
 11
4.38196
 21
156.902
  0
LINE
  8
0
 10
4.38196
 20
156.902
 11
4.79094
 21
156.989
  0
LINE
  8
0
 10
4.79094
 20
156.989
 11
5.20905
 21
156.989
  0
LINE
  8
0
 10
5.20905
 20
156.989
 11
5.61803
 21
156.902
  0
LINE
  8
0
 10
5.61803
 20
156.902
 11
6
 21
156.732
  0
LINE
  8
0
 10
6
 20
156.732
 11
6.33826
 21
156.486
  0
LINE
  8
0
 10
6.33826
 20
156.486
 11
6.61803
 21
156.176
  0
LINE
  8
0
 10
6.61803
 20
156.176
 11
6.82709
 21
155.813
  0
LINE
  8
0
 10
6.82709
 20
155.813
 11
6.95628
 21
155.416
  0
LINE
  8
0
 10
6.95628
 20
155.416
 11
7
 21
155
  0
LINE
  8
0
 10
7
 20
155
 11
6.95628
 21
154.584
  0
LINE
  8
0
 10
6.95628
 20
154.584
 11
6.82709
 21
154.187
  0
LINE
  8
0
 10
6.82709
 20
154.187
 11
6.61803
 21
153.824
  0
LINE
  8
0
 10
6.61803
 20
153.824
 11
6.33826
 21
153.514
  0
LINE
  8
0
 10
6.33826
 20
153.514
 11
6
 21
153.268
  0
LINE
  8
0
 10
6
 20
153.268
 11
5.61803
 21
153.098
  0
LINE
  8
0
 10
5.61803
 20
153.098
 11
5.20905
 21
153.011
  0
LINE
  8
0
 10
5.20905
 20
153.011
 11
4.79094
 21
153.011
  0
LINE
  8
0
 10
169.791
 20
153.011
 11
169.382
 21
153.098
  0
LINE
  8
0
 10
169.382
 20
153.098
 11
169
 21
153.268
  0
LINE
  8
0
 10
169
 20
153.268
 11
168.662
 21
153.514
  0
LINE
  8
0
 10
168.662
 20
153.514
 11
168.382
 21
153.824
  0
LINE
  8
0
 10
168.382
 20
153.824
 11
168.173
 21
154.187
  0
LINE
  8
0
 10
168.173
 20
154.187
 11
168.044
 21
154.584
  0
LINE
  8
0
 10
168.044
 20
154.584
 11
168
 21
155
  0
LINE
  8
0
 10
168
 20
155
 11
168.044
 21
155.416
  0
LINE
  8
0
 10
168.044
 20
155.416
 11
168.173
 21
155.813
  0
LINE
  8
0
 10
168.173
 20
155.813
 11
168.382
 21
156.176
  0
LINE
  8
0
 10
168.382
 20
156.176
 11
168.662
 21
156.486
  0
LINE
  8
0
 10
168.662
 20
156.486
 11
169
 21
156.732
  0
LINE
  8
0
 10
169
 20
156.732
 11
169.382
 21
156.902
  0
LINE
  8
0
 10
169.382
 20
156.902
 11
169.791
 21
156.989
  0
LINE
  8
0
 10
169.791
 20
156.989
 11
170.209
 21
156.989
  0
LINE
  8
0
 10
170.209
 20
156.989
 11
170.618
 21
156.902
  0
LINE
  8
0
 10
170.618
 20
156.902
 11
171
 21
156.732
  0
LINE
  8
0
 10
171
 20
156.732
 11
171.338
 21
156.486
  0
LINE
  8
0
 10
171.338
 20
156.486
 11
171.618
 21
156.176
  0
LINE
  8
0
 10
171.618
 20
156.176
 11
171.827
 21
155.813
  0
LINE
  8
0
 10
171.827
 20
155.813
 11
171.956
 21
155.416
  0
LINE
  8
0
 10
171.956
 20
155.416
 11
172
 21
155
  0
LINE
  8
0
 10
172
 20
155
 11
171.956
 21
154.584
  0
LINE
  8
0
 10
171.956
 20
154.584
 11
171.827
 21
154.187
  0
LINE
  8
0
 10
171.827
 20
154.187
 11
171.618
 21
153.824
  0
LINE
  8
0
 10
171.618
 20
153.824
 11
171.338
 21
153.514
  0
LINE
  8
0
 10
171.338
 20
153.514
 11
171
 21
153.268
  0
LINE
  8
0
 10
171
 20
153.268
 11
170.618
 21
153.098
  0
LINE
  8
0
 10
170.618
 20
153.098
 11
170.209
 21
153.011
  0
LINE
  8
0
 10
170.209
 20
153.011
 11
169.791
 21
153.011
  0
LINE
  8
0
 10
230
 20
230
 11
230
 21
221
  0
LINE
  8
0
 10
230
 20
221
 11
221
 21
221
  0
LINE
  8
0
 10
221
 20
221
 11
221
 21
230
  0
LINE
  8
0
 10
221
 20
230
 11
230
 21
230
  0
LINE
  8
0
 10
290
 20
220
 11
290
 21
211
  0
LINE
  8
0
 10
290
 20
211
 11
281
 21
211
  0
LINE
  8
0
 10
281
 20
211
 11
281
 21
220
  0
LINE
  8
0
 10
281
 20
220
 11
290
 21
220
  0
LINE
  8
0
 10
150
 20
220
 11
150
 21
211
  0
LINE
  8
0
 10
150
 20
211
 11
141
 21
211
  0
LINE
  8
0
 10
141
 20
211
 11
141
 21
220
  0
LINE
  8
0
 10
141
 20
220
 11
150
 21
220
  0
LINE
  8
0
 10
240
 20
200
 11
240
 21
191
  0
LINE
  8
0
 10
240
 20
191
 11
231
 21
191
  0
LINE
  8
0
 10
231
 20
191
 11
231
 21
200
  0
LINE
  8
0
 10
231
 20
200
 11
240
 21
200
  0
LINE
  8
0
 10
90
 20
200
 11
90
 21
191
  0
LINE
  8
0
 10
90
 20
191
 11
81
 21
191
  0
LINE
  8
0
 10
81
 20
191
 11
81
 21
200
  0
LINE
  8
0
 10
81
 20
200
 11
90
 21
200
  0
LINE
  8
0
 10
310
 20
180
 11
310
 21
171
  0
LINE
  8
0
 10
310
 20
171
 11
301
 21
171
  0
LINE
  8
0
 10
301
 20
171
 11
301
 21
180
  0
LINE
  8
0
 10
301
 20
180
 11
310
 21
180
  0
ENDSEC
  0
SECTION
  2
OBJECTS
  0
DICTIONARY
  0
ENDSEC
  0
EOF
