<?xml version="1.0" standalone="no"?>
<!DOCTYPE svg PUBLIC "-//W3C//DTD SVG 1.1//EN" "http://www.w3.org/Graphics/SVG/1.1/DTD/svg11.dtd">
<svg width="340mm" height="250mm" viewBox="0 -250 340 250" xmlns="http://www.w3.org/2000/svg" version="1.1">
<title>OpenSCAD Model</title>
<path d="
M 340,-250 L 0,-250 L 0,-150 L 340,-150 z
M 4.79094,-243.011 L 4.38196,-243.098 L 4,-243.268 L 3.66173,-243.514 L 3.38196,-243.824 L 3.1729,-244.187
 L 3.0437,-244.584 L 3,-245 L 3.0437,-245.416 L 3.1729,-245.813 L 3.38196,-246.176 L 3.66173,-246.486
 L 4,-246.732 L 4.38196,-246.902 L 4.79094,-246.989 L 5.20905,-246.989 L 5.61803,-246.902 L 6,-246.732
 L 6.33826,-246.486 L 6.61803,-246.176 L 6.82709,-245.813 L 6.95628,-245.416 L 7,-245 L 6.95628,-244.584
 L 6.82709,-244.187 L 6.61803,-243.824 L 6.33826,-243.514 L 6,-243.268 L 5.61803,-243.098 L 5.20905,-243.011
 z
M 169.791,-243.011 L 169.382,-243.098 L 169,-243.268 L 168.662,-243.514 L 168.382,-243.824 L 168.173,-244.187
 L 168.044,-244.584 L 168,-245 L 168.044,-245.416 L 168.173,-245.813 L 168.382,-246.176 L 168.662,-246.486
 L 169,-246.732 L 169.382,-246.902 L 169.791,-246.989 L 170.209,-246.989 L 170.618,-246.902 L 171,-246.732
 L 171.338,-246.486 L 171.618,-246.176 L 171.827,-245.813 L 171.956,-245.416 L 172,-245 L 171.956,-244.584
 L 171.827,-244.187 L 171.618,-243.824 L 171.338,-243.514 L 171,-243.268 L 170.618,-243.098 L 170.209,-243.011
 z
M 334.791,-243.011 L 334.382,-243.098 L 334,-243.268 L 333.662,-243.514 L 333.382,-243.824 L 333.173,-244.187
 L 333.044,-244.584 L 333,-245 L 333.044,-245.416 L 333.173,-245.813 L 333.382,-246.176 L 333.662,-246.486
 L 334,-246.732 L 334.382,-246.902 L 334.791,-246.989 L 335.209,-246.989 L 335.618,-246.902 L 336,-246.732
 L 336.338,-246.486 L 336.618,-246.176 L 336.827,-245.813 L 336.956,-245.416 L 337,-245 L 336.956,-244.584
 L 336.827,-244.187 L 336.618,-243.824 L 336.338,-243.514 L 336,-243.268 L 335.618,-243.098 L 335.209,-243.011
 z
M 211,-231 L 211,-240 L 220,-240 L 220,-231 z
M 111,-231 L 111,-240 L 120,-240 L 120,-231 z
M 201,-231 L 201,-240 L 210,-240 L 210,-231 z
M 191,-231 L 191,-240 L 200,-240 L 200,-231 z
M 171,-231 L 171,-240 L 180,-240 L 180,-231 z
M 271,-231 L 271,-240 L 280,-240 L 280,-231 z
M 81,-231 L 81,-240 L 90,-240 L 90,-231 z
M 151,-231 L 151,-240 L 160,-240 L 160,-231 z
M 221,-231 L 221,-240 L 230,-240 L 230,-231 z
M 301,-231 L 301,-240 L 310,-240 L 310,-231 z
M 321,-231 L 321,-240 L 330,-240 L 330,-231 z
M 101,-231 L 101,-240 L 110,-240 L 110,-231 z
M 161,-231 L 161,-240 L 170,-240 L 170,-231 z
M 121,-231 L 121,-240 L 130,-240 L 130,-231 z
M 181,-231 L 181,-240 L 190,-240 L 190,-231 z
M 61,-231 L 61,-240 L 70,-240 L 70,-231 z
M 261,-231 L 261,-240 L 270,-240 L 270,-231 z
M 281,-231 L 281,-240 L 290,-240 L 290,-231 z
M 291,-231 L 291,-240 L 300,-240 L 300,-231 z
M 311,-231 L 311,-240 L 320,-240 L 320,-231 z
M 31,-231 L 31,-240 L 40,-240 L 40,-231 z
M 231,-231 L 231,-240 L 240,-240 L 240,-231 z
M 91,-231 L 91,-240 L 100,-240 L 100,-231 z
M 41,-231 L 41,-240 L 50,-240 L 50,-231 z
M 11,-231 L 11,-240 L 20,-240 L 20,-231 z
M 251,-231 L 251,-240 L 260,-240 L 260,-231 z
M 21,-231 L 21,-240 L 30,-240 L 30,-231 z
M 131,-231 L 131,-240 L 140,-240 L 140,-231 z
M 241,-231 L 241,-240 L 250,-240 L 250,-231 z
M 71,-231 L 71,-240 L 80,-240 L 80,-231 z
M 51,-231 L 51,-240 L 60,-240 L 60,-231 z
M 141,-231 L 141,-240 L 150,-240 L 150,-231 z
M 171,-221 L 171,-230 L 180,-230 L 180,-221 z
M 241,-221 L 241,-230 L 250,-230 L 250,-221 z
M 251,-221 L 251,-230 L 260,-230 L 260,-221 z
M 121,-221 L 121,-230 L 130,-230 L 130,-221 z
M 131,-221 L 131,-230 L 140,-230 L 140,-221 z
M 261,-221 L 261,-230 L 270,-230 L 270,-221 z
M 321,-221 L 321,-230 L 330,-230 L 330,-221 z
M 201,-221 L 201,-230 L 210,-230 L 210,-221 z
M 141,-221 L 141,-230 L 150,-230 L 150,-221 z
M 91,-221 L 91,-230 L 100,-230 L 100,-221 z
M 111,-221 L 111,-230 L 120,-230 L 120,-221 z
M 81,-221 L 81,-230 L 90,-230 L 90,-221 z
M 101,-221 L 101,-230 L 110,-230 L 110,-221 z
M 271,-221 L 271,-230 L 280,-230 L 280,-221 z
M 221,-221 L 221,-230 L 230,-230 L 230,-221 z
M 191,-221 L 191,-230 L 200,-230 L 200,-221 z
M 41,-221 L 41,-230 L 50,-230 L 50,-221 z
M 151,-221 L 151,-230 L 160,-230 L 160,-221 z
M 311,-221 L 311,-230 L 320,-230 L 320,-221 z
M 211,-221 L 211,-230 L 220,-230 L 220,-221 z
M 301,-221 L 301,-230 L 310,-230 L 310,-221 z
M 291,-221 L 291,-230 L 300,-230 L 300,-221 z
M 231,-221 L 231,-230 L 240,-230 L 240,-221 z
M 181,-221 L 181,-230 L 190,-230 L 190,-221 z
M 161,-221 L 161,-230 L 170,-230 L 170,-221 z
M 51,-221 L 51,-230 L 60,-230 L 60,-221 z
M 281,-221 L 281,-230 L 290,-230 L 290,-221 z
M 61,-221 L 61,-230 L 70,-230 L 70,-221 z
M 71,-221 L 71,-230 L 80,-230 L 80,-221 z
M 11,-221 L 11,-230 L 20,-230 L 20,-221 z
M 21,-221 L 21,-230 L 30,-230 L 30,-221 z
M 31,-221 L 31,-230 L 40,-230 L 40,-221 z
M 101,-211 L 101,-220 L 110,-220 L 110,-211 z
M 51,-211 L 51,-220 L 60,-220 L 60,-211 z
M 61,-211 L 61,-220 L 70,-220 L 70,-211 z
M 41,-211 L 41,-220 L 50,-220 L 50,-211 z
M 121,-211 L 121,-220 L 130,-220 L 130,-211 z
M 111,-211 L 111,-220 L 120,-220 L 120,-211 z
M 71,-211 L 71,-220 L 80,-220 L 80,-211 z
M 11,-211 L 11,-220 L 20,-220 L 20,-211 z
M 301,-211 L 301,-220 L 310,-220 L 310,-211 z
M 131,-211 L 131,-220 L 140,-220 L 140,-211 z
M 151,-211 L 151,-220 L 160,-220 L 160,-211 z
M 21,-211 L 21,-220 L 30,-220 L 30,-211 z
M 321,-211 L 321,-220 L 330,-220 L 330,-211 z
M 141,-211 L 141,-220 L 150,-220 L 150,-211 z
M 281,-211 L 281,-220 L 290,-220 L 290,-211 z
M 251,-211 L 251,-220 L 260,-220 L 260,-211 z
M 311,-211 L 311,-220 L 320,-220 L 320,-211 z
M 91,-211 L 91,-220 L 100,-220 L 100,-211 z
M 81,-211 L 81,-220 L 90,-220 L 90,-211 z
M 171,-211 L 171,-220 L 180,-220 L 180,-211 z
M 241,-211 L 241,-220 L 250,-220 L 250,-211 z
M 231,-211 L 231,-220 L 240,-220 L 240,-211 z
M 291,-211 L 291,-220 L 300,-220 L 300,-211 z
M 221,-211 L 221,-220 L 230,-220 L 230,-211 z
M 201,-211 L 201,-220 L 210,-220 L 210,-211 z
M 161,-211 L 161,-220 L 170,-220 L 170,-211 z
M 191,-211 L 191,-220 L 200,-220 L 200,-211 z
M 261,-211 L 261,-220 L 270,-220 L 270,-211 z
M 271,-211 L 271,-220 L 280,-220 L 280,-211 z
M 31,-211 L 31,-220 L 40,-220 L 40,-211 z
M 211,-211 L 211,-220 L 220,-220 L 220,-211 z
M 181,-211 L 181,-220 L 190,-220 L 190,-211 z
M 171,-201 L 171,-210 L 180,-210 L 180,-201 z
M 101,-201 L 101,-210 L 110,-210 L 110,-201 z
M 111,-201 L 111,-210 L 120,-210 L 120,-201 z
M 121,-201 L 121,-210 L 130,-210 L 130,-201 z
M 131,-201 L 131,-210 L 140,-210 L 140,-201 z
M 71,-201 L 71,-210 L 80,-210 L 80,-201 z
M 31,-201 L 31,-210 L 40,-210 L 40,-201 z
M 301,-201 L 301,-210 L 310,-210 L 310,-201 z
M 41,-201 L 41,-210 L 50,-210 L 50,-201 z
M 321,-201 L 321,-210 L 330,-210 L 330,-201 z
M 81,-201 L 81,-210 L 90,-210 L 90,-201 z
M 91,-201 L 91,-210 L 100,-210 L 100,-201 z
M 141,-201 L 141,-210 L 150,-210 L 150,-201 z
M 151,-201 L 151,-210 L 160,-210 L 160,-201 z
M 191,-201 L 191,-210 L 200,-210 L 200,-201 z
M 251,-201 L 251,-210 L 260,-210 L 260,-201 z
M 51,-201 L 51,-210 L 60,-210 L 60,-201 z
M 181,-201 L 181,-210 L 190,-210 L 190,-201 z
M 281,-201 L 281,-210 L 290,-210 L 290,-201 z
M 291,-201 L 291,-210 L 300,-210 L 300,-201 z
M 311,-201 L 311,-210 L 320,-210 L 320,-201 z
M 231,-201 L 231,-210 L 240,-210 L 240,-201 z
M 161,-201 L 161,-210 L 170,-210 L 170,-201 z
M 11,-201 L 11,-210 L 20,-210 L 20,-201 z
M 21,-201 L 21,-210 L 30,-210 L 30,-201 z
M 61,-201 L 61,-210 L 70,-210 L 70,-201 z
M 261,-201 L 261,-210 L 270,-210 L 270,-201 z
M 241,-201 L 241,-210 L 250,-210 L 250,-201 z
M 221,-201 L 221,-210 L 230,-210 L 230,-201 z
M 271,-201 L 271,-210 L 280,-210 L 280,-201 z
M 211,-201 L 211,-210 L 220,-210 L 220,-201 z
M 201,-201 L 201,-210 L 210,-210 L 210,-201 z
M 141,-191 L 141,-200 L 150,-200 L 150,-191 z
M 181,-191 L 181,-200 L 190,-200 L 190,-191 z
M 211,-191 L 211,-200 L 220,-200 L 220,-191 z
M 121,-191 L 121,-200 L 130,-200 L 130,-191 z
M 321,-191 L 321,-200 L 330,-200 L 330,-191 z
M 261,-191 L 261,-200 L 270,-200 L 270,-191 z
M 301,-191 L 301,-200 L 310,-200 L 310,-191 z
M 251,-191 L 251,-200 L 260,-200 L 260,-191 z
M 291,-191 L 291,-200 L 300,-200 L 300,-191 z
M 221,-191 L 221,-200 L 230,-200 L 230,-191 z
M 281,-191 L 281,-200 L 290,-200 L 290,-191 z
M 271,-191 L 271,-200 L 280,-200 L 280,-191 z
M 131,-191 L 131,-200 L 140,-200 L 140,-191 z
M 231,-191 L 231,-200 L 240,-200 L 240,-191 z
M 81,-191 L 81,-200 L 90,-200 L 90,-191 z
M 161,-191 L 161,-200 L 170,-200 L 170,-191 z
M 311,-191 L 311,-200 L 320,-200 L 320,-191 z
M 101,-191 L 101,-200 L 110,-200 L 110,-191 z
M 201,-191 L 201,-200 L 210,-200 L 210,-191 z
M 191,-191 L 191,-200 L 200,-200 L 200,-191 z
M 171,-191 L 171,-200 L 180,-200 L 180,-191 z
M 151,-191 L 151,-200 L 160,-200 L 160,-191 z
M 21,-191 L 21,-200 L 30,-200 L 30,-191 z
M 111,-191 L 111,-200 L 120,-200 L 120,-191 z
M 41,-191 L 41,-200 L 50,-200 L 50,-191 z
M 91,-191 L 91,-200 L 100,-200 L 100,-191 z
M 61,-191 L 61,-200 L 70,-200 L 70,-191 z
M 241,-191 L 241,-200 L 250,-200 L 250,-191 z
M 51,-191 L 51,-200 L 60,-200 L 60,-191 z
M 31,-191 L 31,-200 L 40,-200 L 40,-191 z
M 71,-191 L 71,-200 L 80,-200 L 80,-191 z
M 11,-191 L 11,-200 L 20,-200 L 20,-191 z
M 81,-181 L 81,-190 L 90,-190 L 90,-181 z
M 301,-181 L 301,-190 L 310,-190 L 310,-181 z
M 261,-181 L 261,-190 L 270,-190 L 270,-181 z
M 321,-181 L 321,-190 L 330,-190 L 330,-181 z
M 241,-181 L 241,-190 L 250,-190 L 250,-181 z
M 251,-181 L 251,-190 L 260,-190 L 260,-181 z
M 61,-181 L 61,-190 L 70,-190 L 70,-181 z
M 141,-181 L 141,-190 L 150,-190 L 150,-181 z
M 281,-181 L 281,-190 L 290,-190 L 290,-181 z
M 271,-181 L 271,-190 L 280,-190 L 280,-181 z
M 311,-181 L 311,-190 L 320,-190 L 320,-181 z
M 291,-181 L 291,-190 L 300,-190 L 300,-181 z
M 31,-181 L 31,-190 L 40,-190 L 40,-181 z
M 171,-181 L 171,-190 L 180,-190 L 180,-181 z
M 51,-181 L 51,-190 L 60,-190 L 60,-181 z
M 111,-181 L 111,-190 L 120,-190 L 120,-181 z
M 91,-181 L 91,-190 L 100,-190 L 100,-181 z
M 21,-181 L 21,-190 L 30,-190 L 30,-181 z
M 101,-181 L 101,-190 L 110,-190 L 110,-181 z
M 41,-181 L 41,-190 L 50,-190 L 50,-181 z
M 121,-181 L 121,-190 L 130,-190 L 130,-181 z
M 131,-181 L 131,-190 L 140,-190 L 140,-181 z
M 181,-181 L 181,-190 L 190,-190 L 190,-181 z
M 161,-181 L 161,-190 L 170,-190 L 170,-181 z
M 71,-181 L 71,-190 L 80,-190 L 80,-181 z
M 231,-181 L 231,-190 L 240,-190 L 240,-181 z
M 11,-181 L 11,-190 L 20,-190 L 20,-181 z
M 211,-181 L 211,-190 L 220,-190 L 220,-181 z
M 151,-181 L 151,-190 L 160,-190 L 160,-181 z
M 201,-181 L 201,-190 L 210,-190 L 210,-181 z
M 221,-181 L 221,-190 L 230,-190 L 230,-181 z
M 191,-181 L 191,-190 L 200,-190 L 200,-181 z
M 271,-171 L 271,-180 L 280,-180 L 280,-171 z
M 291,-171 L 291,-180 L 300,-180 L 300,-171 z
M 91,-171 L 91,-180 L 100,-180 L 100,-171 z
M 171,-171 L 171,-180 L 180,-180 L 180,-171 z
M 141,-171 L 141,-180 L 150,-180 L 150,-171 z
M 251,-171 L 251,-180 L 260,-180 L 260,-171 z
M 61,-171 L 61,-180 L 70,-180 L 70,-171 z
M 151,-171 L 151,-180 L 160,-180 L 160,-171 z
M 11,-171 L 11,-180 L 20,-180 L 20,-171 z
M 181,-171 L 181,-180 L 190,-180 L 190,-171 z
M 281,-171 L 281,-180 L 290,-180 L 290,-171 z
M 101,-171 L 101,-180 L 110,-180 L 110,-171 z
M 301,-171 L 301,-180 L 310,-180 L 310,-171 z
M 161,-171 L 161,-180 L 170,-180 L 170,-171 z
M 51,-171 L 51,-180 L 60,-180 L 60,-171 z
M 321,-171 L 321,-180 L 330,-180 L 330,-171 z
M 21,-171 L 21,-180 L 30,-180 L 30,-171 z
M 261,-171 L 261,-180 L 270,-180 L 270,-171 z
M 311,-171 L 311,-180 L 320,-180 L 320,-171 z
M 191,-171 L 191,-180 L 200,-180 L 200,-171 z
M 231,-171 L 231,-180 L 240,-180 L 240,-171 z
M 111,-171 L 111,-180 L 120,-180 L 120,-171 z
M 221,-171 L 221,-180 L 230,-180 L 230,-171 z
M 201,-171 L 201,-180 L 210,-180 L 210,-171 z
M 211,-171 L 211,-180 L 220,-180 L 220,-171 z
M 81,-171 L 81,-180 L 90,-180 L 90,-171 z
M 131,-171 L 131,-180 L 140,-180 L 140,-171 z
M 71,-171 L 71,-180 L 80,-180 L 80,-171 z
M 121,-171 L 121,-180 L 130,-180 L 130,-171 z
M 31,-171 L 31,-180 L 40,-180 L 40,-171 z
M 41,-171 L 41,-180 L 50,-180 L 50,-171 z
M 241,-171 L 241,-180 L 250,-180 L 250,-171 z
M 11,-161 L 11,-170 L 20,-170 L 20,-161 z
M 211,-161 L 211,-170 L 220,-170 L 220,-161 z
M 281,-161 L 281,-170 L 290,-170 L 290,-161 z
M 201,-161 L 201,-170 L 210,-170 L 210,-161 z
M 241,-161 L 241,-170 L 250,-170 L 250,-161 z
M 191,-161 L 191,-170 L 200,-170 L 200,-161 z
M 181,-161 L 181,-170 L 190,-170 L 190,-161 z
M 171,-161 L 171,-170 L 180,-170 L 180,-161 z
M 311,-161 L 311,-170 L 320,-170 L 320,-161 z
M 301,-161 L 301,-170 L 310,-170 L 310,-161 z
M 291,-161 L 291,-170 L 300,-170 L 300,-161 z
M 271,-161 L 271,-170 L 280,-170 L 280,-161 z
M 81,-161 L 81,-170 L 90,-170 L 90,-161 z
M 231,-161 L 231,-170 L 240,-170 L 240,-161 z
M 31,-161 L 31,-170 L 40,-170 L 40,-161 z
M 261,-161 L 261,-170 L 270,-170 L 270,-161 z
M 251,-161 L 251,-170 L 260,-170 L 260,-161 z
M 131,-161 L 131,-170 L 140,-170 L 140,-161 z
M 121,-161 L 121,-170 L 130,-170 L 130,-161 z
M 111,-161 L 111,-170 L 120,-170 L 120,-161 z
M 101,-161 L 101,-170 L 110,-170 L 110,-161 z
M 141,-161 L 141,-170 L 150,-170 L 150,-161 z
M 91,-161 L 91,-170 L 100,-170 L 100,-161 z
M 151,-161 L 151,-170 L 160,-170 L 160,-161 z
M 21,-161 L 21,-170 L 30,-170 L 30,-161 z
M 161,-161 L 161,-170 L 170,-170 L 170,-161 z
M 51,-161 L 51,-170 L 60,-170 L 60,-161 z
M 321,-161 L 321,-170 L 330,-170 L 330,-161 z
M 41,-161 L 41,-170 L 50,-170 L 50,-161 z
M 61,-161 L 61,-170 L 70,-170 L 70,-161 z
M 71,-161 L 71,-170 L 80,-170 L 80,-161 z
M 221,-161 L 221,-170 L 230,-170 L 230,-161 z
M 334.791,-153.011 L 334.382,-153.098 L 334,-153.268 L 333.662,-153.514 L 333.382,-153.824 L 333.173,-154.187
 L 333.044,-154.584 L 333,-155 L 333.044,-155.416 L 333.173,-155.813 L 333.382,-156.176 L 333.662,-156.486
 L 334,-156.732 L 334.382,-156.902 L 334.791,-156.989 L 335.209,-156.989 L 335.618,-156.902 L 336,-156.732
 L 336.338,-156.486 L 336.618,-156.176 L 336.827,-155.813 L 336.956,-155.416 L 337,-155 L 336.956,-154.584
 L 336.827,-154.187 L 336.618,-153.824 L 336.338,-153.514 L 336,-153.268 L 335.618,-153.098 L 335.209,-153.011
 z
M 4.79094,-153.011 L 4.38196,-153.098 L 4,-153.268 L 3.66173,-153.514 L 3.38196,-153.824 L 3.1729,-154.187
 L 3.0437,-154.584 L 3,-155 L 3.0437,-155.416 L 3.1729,-155.813 L 3.38196,-156.176 L 3.66173,-156.486
 L 4,-156.732 L 4.38196,-156.902 L 4.79094,-156.989 L 5.20905,-156.989 L 5.61803,-156.902 L 6,-156.732
 L 6.33826,-156.486 L 6.61803,-156.176 L 6.82709,-155.813 L 6.95628,-155.416 L 7,-155 L 6.95628,-154.584
 L 6.82709,-154.187 L 6.61803,-153.824 L 6.33826,-153.514 L 6,-153.268 L 5.61803,-153.098 L 5.20905,-153.011
 z
M 169.791,-153.011 L 169.382,-153.098 L 169,-153.268 L 168.662,-153.514 L 168.382,-153.824 L 168.173,-154.187
 L 168.044,-154.584 L 168,-155 L 168.044,-155.416 L 168.173,-155.813 L 168.382,-156.176 L 168.662,-156.486
 L 169,-156.732 L 169.382,-156.902 L 169.791,-156.989 L 170.209,-156.989 L 170.618,-156.902 L 171,-156.732
 L 171.338,-156.486 L 171.618,-156.176 L 171.827,-155.813 L 171.956,-155.416 L 172,-155 L 171.956,-154.584
 L 171.827,-154.187 L 171.618,-153.824 L 171.338,-153.514 L 171,-153.268 L 170.618,-153.098 L 170.209,-153.011
 z
M 340,-100 L 0,-100 L 0,-0 L 340,-0 z
M 334.791,-93.011 L 334.382,-93.0979 L 334,-93.2679 L 333.662,-93.5137 L 333.382,-93.8244 L 333.173,-94.1865
 L 333.044,-94.5842 L 333,-95 L 333.044,-95.4158 L 333.173,-95.8135 L 333.382,-96.1756 L 333.662,-96.4863
 L 334,-96.732 L 334.382,-96.9021 L 334.791,-96.989 L 335.209,-96.989 L 335.618,-96.9021 L 336,-96.732
 L 336.338,-96.4863 L 336.618,-96.1756 L 336.827,-95.8135 L 336.956,-95.4158 L 337,-95 L 336.956,-94.5842
 L 336.827,-94.1865 L 336.618,-93.8244 L 336.338,-93.5137 L 336,-93.2679 L 335.618,-93.0979 L 335.209,-93.011
 z
M 169.791,-93.011 L 169.382,-93.0979 L 169,-93.2679 L 168.662,-93.5137 L 168.382,-93.8244 L 168.173,-94.1865
 L 168.044,-94.5842 L 168,-95 L 168.044,-95.4158 L 168.173,-95.8135 L 168.382,-96.1756 L 168.662,-96.4863
 L 169,-96.732 L 169.382,-96.9021 L 169.791,-96.989 L 170.209,-96.989 L 170.618,-96.9021 L 171,-96.732
 L 171.338,-96.4863 L 171.618,-96.1756 L 171.827,-95.8135 L 171.956,-95.4158 L 172,-95 L 171.956,-94.5842
 L 171.827,-94.1865 L 171.618,-93.8244 L 171.338,-93.5137 L 171,-93.2679 L 170.618,-93.0979 L 170.209,-93.011
 z
M 4.79094,-93.011 L 4.38196,-93.0979 L 4,-93.2679 L 3.66173,-93.5137 L 3.38196,-93.8244 L 3.1729,-94.1865
 L 3.0437,-94.5842 L 3,-95 L 3.0437,-95.4158 L 3.1729,-95.8135 L 3.38196,-96.1756 L 3.66173,-96.4863
 L 4,-96.732 L 4.38196,-96.9021 L 4.79094,-96.989 L 5.20905,-96.989 L 5.61803,-96.9021 L 6,-96.732
 L 6.33826,-96.4863 L 6.61803,-96.1756 L 6.82709,-95.8135 L 6.95628,-95.4158 L 7,-95 L 6.95628,-94.5842
 L 6.82709,-94.1865 L 6.61803,-93.8244 L 6.33826,-93.5137 L 6,-93.2679 L 5.61803,-93.0979 L 5.20905,-93.011
 z
M 11,-81 L 11,-81.5 L 10,-81.5 L 10,-89.5 L 11,-89.5 L 11,-90
 L 20,-90 L 20,-89.5 L 21,-89.5 L 21,-90 L 30,-90 L 30,-89.5
 L 31,-89.5 L 31,-90 L 40,-90 L 40,-89.5 L 41,-89.5 L 41,-90
 L 50,-90 L 50,-89.5 L 51,-89.5 L 51,-90 L 60,-90 L 60,-89.5
 L 61,-89.5 L 61,-90 L 70,-90 L 70,-89.5 L 71,-89.5 L 71,-90
 L 80,-90 L 80,-89.5 L 81,-89.5 L 81,-90 L 90,-90 L 90,-89.5
 L 91,-89.5 L 91,-90 L 100,-90 L 100,-89.5 L 101,-89.5 L 101,-90
 L 110,-90 L 110,-89.5 L 111,-89.5 L 111,-90 L 120,-90 L 120,-89.5
 L 121,-89.5 L 121,-90 L 130,-90 L 130,-89.5 L 131,-89.5 L 131,-90
 L 140,-90 L 140,-89.5 L 141,-89.5 L 141,-90 L 150,-90 L 150,-89.5
 L 151,-89.5 L 151,-90 L 160,-90 L 160,-89.5 L 161,-89.5 L 161,-90
 L 170,-90 L 170,-89.5 L 171,-89.5 L 171,-90 L 180,-90 L 180,-89.5
 L 181,-89.5 L 181,-90 L 190,-90 L 190,-89.5 L 191,-89.5 L 191,-90
 L 200,-90 L 200,-89.5 L 201,-89.5 L 201,-90 L 210,-90 L 210,-89.5
 L 211,-89.5 L 211,-90 L 220,-90 L 220,-89.5 L 221,-89.5 L 221,-90
 L 230,-90 L 230,-89.5 L 231,-89.5 L 231,-90 L 240,-90 L 240,-89.5
 L 241,-89.5 L 241,-90 L 250,-90 L 250,-89.5 L 251,-89.5 L 251,-90
 L 260,-90 L 260,-89.5 L 261,-89.5 L 261,-90 L 270,-90 L 270,-89.5
 L 271,-89.5 L 271,-90 L 280,-90 L 280,-89.5 L 281,-89.5 L 281,-90
 L 290,-90 L 290,-89.5 L 291,-89.5 L 291,-90 L 300,-90 L 300,-89.5
 L 301,-89.5 L 301,-90 L 310,-90 L 310,-89.5 L 311,-89.5 L 311,-90
 L 320,-90 L 320,-89.5 L 321,-89.5 L 321,-90 L 330,-90 L 330,-81
 L 321,-81 L 321,-81.5 L 320,-81.5 L 320,-81 L 311,-81 L 311,-81.5
 L 310,-81.5 L 310,-81 L 301,-81 L 301,-81.5 L 300,-81.5 L 300,-81
 L 291,-81 L 291,-81.5 L 290,-81.5 L 290,-81 L 281,-81 L 281,-81.5
 L 280,-81.5 L 280,-81 L 271,-81 L 271,-81.5 L 270,-81.5 L 270,-81
 L 261,-81 L 261,-81.5 L 260,-81.5 L 260,-81 L 251,-81 L 251,-81.5
 L 250,-81.5 L 250,-81 L 241,-81 L 241,-81.5 L 240,-81.5 L 240,-81
 L 231,-81 L 231,-81.5 L 230,-81.5 L 230,-81 L 221,-81 L 221,-81.5
 L 220,-81.5 L 220,-81 L 211,-81 L 211,-81.5 L 210,-81.5 L 210,-81
 L 201,-81 L 201,-81.5 L 200,-81.5 L 200,-81 L 191,-81 L 191,-81.5
 L 190,-81.5 L 190,-81 L 181,-81 L 181,-81.5 L 180,-81.5 L 180,-81
 L 171,-81 L 171,-81.5 L 170,-81.5 L 170,-81 L 161,-81 L 161,-81.5
 L 160,-81.5 L 160,-81 L 151,-81 L 151,-81.5 L 150,-81.5 L 150,-81
 L 141,-81 L 141,-81.5 L 140,-81.5 L 140,-81 L 131,-81 L 131,-81.5
 L 130,-81.5 L 130,-81 L 121,-81 L 121,-81.5 L 120,-81.5 L 120,-81
 L 111,-81 L 111,-81.5 L 110,-81.5 L 110,-81 L 101,-81 L 101,-81.5
 L 100,-81.5 L 100,-81 L 91,-81 L 91,-81.5 L 90,-81.5 L 90,-81
 L 81,-81 L 81,-81.5 L 80,-81.5 L 80,-81 L 71,-81 L 71,-81.5
 L 70,-81.5 L 70,-81 L 61,-81 L 61,-81.5 L 60,-81.5 L 60,-81
 L 51,-81 L 51,-81.5 L 50,-81.5 L 50,-81 L 41,-81 L 41,-81.5
 L 40,-81.5 L 40,-81 L 31,-81 L 31,-81.5 L 30,-81.5 L 30,-81
 L 21,-81 L 21,-81.5 L 20,-81.5 L 20,-81 z
M 11,-71 L 11,-71.5 L 10,-71.5 L 10,-79.5 L 11,-79.5 L 11,-80
 L 20,-80 L 20,-79.5 L 21,-79.5 L 21,-80 L 30,-80 L 30,-79.5
 L 31,-79.5 L 31,-80 L 40,-80 L 40,-79.5 L 41,-79.5 L 41,-80
 L 50,-80 L 50,-79.5 L 51,-79.5 L 51,-80 L 60,-80 L 60,-79.5
 L 61,-79.5 L 61,-80 L 70,-80 L 70,-79.5 L 71,-79.5 L 71,-80
 L 80,-80 L 80,-79.5 L 81,-79.5 L 81,-80 L 90,-80 L 90,-79.5
 L 91,-79.5 L 91,-80 L 100,-80 L 100,-79.5 L 101,-79.5 L 101,-80
 L 110,-80 L 110,-79.5 L 111,-79.5 L 111,-80 L 120,-80 L 120,-79.5
 L 121,-79.5 L 121,-80 L 130,-80 L 130,-79.5 L 131,-79.5 L 131,-80
 L 140,-80 L 140,-79.5 L 141,-79.5 L 141,-80 L 150,-80 L 150,-79.5
 L 151,-79.5 L 151,-80 L 160,-80 L 160,-79.5 L 161,-79.5 L 161,-80
 L 170,-80 L 170,-79.5 L 171,-79.5 L 171,-80 L 180,-80 L 180,-79.5
 L 181,-79.5 L 181,-80 L 190,-80 L 190,-79.5 L 191,-79.5 L 191,-80
 L 200,-80 L 200,-79.5 L 201,-79.5 L 201,-80 L 210,-80 L 210,-79.5
 L 211,-79.5 L 211,-80 L 220,-80 L 220,-79.5 L 221,-79.5 L 221,-80
 L 230,-80 L 230,-79.5 L 231,-79.5 L 231,-80 L 240,-80 L 240,-79.5
 L 241,-79.5 L 241,-80 L 250,-80 L 250,-79.5 L 251,-79.5 L 251,-80
 L 260,-80 L 260,-79.5 L 261,-79.5 L 261,-80 L 270,-80 L 270,-79.5
 L 271,-79.5 L 271,-80 L 280,-80 L 280,-79.5 L 281,-79.5 L 281,-80
 L 290,-80 L 290,-79.5 L 291,-79.5 L 291,-80 L 300,-80 L 300,-79.5
 L 301,-79.5 L 301,-80 L 310,-80 L 310,-79.5 L 311,-79.5 L 311,-80
 L 320,-80 L 320,-79.5 L 321,-79.5 L 321,-80 L 330,-80 L 330,-71
 L 321,-71 L 321,-71.5 L 320,-71.5 L 320,-71 L 311,-71 L 311,-71.5
 L 310,-71.5 L 310,-71 L 301,-71 L 301,-71.5 L 300,-71.5 L 300,-71
 L 291,-71 L 291,-71.5 L 290,-71.5 L 290,-71 L 281,-71 L 281,-71.5
 L 280,-71.5 L 280,-71 L 271,-71 L 271,-71.5 L 270,-71.5 L 270,-71
 L 261,-71 L 261,-71.5 L 260,-71.5 L 260,-71 L 251,-71 L 251,-71.5
 L 250,-71.5 L 250,-71 L 241,-71 L 241,-71.5 L 240,-71.5 L 240,-71
 L 231,-71 L 231,-71.5 L 230,-71.5 L 230,-71 L 221,-71 L 221,-71.5
 L 220,-71.5 L 220,-71 L 211,-71 L 211,-71.5 L 210,-71.5 L 210,-71
 L 201,-71 L 201,-71.5 L 200,-71.5 L 200,-71 L 191,-71 L 191,-71.5
 L 190,-71.5 L 190,-71 L 181,-71 L 181,-71.5 L 180,-71.5 L 180,-71
 L 171,-71 L 171,-71.5 L 170,-71.5 L 170,-71 L 161,-71 L 161,-71.5
 L 160,-71.5 L 160,-71 L 151,-71 L 151,-71.5 L 150,-71.5 L 150,-71
 L 141,-71 L 141,-71.5 L 140,-71.5 L 140,-71 L 131,-71 L 131,-71.5
 L 130,-71.5 L 130,-71 L 121,-71 L 121,-71.5 L 120,-71.5 L 120,-71
 L 111,-71 L 111,-71.5 L 110,-71.5 L 110,-71 L 101,-71 L 101,-71.5
 L 100,-71.5 L 100,-71 L 91,-71 L 91,-71.5 L 90,-71.5 L 90,-71
 L 81,-71 L 81,-71.5 L 80,-71.5 L 80,-71 L 71,-71 L 71,-71.5
 L 70,-71.5 L 70,-71 L 61,-71 L 61,-71.5 L 60,-71.5 L 60,-71
 L 51,-71 L 51,-71.5 L 50,-71.5 L 50,-71 L 41,-71 L 41,-71.5
 L 40,-71.5 L 40,-71 L 31,-71 L 31,-71.5 L 30,-71.5 L 30,-71
 L 21,-71 L 21,-71.5 L 20,-71.5 L 20,-71 z
M 11,-61 L 11,-61.5 L 10,-61.5 L 10,-69.5 L 11,-69.5 L 11,-70
 L 20,-70 L 20,-69.5 L 21,-69.5 L 21,-70 L 30,-70 L 30,-69.5
 L 31,-69.5 L 31,-70 L 40,-70 L 40,-69.5 L 41,-69.5 L 41,-70
 L 50,-70 L 50,-69.5 L 51,-69.5 L 51,-70 L 60,-70 L 60,-69.5
 L 61,-69.5 L 61,-70 L 70,-70 L 70,-69.5 L 71,-69.5 L 71,-70
 L 80,-70 L 80,-69.5 L 81,-69.5 L 81,-70 L 90,-70 L 90,-69.5
 L 91,-69.5 L 91,-70 L 100,-70 L 100,-69.5 L 101,-69.5 L 101,-70
 L 110,-70 L 110,-69.5 L 111,-69.5 L 111,-70 L 120,-70 L 120,-69.5
 L 121,-69.5 L 121,-70 L 130,-70 L 130,-69.5 L 131,-69.5 L 131,-70
 L 140,-70 L 140,-69.5 L 141,-69.5 L 141,-70 L 150,-70 L 150,-69.5
 L 151,-69.5 L 151,-70 L 160,-70 L 160,-69.5 L 161,-69.5 L 161,-70
 L 170,-70 L 170,-69.5 L 171,-69.5 L 171,-70 L 180,-70 L 180,-69.5
 L 181,-69.5 L 181,-70 L 190,-70 L 190,-69.5 L 191,-69.5 L 191,-70
 L 200,-70 L 200,-69.5 L 201,-69.5 L 201,-70 L 210,-70 L 210,-69.5
 L 211,-69.5 L 211,-70 L 220,-70 L 220,-69.5 L 221,-69.5 L 221,-70
 L 230,-70 L 230,-69.5 L 231,-69.5 L 231,-70 L 240,-70 L 240,-69.5
 L 241,-69.5 L 241,-70 L 250,-70 L 250,-69.5 L 251,-69.5 L 251,-70
 L 260,-70 L 260,-69.5 L 261,-69.5 L 261,-70 L 270,-70 L 270,-69.5
 L 271,-69.5 L 271,-70 L 280,-70 L 280,-69.5 L 281,-69.5 L 281,-70
 L 290,-70 L 290,-69.5 L 291,-69.5 L 291,-70 L 300,-70 L 300,-69.5
 L 301,-69.5 L 301,-70 L 310,-70 L 310,-69.5 L 311,-69.5 L 311,-70
 L 320,-70 L 320,-69.5 L 321,-69.5 L 321,-70 L 330,-70 L 330,-61
 L 321,-61 L 321,-61.5 L 320,-61.5 L 320,-61 L 311,-61 L 311,-61.5
 L 310,-61.5 L 310,-61 L 301,-61 L 301,-61.5 L 300,-61.5 L 300,-61
 L 291,-61 L 291,-61.5 L 290,-61.5 L 290,-61 L 281,-61 L 281,-61.5
 L 280,-61.5 L 280,-61 L 271,-61 L 271,-61.5 L 270,-61.5 L 270,-61
 L 261,-61 L 261,-61.5 L 260,-61.5 L 260,-61 L 251,-61 L 251,-61.5
 L 250,-61.5 L 250,-61 L 241,-61 L 241,-61.5 L 240,-61.5 L 240,-61
 L 231,-61 L 231,-61.5 L 230,-61.5 L 230,-61 L 221,-61 L 221,-61.5
 L 220,-61.5 L 220,-61 L 211,-61 L 211,-61.5 L 210,-61.5 L 210,-61
 L 201,-61 L 201,-61.5 L 200,-61.5 L 200,-61 L 191,-61 L 191,-61.5
 L 190,-61.5 L 190,-61 L 181,-61 L 181,-61.5 L 180,-61.5 L 180,-61
 L 171,-61 L 171,-61.5 L 170,-61.5 L 170,-61 L 161,-61 L 161,-61.5
 L 160,-61.5 L 160,-61 L 151,-61 L 151,-61.5 L 150,-61.5 L 150,-61
 L 141,-61 L 141,-61.5 L 140,-61.5 L 140,-61 L 131,-61 L 131,-61.5
 L 130,-61.5 L 130,-61 L 121,-61 L 121,-61.5 L 120,-61.5 L 120,-61
 L 111,-61 L 111,-61.5 L 110,-61.5 L 110,-61 L 101,-61 L 101,-61.5
 L 100,-61.5 L 100,-61 L 91,-61 L 91,-61.5 L 90,-61.5 L 90,-61
 L 81,-61 L 81,-61.5 L 80,-61.5 L 80,-61 L 71,-61 L 71,-61.5
 L 70,-61.5 L 70,-61 L 61,-61 L 61,-61.5 L 60,-61.5 L 60,-61
 L 51,-61 L 51,-61.5 L 50,-61.5 L 50,-61 L 41,-61 L 41,-61.5
 L 40,-61.5 L 40,-61 L 31,-61 L 31,-61.5 L 30,-61.5 L 30,-61
 L 21,-61 L 21,-61.5 L 20,-61.5 L 20,-61 z
M 11,-51 L 11,-51.5 L 10,-51.5 L 10,-59.5 L 11,-59.5 L 11,-60
 L 20,-60 L 20,-59.5 L 21,-59.5 L 21,-60 L 30,-60 L 30,-59.5
 L 31,-59.5 L 31,-60 L 40,-60 L 40,-59.5 L 41,-59.5 L 41,-60
 L 50,-60 L 50,-59.5 L 51,-59.5 L 51,-60 L 60,-60 L 60,-59.5
 L 61,-59.5 L 61,-60 L 70,-60 L 70,-59.5 L 71,-59.5 L 71,-60
 L 80,-60 L 80,-59.5 L 81,-59.5 L 81,-60 L 90,-60 L 90,-59.5
 L 91,-59.5 L 91,-60 L 100,-60 L 100,-59.5 L 101,-59.5 L 101,-60
 L 110,-60 L 110,-59.5 L 111,-59.5 L 111,-60 L 120,-60 L 120,-59.5
 L 121,-59.5 L 121,-60 L 130,-60 L 130,-59.5 L 131,-59.5 L 131,-60
 L 140,-60 L 140,-59.5 L 141,-59.5 L 141,-60 L 150,-60 L 150,-59.5
 L 151,-59.5 L 151,-60 L 160,-60 L 160,-59.5 L 161,-59.5 L 161,-60
 L 170,-60 L 170,-59.5 L 171,-59.5 L 171,-60 L 180,-60 L 180,-59.5
 L 181,-59.5 L 181,-60 L 190,-60 L 190,-59.5 L 191,-59.5 L 191,-60
 L 200,-60 L 200,-59.5 L 201,-59.5 L 201,-60 L 210,-60 L 210,-59.5
 L 211,-59.5 L 211,-60 L 220,-60 L 220,-59.5 L 221,-59.5 L 221,-60
 L 230,-60 L 230,-59.5 L 231,-59.5 L 231,-60 L 240,-60 L 240,-59.5
 L 241,-59.5 L 241,-60 L 250,-60 L 250,-59.5 L 251,-59.5 L 251,-60
 L 260,-60 L 260,-59.5 L 261,-59.5 L 261,-60 L 270,-60 L 270,-59.5
 L 271,-59.5 L 271,-60 L 280,-60 L 280,-59.5 L 281,-59.5 L 281,-60
 L 290,-60 L 290,-59.5 L 291,-59.5 L 291,-60 L 300,-60 L 300,-59.5
 L 301,-59.5 L 301,-60 L 310,-60 L 310,-59.5 L 311,-59.5 L 311,-60
 L 320,-60 L 320,-59.5 L 321,-59.5 L 321,-60 L 330,-60 L 330,-51
 L 321,-51 L 321,-51.5 L 320,-51.5 L 320,-51 L 311,-51 L 311,-51.5
 L 310,-51.5 L 310,-51 L 301,-51 L 301,-51.5 L 300,-51.5 L 300,-51
 L 291,-51 L 291,-51.5 L 290,-51.5 L 290,-51 L 281,-51 L 281,-51.5
 L 280,-51.5 L 280,-51 L 271,-51 L 271,-51.5 L 270,-51.5 L 270,-51
 L 261,-51 L 261,-51.5 L 260,-51.5 L 260,-51 L 251,-51 L 251,-51.5
 L 250,-51.5 L 250,-51 L 241,-51 L 241,-51.5 L 240,-51.5 L 240,-51
 L 231,-51 L 231,-51.5 L 230,-51.5 L 230,-51 L 221,-51 L 221,-51.5
 L 220,-51.5 L 220,-51 L 211,-51 L 211,-51.5 L 210,-51.5 L 210,-51
 L 201,-51 L 201,-51.5 L 200,-51.5 L 200,-51 L 191,-51 L 191,-51.5
 L 190,-51.5 L 190,-51 L 181,-51 L 181,-51.5 L 180,-51.5 L 180,-51
 L 171,-51 L 171,-51.5 L 170,-51.5 L 170,-51 L 161,-51 L 161,-51.5
 L 160,-51.5 L 160,-51 L 151,-51 L 151,-51.5 L 150,-51.5 L 150,-51
 L 141,-51 L 141,-51.5 L 140,-51.5 L 140,-51 L 131,-51 L 131,-51.5
 L 130,-51.5 L 130,-51 L 121,-51 L 121,-51.5 L 120,-51.5 L 120,-51
 L 111,-51 L 111,-51.5 L 110,-51.5 L 110,-51 L 101,-51 L 101,-51.5
 L 100,-51.5 L 100,-51 L 91,-51 L 91,-51.5 L 90,-51.5 L 90,-51
 L 81,-51 L 81,-51.5 L 80,-51.5 L 80,-51 L 71,-51 L 71,-51.5
 L 70,-51.5 L 70,-51 L 61,-51 L 61,-51.5 L 60,-51.5 L 60,-51
 L 51,-51 L 51,-51.5 L 50,-51.5 L 50,-51 L 41,-51 L 41,-51.5
 L 40,-51.5 L 40,-51 L 31,-51 L 31,-51.5 L 30,-51.5 L 30,-51
 L 21,-51 L 21,-51.5 L 20,-51.5 L 20,-51 z
M 11,-41 L 11,-41.5 L 10,-41.5 L 10,-49.5 L 11,-49.5 L 11,-50
 L 20,-50 L 20,-49.5 L 21,-49.5 L 21,-50 L 30,-50 L 30,-49.5
 L 31,-49.5 L 31,-50 L 40,-50 L 40,-49.5 L 41,-49.5 L 41,-50
 L 50,-50 L 50,-49.5 L 51,-49.5 L 51,-50 L 60,-50 L 60,-49.5
 L 61,-49.5 L 61,-50 L 70,-50 L 70,-49.5 L 71,-49.5 L 71,-50
 L 80,-50 L 80,-49.5 L 81,-49.5 L 81,-50 L 90,-50 L 90,-49.5
 L 91,-49.5 L 91,-50 L 100,-50 L 100,-49.5 L 101,-49.5 L 101,-50
 L 110,-50 L 110,-49.5 L 111,-49.5 L 111,-50 L 120,-50 L 120,-49.5
 L 121,-49.5 L 121,-50 L 130,-50 L 130,-49.5 L 131,-49.5 L 131,-50
 L 140,-50 L 140,-49.5 L 141,-49.5 L 141,-50 L 150,-50 L 150,-49.5
 L 151,-49.5 L 151,-50 L 160,-50 L 160,-49.5 L 161,-49.5 L 161,-50
 L 170,-50 L 170,-49.5 L 171,-49.5 L 171,-50 L 180,-50 L 180,-49.5
 L 181,-49.5 L 181,-50 L 190,-50 L 190,-49.5 L 191,-49.5 L 191,-50
 L 200,-50 L 200,-49.5 L 201,-49.5 L 201,-50 L 210,-50 L 210,-49.5
 L 211,-49.5 L 211,-50 L 220,-50 L 220,-49.5 L 221,-49.5 L 221,-50
 L 230,-50 L 230,-49.5 L 231,-49.5 L 231,-50 L 240,-50 L 240,-49.5
 L 241,-49.5 L 241,-50 L 250,-50 L 250,-49.5 L 251,-49.5 L 251,-50
 L 260,-50 L 260,-49.5 L 261,-49.5 L 261,-50 L 270,-50 L 270,-49.5
 L 271,-49.5 L 271,-50 L 280,-50 L 280,-49.5 L 281,-49.5 L 281,-50
 L 290,-50 L 290,-49.5 L 291,-49.5 L 291,-50 L 300,-50 L 300,-49.5
 L 301,-49.5 L 301,-50 L 310,-50 L 310,-49.5 L 311,-49.5 L 311,-50
 L 320,-50 L 320,-49.5 L 321,-49.5 L 321,-50 L 330,-50 L 330,-41
 L 321,-41 L 321,-41.5 L 320,-41.5 L 320,-41 L 311,-41 L 311,-41.5
 L 310,-41.5 L 310,-41 L 301,-41 L 301,-41.5 L 300,-41.5 L 300,-41
 L 291,-41 L 291,-41.5 L 290,-41.5 L 290,-41 L 281,-41 L 281,-41.5
 L 280,-41.5 L 280,-41 L 271,-41 L 271,-41.5 L 270,-41.5 L 270,-41
 L 261,-41 L 261,-41.5 L 260,-41.5 L 260,-41 L 251,-41 L 251,-41.5
 L 250,-41.5 L 250,-41 L 241,-41 L 241,-41.5 L 240,-41.5 L 240,-41
 L 231,-41 L 231,-41.5 L 230,-41.5 L 230,-41 L 221,-41 L 221,-41.5
 L 220,-41.5 L 220,-41 L 211,-41 L 211,-41.5 L 210,-41.5 L 210,-41
 L 201,-41 L 201,-41.5 L 200,-41.5 L 200,-41 L 191,-41 L 191,-41.5
 L 190,-41.5 L 190,-41 L 181,-41 L 181,-41.5 L 180,-41.5 L 180,-41
 L 171,-41 L 171,-41.5 L 170,-41.5 L 170,-41 L 161,-41 L 161,-41.5
 L 160,-41.5 L 160,-41 L 151,-41 L 151,-41.5 L 150,-41.5 L 150,-41
 L 141,-41 L 141,-41.5 L 140,-41.5 L 140,-41 L 131,-41 L 131,-41.5
 L 130,-41.5 L 130,-41 L 121,-41 L 121,-41.5 L 120,-41.5 L 120,-41
 L 111,-41 L 111,-41.5 L 110,-41.5 L 110,-41 L 101,-41 L 101,-41.5
 L 100,-41.5 L 100,-41 L 91,-41 L 91,-41.5 L 90,-41.5 L 90,-41
 L 81,-41 L 81,-41.5 L 80,-41.5 L 80,-41 L 71,-41 L 71,-41.5
 L 70,-41.5 L 70,-41 L 61,-41 L 61,-41.5 L 60,-41.5 L 60,-41
 L 51,-41 L 51,-41.5 L 50,-41.5 L 50,-41 L 41,-41 L 41,-41.5
 L 40,-41.5 L 40,-41 L 31,-41 L 31,-41.5 L 30,-41.5 L 30,-41
 L 21,-41 L 21,-41.5 L 20,-41.5 L 20,-41 z
M 11,-31 L 11,-31.5 L 10,-31.5 L 10,-39.5 L 11,-39.5 L 11,-40
 L 20,-40 L 20,-39.5 L 21,-39.5 L 21,-40 L 30,-40 L 30,-39.5
 L 31,-39.5 L 31,-40 L 40,-40 L 40,-39.5 L 41,-39.5 L 41,-40
 L 50,-40 L 50,-39.5 L 51,-39.5 L 51,-40 L 60,-40 L 60,-39.5
 L 61,-39.5 L 61,-40 L 70,-40 L 70,-39.5 L 71,-39.5 L 71,-40
 L 80,-40 L 80,-39.5 L 81,-39.5 L 81,-40 L 90,-40 L 90,-39.5
 L 91,-39.5 L 91,-40 L 100,-40 L 100,-39.5 L 101,-39.5 L 101,-40
 L 110,-40 L 110,-39.5 L 111,-39.5 L 111,-40 L 120,-40 L 120,-39.5
 L 121,-39.5 L 121,-40 L 130,-40 L 130,-39.5 L 131,-39.5 L 131,-40
 L 140,-40 L 140,-39.5 L 141,-39.5 L 141,-40 L 150,-40 L 150,-39.5
 L 151,-39.5 L 151,-40 L 160,-40 L 160,-39.5 L 161,-39.5 L 161,-40
 L 170,-40 L 170,-39.5 L 171,-39.5 L 171,-40 L 180,-40 L 180,-39.5
 L 181,-39.5 L 181,-40 L 190,-40 L 190,-39.5 L 191,-39.5 L 191,-40
 L 200,-40 L 200,-39.5 L 201,-39.5 L 201,-40 L 210,-40 L 210,-39.5
 L 211,-39.5 L 211,-40 L 220,-40 L 220,-39.5 L 221,-39.5 L 221,-40
 L 230,-40 L 230,-39.5 L 231,-39.5 L 231,-40 L 240,-40 L 240,-39.5
 L 241,-39.5 L 241,-40 L 250,-40 L 250,-39.5 L 251,-39.5 L 251,-40
 L 260,-40 L 260,-39.5 L 261,-39.5 L 261,-40 L 270,-40 L 270,-39.5
 L 271,-39.5 L 271,-40 L 280,-40 L 280,-39.5 L 281,-39.5 L 281,-40
 L 290,-40 L 290,-39.5 L 291,-39.5 L 291,-40 L 300,-40 L 300,-39.5
 L 301,-39.5 L 301,-40 L 310,-40 L 310,-39.5 L 311,-39.5 L 311,-40
 L 320,-40 L 320,-39.5 L 321,-39.5 L 321,-40 L 330,-40 L 330,-31
 L 321,-31 L 321,-31.5 L 320,-31.5 L 320,-31 L 311,-31 L 311,-31.5
 L 310,-31.5 L 310,-31 L 301,-31 L 301,-31.5 L 300,-31.5 L 300,-31
 L 291,-31 L 291,-31.5 L 290,-31.5 L 290,-31 L 281,-31 L 281,-31.5
 L 280,-31.5 L 280,-31 L 271,-31 L 271,-31.5 L 270,-31.5 L 270,-31
 L 261,-31 L 261,-31.5 L 260,-31.5 L 260,-31 L 251,-31 L 251,-31.5
 L 250,-31.5 L 250,-31 L 241,-31 L 241,-31.5 L 240,-31.5 L 240,-31
 L 231,-31 L 231,-31.5 L 230,-31.5 L 230,-31 L 221,-31 L 221,-31.5
 L 220,-31.5 L 220,-31 L 211,-31 L 211,-31.5 L 210,-31.5 L 210,-31
 L 201,-31 L 201,-31.5 L 200,-31.5 L 200,-31 L 191,-31 L 191,-31.5
 L 190,-31.5 L 190,-31 L 181,-31 L 181,-31.5 L 180,-31.5 L 180,-31
 L 171,-31 L 171,-31.5 L 170,-31.5 L 170,-31 L 161,-31 L 161,-31.5
 L 160,-31.5 L 160,-31 L 151,-31 L 151,-31.5 L 150,-31.5 L 150,-31
 L 141,-31 L 141,-31.5 L 140,-31.5 L 140,-31 L 131,-31 L 131,-31.5
 L 130,-31.5 L 130,-31 L 121,-31 L 121,-31.5 L 120,-31.5 L 120,-31
 L 111,-31 L 111,-31.5 L 110,-31.5 L 110,-31 L 101,-31 L 101,-31.5
 L 100,-31.5 L 100,-31 L 91,-31 L 91,-31.5 L 90,-31.5 L 90,-31
 L 81,-31 L 81,-31.5 L 80,-31.5 L 80,-31 L 71,-31 L 71,-31.5
 L 70,-31.5 L 70,-31 L 61,-31 L 61,-31.5 L 60,-31.5 L 60,-31
 L 51,-31 L 51,-31.5 L 50,-31.5 L 50,-31 L 41,-31 L 41,-31.5
 L 40,-31.5 L 40,-31 L 31,-31 L 31,-31.5 L 30,-31.5 L 30,-31
 L 21,-31 L 21,-31.5 L 20,-31.5 L 20,-31 z
M 11,-21 L 11,-21.5 L 10,-21.5 L 10,-29.5 L 11,-29.5 L 11,-30
 L 20,-30 L 20,-29.5 L 21,-29.5 L 21,-30 L 30,-30 L 30,-29.5
 L 31,-29.5 L 31,-30 L 40,-30 L 40,-29.5 L 41,-29.5 L 41,-30
 L 50,-30 L 50,-29.5 L 51,-29.5 L 51,-30 L 60,-30 L 60,-29.5
 L 61,-29.5 L 61,-30 L 70,-30 L 70,-29.5 L 71,-29.5 L 71,-30
 L 80,-30 L 80,-29.5 L 81,-29.5 L 81,-30 L 90,-30 L 90,-29.5
 L 91,-29.5 L 91,-30 L 100,-30 L 100,-29.5 L 101,-29.5 L 101,-30
 L 110,-30 L 110,-29.5 L 111,-29.5 L 111,-30 L 120,-30 L 120,-29.5
 L 121,-29.5 L 121,-30 L 130,-30 L 130,-29.5 L 131,-29.5 L 131,-30
 L 140,-30 L 140,-29.5 L 141,-29.5 L 141,-30 L 150,-30 L 150,-29.5
 L 151,-29.5 L 151,-30 L 160,-30 L 160,-29.5 L 161,-29.5 L 161,-30
 L 170,-30 L 170,-29.5 L 171,-29.5 L 171,-30 L 180,-30 L 180,-29.5
 L 181,-29.5 L 181,-30 L 190,-30 L 190,-29.5 L 191,-29.5 L 191,-30
 L 200,-30 L 200,-29.5 L 201,-29.5 L 201,-30 L 210,-30 L 210,-29.5
 L 211,-29.5 L 211,-30 L 220,-30 L 220,-29.5 L 221,-29.5 L 221,-30
 L 230,-30 L 230,-29.5 L 231,-29.5 L 231,-30 L 240,-30 L 240,-29.5
 L 241,-29.5 L 241,-30 L 250,-30 L 250,-29.5 L 251,-29.5 L 251,-30
 L 260,-30 L 260,-29.5 L 261,-29.5 L 261,-30 L 270,-30 L 270,-29.5
 L 271,-29.5 L 271,-30 L 280,-30 L 280,-29.5 L 281,-29.5 L 281,-30
 L 290,-30 L 290,-29.5 L 291,-29.5 L 291,-30 L 300,-30 L 300,-29.5
 L 301,-29.5 L 301,-30 L 310,-30 L 310,-29.5 L 311,-29.5 L 311,-30
 L 320,-30 L 320,-29.5 L 321,-29.5 L 321,-30 L 330,-30 L 330,-21
 L 321,-21 L 321,-21.5 L 320,-21.5 L 320,-21 L 311,-21 L 311,-21.5
 L 310,-21.5 L 310,-21 L 301,-21 L 301,-21.5 L 300,-21.5 L 300,-21
 L 291,-21 L 291,-21.5 L 290,-21.5 L 290,-21 L 281,-21 L 281,-21.5
 L 280,-21.5 L 280,-21 L 271,-21 L 271,-21.5 L 270,-21.5 L 270,-21
 L 261,-21 L 261,-21.5 L 260,-21.5 L 260,-21 L 251,-21 L 251,-21.5
 L 250,-21.5 L 250,-21 L 241,-21 L 241,-21.5 L 240,-21.5 L 240,-21
 L 231,-21 L 231,-21.5 L 230,-21.5 L 230,-21 L 221,-21 L 221,-21.5
 L 220,-21.5 L 220,-21 L 211,-21 L 211,-21.5 L 210,-21.5 L 210,-21
 L 201,-21 L 201,-21.5 L 200,-21.5 L 200,-21 L 191,-21 L 191,-21.5
 L 190,-21.5 L 190,-21 L 181,-21 L 181,-21.5 L 180,-21.5 L 180,-21
 L 171,-21 L 171,-21.5 L 170,-21.5 L 170,-21 L 161,-21 L 161,-21.5
 L 160,-21.5 L 160,-21 L 151,-21 L 151,-21.5 L 150,-21.5 L 150,-21
 L 141,-21 L 141,-21.5 L 140,-21.5 L 140,-21 L 131,-21 L 131,-21.5
 L 130,-21.5 L 130,-21 L 121,-21 L 121,-21.5 L 120,-21.5 L 120,-21
 L 111,-21 L 111,-21.5 L 110,-21.5 L 110,-21 L 101,-21 L 101,-21.5
 L 100,-21.5 L 100,-21 L 91,-21 L 91,-21.5 L 90,-21.5 L 90,-21
 L 81,-21 L 81,-21.5 L 80,-21.5 L 80,-21 L 71,-21 L 71,-21.5
 L 70,-21.5 L 70,-21 L 61,-21 L 61,-21.5 L 60,-21.5 L 60,-21
 L 51,-21 L 51,-21.5 L 50,-21.5 L 50,-21 L 41,-21 L 41,-21.5
 L 40,-21.5 L 40,-21 L 31,-21 L 31,-21.5 L 30,-21.5 L 30,-21
 L 21,-21 L 21,-21.5 L 20,-21.5 L 20,-21 z
M 11,-11 L 11,-11.5 L 10,-11.5 L 10,-19.5 L 11,-19.5 L 11,-20
 L 20,-20 L 20,-19.5 L 21,-19.5 L 21,-20 L 30,-20 L 30,-19.5
 L 31,-19.5 L 31,-20 L 40,-20 L 40,-19.5 L 41,-19.5 L 41,-20
 L 50,-20 L 50,-19.5 L 51,-19.5 L 51,-20 L 60,-20 L 60,-19.5
 L 61,-19.5 L 61,-20 L 70,-20 L 70,-19.5 L 71,-19.5 L 71,-20
 L 80,-20 L 80,-19.5 L 81,-19.5 L 81,-20 L 90,-20 L 90,-19.5
 L 91,-19.5 L 91,-20 L 100,-20 L 100,-19.5 L 101,-19.5 L 101,-20
 L 110,-20 L 110,-19.5 L 111,-19.5 L 111,-20 L 120,-20 L 120,-19.5
 L 121,-19.5 L 121,-20 L 130,-20 L 130,-19.5 L 131,-19.5 L 131,-20
 L 140,-20 L 140,-19.5 L 141,-19.5 L 141,-20 L 150,-20 L 150,-19.5
 L 151,-19.5 L 151,-20 L 160,-20 L 160,-19.5 L 161,-19.5 L 161,-20
 L 170,-20 L 170,-19.5 L 171,-19.5 L 171,-20 L 180,-20 L 180,-19.5
 L 181,-19.5 L 181,-20 L 190,-20 L 190,-19.5 L 191,-19.5 L 191,-20
 L 200,-20 L 200,-19.5 L 201,-19.5 L 201,-20 L 210,-20 L 210,-19.5
 L 211,-19.5 L 211,-20 L 220,-20 L 220,-19.5 L 221,-19.5 L 221,-20
 L 230,-20 L 230,-19.5 L 231,-19.5 L 231,-20 L 240,-20 L 240,-19.5
 L 241,-19.5 L 241,-20 L 250,-20 L 250,-19.5 L 251,-19.5 L 251,-20
 L 260,-20 L 260,-19.5 L 261,-19.5 L 261,-20 L 270,-20 L 270,-19.5
 L 271,-19.5 L 271,-20 L 280,-20 L 280,-19.5 L 281,-19.5 L 281,-20
 L 290,-20 L 290,-19.5 L 291,-19.5 L 291,-20 L 300,-20 L 300,-19.5
 L 301,-19.5 L 301,-20 L 310,-20 L 310,-19.5 L 311,-19.5 L 311,-20
 L 320,-20 L 320,-19.5 L 321,-19.5 L 321,-20 L 330,-20 L 330,-11
 L 321,-11 L 321,-11.5 L 320,-11.5 L 320,-11 L 311,-11 L 311,-11.5
 L 310,-11.5 L 310,-11 L 301,-11 L 301,-11.5 L 300,-11.5 L 300,-11
 L 291,-11 L 291,-11.5 L 290,-11.5 L 290,-11 L 281,-11 L 281,-11.5
 L 280,-11.5 L 280,-11 L 271,-11 L 271,-11.5 L 270,-11.5 L 270,-11
 L 261,-11 L 261,-11.5 L 260,-11.5 L 260,-11 L 251,-11 L 251,-11.5
 L 250,-11.5 L 250,-11 L 241,-11 L 241,-11.5 L 240,-11.5 L 240,-11
 L 231,-11 L 231,-11.5 L 230,-11.5 L 230,-11 L 221,-11 L 221,-11.5
 L 220,-11.5 L 220,-11 L 211,-11 L 211,-11.5 L 210,-11.5 L 210,-11
 L 201,-11 L 201,-11.5 L 200,-11.5 L 200,-11 L 191,-11 L 191,-11.5
 L 190,-11.5 L 190,-11 L 181,-11 L 181,-11.5 L 180,-11.5 L 180,-11
 L 171,-11 L 171,-11.5 L 170,-11.5 L 170,-11 L 161,-11 L 161,-11.5
 L 160,-11.5 L 160,-11 L 151,-11 L 151,-11.5 L 150,-11.5 L 150,-11
 L 141,-11 L 141,-11.5 L 140,-11.5 L 140,-11 L 131,-11 L 131,-11.5
 L 130,-11.5 L 130,-11 L 121,-11 L 121,-11.5 L 120,-11.5 L 120,-11
 L 111,-11 L 111,-11.5 L 110,-11.5 L 110,-11 L 101,-11 L 101,-11.5
 L 100,-11.5 L 100,-11 L 91,-11 L 91,-11.5 L 90,-11.5 L 90,-11
 L 81,-11 L 81,-11.5 L 80,-11.5 L 80,-11 L 71,-11 L 71,-11.5
 L 70,-11.5 L 70,-11 L 61,-11 L 61,-11.5 L 60,-11.5 L 60,-11
 L 51,-11 L 51,-11.5 L 50,-11.5 L 50,-11 L 41,-11 L 41,-11.5
 L 40,-11.5 L 40,-11 L 31,-11 L 31,-11.5 L 30,-11.5 L 30,-11
 L 21,-11 L 21,-11.5 L 20,-11.5 L 20,-11 z
M 169.791,-3.01096 L 169.382,-3.09789 L 169,-3.26794 L 168.662,-3.5137 L 168.382,-3.82442 L 168.173,-4.18652
 L 168.044,-4.58417 L 168,-5 L 168.044,-5.41582 L 168.173,-5.81346 L 168.382,-6.17557 L 168.662,-6.48628
 L 169,-6.73204 L 169.382,-6.9021 L 169.791,-6.98903 L 170.209,-6.98903 L 170.618,-6.9021 L 171,-6.73204
 L 171.338,-6.48628 L 171.618,-6.17557 L 171.827,-5.81346 L 171.956,-5.41582 L 172,-5 L 171.956,-4.58417
 L 171.827,-4.18652 L 171.618,-3.82442 L 171.338,-3.5137 L 171,-3.26794 L 170.618,-3.09789 L 170.209,-3.01096
 z
M 334.791,-3.01096 L 334.382,-3.09789 L 334,-3.26794 L 333.662,-3.5137 L 333.382,-3.82442 L 333.173,-4.18652
 L 333.044,-4.58417 L 333,-5 L 333.044,-5.41582 L 333.173,-5.81346 L 333.382,-6.17557 L 333.662,-6.48628
 L 334,-6.73204 L 334.382,-6.9021 L 334.791,-6.98903 L 335.209,-6.98903 L 335.618,-6.9021 L 336,-6.73204
 L 336.338,-6.48628 L 336.618,-6.17557 L 336.827,-5.81346 L 336.956,-5.41582 L 337,-5 L 336.956,-4.58417
 L 336.827,-4.18652 L 336.618,-3.82442 L 336.338,-3.5137 L 336,-3.26794 L 335.618,-3.09789 L 335.209,-3.01096
 z
M 4.79094,-3.01096 L 4.38196,-3.09789 L 4,-3.26794 L 3.66173,-3.5137 L 3.38196,-3.82442 L 3.1729,-4.18652
 L 3.0437,-4.58417 L 3,-5 L 3.0437,-5.41582 L 3.1729,-5.81346 L 3.38196,-6.17557 L 3.66173,-6.48628
 L 4,-6.73204 L 4.38196,-6.9021 L 4.79094,-6.98903 L 5.20905,-6.98903 L 5.61803,-6.9021 L 6,-6.73204
 L 6.33826,-6.48628 L 6.61803,-6.17557 L 6.82709,-5.81346 L 6.95628,-5.41582 L 7,-5 L 6.95628,-4.58417
 L 6.82709,-4.18652 L 6.61803,-3.82442 L 6.33826,-3.5137 L 6,-3.26794 L 5.61803,-3.09789 L 5.20905,-3.01096
 z
" stroke="black" fill="lightgray" stroke-width="0.5"/>
</svg>
